<svg width="644" height="423" viewBox="0 0 644 423" fill="none" xmlns="http://www.w3.org/2000/svg">
<path d="M161.635 60.5649H82.8613V173.066H161.635V60.5649Z" fill="#E0E0E0"/>
<path d="M157.685 60.5649H78.9114V173.066H157.685V60.5649Z" fill="#F5F5F5"/>
<path d="M147.905 72.7476H88.7002V160.875H147.905V72.7476Z" fill="white"/>
<path d="M147.905 160.883C147.905 160.883 147.905 160.731 147.905 160.452C147.905 160.173 147.905 159.741 147.905 159.2C147.905 158.092 147.905 156.467 147.905 154.369C147.905 150.139 147.905 143.989 147.845 136.214C147.845 120.673 147.794 98.6601 147.751 72.764L147.948 72.9586H88.7518L88.9665 72.7471C88.9665 105.995 88.9665 136.645 88.9665 160.883L88.7948 160.714L131.891 160.799L143.792 160.841H146.918H148H146.952H143.861H131.994L88.7948 160.926H88.623V160.756C88.623 136.519 88.623 105.868 88.623 72.6202V72.4087H88.8463H148.043H148.24V72.7556C148.24 98.7278 148.163 120.775 148.146 136.349C148.146 144.107 148.103 150.241 148.086 154.454C148.086 156.543 148.086 158.151 148.086 159.251C148.086 159.784 148.086 160.198 148.086 160.477C148.086 160.756 147.905 160.883 147.905 160.883Z" fill="#E0E0E0"/>
<path d="M157.917 60.5649C157.51 61.2843 157.039 61.9666 156.509 62.6038C155.599 63.8051 154.294 65.4464 152.817 67.223C151.34 68.9996 149.949 70.5647 148.919 71.6814C148.401 72.3122 147.826 72.8955 147.201 73.4241C147.646 72.7379 148.149 72.0898 148.704 71.4868L152.499 66.9522L156.277 62.3923C156.77 61.7385 157.319 61.1272 157.917 60.5649Z" fill="#E0E0E0"/>
<path d="M148.206 160.596C151.146 165.194 154.602 169.451 158.51 173.286L148.206 160.596Z" fill="white"/>
<path d="M158.536 173.32C157.875 172.849 157.27 172.307 156.732 171.704C155.36 170.329 154.058 168.886 152.834 167.381C151.409 165.612 150.215 163.929 149.399 162.685C148.93 162.029 148.528 161.329 148.197 160.596C148.728 161.2 149.213 161.842 149.648 162.516C150.507 163.717 151.744 165.359 153.16 167.11C154.577 168.861 155.951 170.401 156.947 171.501C157.52 172.069 158.051 172.677 158.536 173.32Z" fill="#E0E0E0"/>
<path d="M78.9028 172.973L89.2068 160.435L78.9028 172.973Z" fill="white"/>
<path d="M89.224 160.435C87.6698 162.652 86.0018 164.79 84.2266 166.839C82.5653 168.977 80.7881 171.024 78.9028 172.973C80.457 170.756 82.125 168.618 83.9003 166.569C85.5615 164.431 87.3387 162.384 89.224 160.435Z" fill="#E0E0E0"/>
<path d="M78.9114 60.5649C80.6914 62.4472 82.3655 64.4242 83.926 66.4869C85.5972 68.4563 87.1567 70.5152 88.5971 72.6543C86.8202 70.7717 85.149 68.7947 83.5911 66.7323C81.9176 64.7626 80.3554 62.7037 78.9114 60.5649Z" fill="#E0E0E0"/>
<path d="M129.461 90.6401H109.635V146.095H129.461V90.6401Z" fill="#E0E0E0"/>
<path d="M267.844 44.1694V93.4405H196.025L193.44 44.5163L267.844 44.1694Z" fill="#E0E0E0"/>
<path d="M193.432 44.5164V93.3306H265.251V44.5164L193.432 44.5164Z" fill="white"/>
<path d="M265.594 93.6687H193.097V44.1777H265.594V93.6687ZM193.784 93.0004H264.916V44.8376H193.784V93.0004Z" fill="#E0E0E0"/>
<path d="M257.48 50.582H201.22V87.2646H257.48V50.582Z" fill="white"/>
<path d="M257.48 50.5821H256.398H253.307H241.715L201.22 50.7598L201.383 50.599C201.383 61.8085 201.383 74.2278 201.383 87.2816L201.211 87.1124H257.471L257.325 87.2478C257.325 76.089 257.385 66.9438 257.402 60.5565C257.402 57.3755 257.402 54.8883 257.402 53.1793C257.402 52.3333 257.402 51.6904 257.402 51.242C257.402 50.7936 257.402 50.5652 257.402 50.5652C257.402 50.5652 257.402 50.7767 257.402 51.2082C257.402 51.6396 257.402 52.291 257.402 53.1201C257.402 54.8121 257.402 57.2994 257.445 60.4719C257.445 66.8676 257.488 76.0552 257.514 87.2478V87.3916H257.377H201.117H200.937V87.2139C200.937 74.1601 200.937 61.7409 200.937 50.5314V50.4214H201.1L241.706 50.4975L253.264 50.5483H256.321H257.36L257.48 50.5821Z" fill="#E0E0E0"/>
<path d="M193.44 44.3809C193.884 44.5912 194.3 44.8555 194.677 45.1676C195.407 45.6922 196.394 46.4366 197.493 47.2826C198.592 48.1286 199.52 48.9746 200.19 49.5415C200.573 49.8479 200.918 50.1971 201.22 50.582C199.852 49.6394 198.533 48.6286 197.27 47.5534C195.927 46.5769 194.647 45.5173 193.44 44.3809Z" fill="#E0E0E0"/>
<path d="M265.259 44.5161C264.078 45.661 262.816 46.7212 261.481 47.6886C260.218 48.7446 258.881 49.7114 257.48 50.5819C258.661 49.4371 259.923 48.3769 261.258 47.4094C262.519 46.3512 263.856 45.3842 265.259 44.5161Z" fill="#E0E0E0"/>
<path d="M265.199 93.3391L257.188 86.9434L265.199 93.3391Z" fill="white"/>
<path d="M257.188 86.9434C258.628 87.874 260.005 88.8971 261.309 90.0059C262.68 91.0297 263.98 92.1433 265.199 93.3391C263.757 92.4139 262.383 91.3906 261.086 90.2766C259.709 89.2569 258.406 88.1431 257.188 86.9434Z" fill="#E0E0E0"/>
<path d="M193.44 93.3307C194.607 92.1998 195.856 91.1537 197.176 90.2005C198.425 89.1537 199.748 88.1953 201.134 87.3325C199.971 88.4699 198.722 89.5191 197.399 90.4712C196.151 91.5171 194.828 92.4727 193.44 93.3307Z" fill="#E0E0E0"/>
<path d="M212.64 62.0115V74.2954H248.043V62.0115H212.64Z" fill="#E0E0E0"/>
<path d="M560.443 264.941C560.443 264.941 553.994 261.98 548.937 276.87C543.879 291.76 542.377 300.143 542.377 300.143C542.377 300.143 540.926 303.324 538.616 301.725C536.306 300.127 532.725 295.161 529.437 296.649C526.148 298.138 525.444 302.267 526.998 307.927C528.552 313.586 531.497 326.099 531.755 327.232C532.013 328.366 531.609 330.1 529.866 329.263C528.123 328.425 517.458 319.754 513.551 324.974C509.644 330.193 516.634 345.278 517.364 346.919C518.094 348.56 517.862 349.372 517.089 349.922C516.316 350.472 513.027 347.223 509.893 344.846C506.759 342.469 502.715 340.328 500.731 343.526C498.748 346.724 499.778 358.644 514.092 376.14L521.262 383.813L531.678 381.689C553.685 375.81 561.619 366.758 561.92 363.018C562.22 359.279 557.627 358.704 553.72 358.788C549.813 358.873 545.185 359.592 544.893 358.695C544.601 357.798 544.893 357.003 546.455 356.157C548.018 355.311 562.641 347.063 562.624 340.591C562.607 334.119 548.808 334.982 546.893 334.669C544.978 334.356 545.7 332.681 546.567 331.928C547.434 331.175 557.292 322.732 561.92 319.052C566.548 315.371 568.523 311.725 566.668 308.519C564.814 305.313 559.026 307.368 556.21 307.326C553.393 307.284 554.106 303.866 554.106 303.866C554.106 303.866 557.884 296.252 562.693 281.235C567.501 266.219 560.306 264.924 560.306 264.924" fill="#EBEBEB"/>
<path d="M519.905 385.937C523.46 374.939 530.106 355.523 535.731 338.814C541.355 322.106 546.43 306.988 550.045 296.024C551.839 290.542 553.29 286.109 554.338 283.029C554.844 281.506 555.197 280.313 555.506 279.493C555.637 279.104 555.74 278.799 555.815 278.579C555.883 278.368 555.926 278.266 555.926 278.266C555.926 278.266 555.926 278.376 555.841 278.588C555.755 278.799 555.686 279.112 555.566 279.51C555.308 280.356 554.939 281.532 554.458 283.063C553.496 286.151 552.08 290.601 550.294 296.091C546.739 307.089 541.707 322.216 536.083 338.916C530.458 355.616 523.769 375.04 520.154 386.004" fill="#E0E0E0"/>
<path d="M534.168 303.781C534.311 303.99 534.434 304.211 534.537 304.441C534.76 304.873 535.061 305.516 535.396 306.302C536.126 307.884 537.113 310.092 538.066 312.546C539.019 314.999 539.921 317.157 540.642 318.832C540.943 319.585 541.209 320.228 541.415 320.735C541.532 320.96 541.619 321.199 541.673 321.446C541.53 321.237 541.406 321.016 541.304 320.786C541.08 320.354 540.78 319.72 540.445 318.925C539.732 317.334 538.813 315.118 537.817 312.664C536.821 310.211 535.928 308.062 535.241 306.395L534.451 304.492C534.327 304.268 534.231 304.029 534.168 303.781Z" fill="#E0E0E0"/>
<path d="M542.677 321.48C542.634 321.395 547.168 319.28 552.801 316.742C558.434 314.204 563.019 312.225 563.105 312.309C563.191 312.394 558.606 314.509 552.973 317.038C547.34 319.568 542.677 321.573 542.677 321.48Z" fill="#E0E0E0"/>
<path d="M532.837 346.758C533.088 346.679 533.347 346.628 533.61 346.606L535.713 346.302C537.482 346.048 539.938 345.684 542.626 345.176C545.313 344.669 547.726 344.153 549.495 343.747L551.564 343.281C551.815 343.204 552.075 343.159 552.337 343.146C552.099 343.253 551.852 343.338 551.599 343.4C551.118 343.544 550.422 343.747 549.555 343.975C547.838 344.432 545.399 344.999 542.686 345.498C539.972 345.997 537.534 346.344 535.739 346.53C534.881 346.632 534.125 346.699 533.618 346.733C533.359 346.764 533.098 346.772 532.837 346.758Z" fill="#E0E0E0"/>
<path d="M521.588 332.401C521.774 332.554 521.941 332.727 522.086 332.917L523.349 334.406C524.405 335.667 525.839 337.427 527.41 339.381C528.981 341.335 530.398 343.112 531.403 344.415L532.579 345.963C532.733 346.147 532.869 346.345 532.983 346.555C532.795 346.405 532.627 346.232 532.485 346.039L531.223 344.558C530.166 343.289 528.732 341.538 527.153 339.584C525.573 337.63 524.173 335.845 523.168 334.55L521.992 333.002C521.834 332.818 521.699 332.616 521.588 332.401Z" fill="#E0E0E0"/>
<path d="M510.048 353.628C510.28 353.829 510.49 354.053 510.675 354.296C511.104 354.787 511.645 355.43 512.298 356.191C513.663 357.799 515.518 360.041 517.561 362.528C519.605 365.015 521.434 367.274 522.713 368.924L524.259 370.878C524.456 371.113 524.631 371.365 524.783 371.631C524.556 371.425 524.347 371.201 524.156 370.962L522.533 369.067C521.176 367.452 519.313 365.218 517.269 362.731C515.226 360.244 513.397 357.985 512.117 356.335C511.499 355.548 510.975 354.888 510.58 354.372C510.378 354.142 510.2 353.893 510.048 353.628Z" fill="#E0E0E0"/>
<path d="M524.645 371.098C524.96 371.004 525.281 370.933 525.607 370.886L528.26 370.413C530.501 370.007 533.593 369.431 536.984 368.721C540.376 368.01 543.433 367.266 545.64 366.716L548.259 366.073C548.576 365.979 548.9 365.911 549.229 365.87C548.927 366.005 548.614 366.112 548.293 366.191C547.683 366.377 546.799 366.64 545.717 366.936C543.519 367.545 540.47 368.315 537.07 369.034C533.67 369.753 530.57 370.303 528.32 370.65C527.196 370.827 526.277 370.954 525.65 371.03C525.318 371.084 524.982 371.107 524.645 371.098Z" fill="#E0E0E0"/>
<path d="M579.6 385.632C579.6 385.75 461.628 385.852 316.144 385.852C170.66 385.852 52.6877 385.776 52.6877 385.632C52.6877 385.488 170.634 385.412 316.178 385.412C461.722 385.412 579.6 385.514 579.6 385.632Z" fill="#263238"/>
<path d="M415.011 384.837H459.747L438.89 207.735L415.011 384.837Z" fill="#E0E0E0"/>
<path d="M194.883 207.735L165.757 386.927L414.298 390.116L438.89 207.735H194.883Z" fill="#FAFAFA"/>
<path d="M427.822 289.823H181.539L186.897 256.829H432.27L427.822 289.823Z" fill="#EBEBEB"/>
<path d="M427.839 289.848H181.514L186.88 256.854H432.296L427.839 289.848ZM181.565 289.806H427.805L432.244 256.812H186.923L181.565 289.806Z" fill="#263238"/>
<path d="M194.883 207.735L186.897 256.829H432.27L438.89 207.735H194.883Z" fill="#FE4400"/>
<path d="M194.917 207.735L438.925 207.532H439.156V207.761C431.969 261.152 423.812 321.7 415.191 385.649V385.844H412.203L165.963 385.776H165.723V385.564L194.917 207.735C194.677 209.207 183.583 277.911 166.178 385.649L165.997 385.438H412.143H414.933L414.719 385.624C423.348 321.675 431.523 261.135 438.761 207.744L438.959 207.964L194.917 207.735Z" fill="#263238"/>
<path d="M432.27 256.829C432.27 256.947 377.315 257.049 309.592 257.049C241.869 257.049 186.897 256.947 186.897 256.829C186.897 256.71 241.852 256.609 309.592 256.609C377.333 256.609 432.27 256.702 432.27 256.829Z" fill="#263238"/>
<path d="M427.822 289.823C427.822 289.95 372.575 290.043 304.449 290.043C236.322 290.043 181.067 289.95 181.067 289.823C181.067 289.696 236.296 289.603 304.449 289.603C372.601 289.603 427.822 289.705 427.822 289.823Z" fill="#263238"/>
<path d="M422.807 320.186C422.807 320.313 367.569 320.406 299.443 320.406C231.316 320.406 176.027 320.313 176.027 320.186C176.027 320.059 231.256 319.966 299.408 319.966C367.561 319.966 422.807 320.067 422.807 320.186Z" fill="#263238"/>
<path d="M417.801 350.549C417.801 350.667 362.555 350.769 294.428 350.769C226.302 350.769 171.046 350.667 171.046 350.549C171.046 350.43 226.276 350.329 294.428 350.329C362.581 350.329 417.801 350.43 417.801 350.549Z" fill="#263238"/>
<path d="M200.645 385.894C200.524 385.894 205.032 356.961 210.725 321.328C216.418 285.694 221.115 256.803 221.236 256.829C221.356 256.854 216.848 285.745 211.163 321.395C205.479 357.046 200.773 385.911 200.645 385.894Z" fill="#263238"/>
<path d="M238.623 385.894C238.494 385.894 243.011 356.961 248.695 321.328C254.38 285.694 259.085 256.803 259.214 256.829C259.343 256.854 254.826 285.745 249.133 321.395C243.44 357.046 238.709 385.911 238.623 385.894Z" fill="#263238"/>
<path d="M273.915 384.6C273.795 384.6 278.26 355.963 283.884 320.685C289.508 285.407 294.188 256.803 294.299 256.829C294.411 256.854 289.955 285.457 284.33 320.752C278.706 356.048 274.026 384.617 273.915 384.6Z" fill="#263238"/>
<path d="M308.819 385.624C308.699 385.624 313.199 356.75 318.874 321.192C324.55 285.635 329.247 256.803 329.367 256.829C329.488 256.854 324.988 285.686 319.312 321.26C313.637 356.834 308.94 385.641 308.819 385.624Z" fill="#263238"/>
<path d="M343.896 385.624C343.776 385.624 348.275 356.75 353.951 321.192C359.627 285.635 364.324 256.803 364.444 256.829C364.564 256.854 360.073 285.686 354.397 321.26C348.722 356.834 344.025 385.641 343.896 385.624Z" fill="#263238"/>
<path d="M378.947 385.776C378.826 385.776 383.334 356.868 389.019 321.252C394.703 285.635 399.4 256.77 399.529 256.795C399.658 256.82 395.141 285.694 389.457 321.319C383.772 356.944 379.067 385.827 378.947 385.776Z" fill="#263238"/>
<g opacity="0.2">
<path opacity="0.2" d="M356.879 259.13C361.104 257.286 363.748 252.954 364.839 248.529C365.929 244.105 365.758 239.486 365.921 234.926C366.084 230.366 366.634 225.671 368.995 221.754C370.394 219.444 372.361 217.524 373.915 215.299C375.469 213.074 376.62 210.366 376.045 207.685L349.615 207.82L356.879 259.13Z" fill="black"/>
</g>
<path d="M247.296 292.268C247.225 292.381 247.139 292.483 247.038 292.572L246.248 293.418C245.553 294.12 244.531 295.11 243.243 296.345C240.667 298.782 237.086 302.098 233.008 305.651C228.929 309.205 225.151 312.301 222.377 314.5C220.986 315.6 219.853 316.48 219.063 317.038L218.144 317.715C218.042 317.803 217.926 317.875 217.801 317.927C217.801 317.927 217.895 317.817 218.084 317.648L218.943 316.903L222.163 314.221C224.893 311.962 228.637 308.824 232.707 305.288C236.777 301.751 240.435 298.469 243.011 296.091L246.111 293.274L246.97 292.521C247.067 292.424 247.177 292.338 247.296 292.268Z" fill="#263238"/>
<path d="M245.312 318.265C244.948 317.951 244.606 317.612 244.291 317.25L241.603 314.424C239.285 311.996 236.176 308.731 232.75 305.118L223.803 295.897L221.089 293.097C220.747 292.764 220.428 292.407 220.136 292.031C220.525 292.314 220.887 292.631 221.218 292.978C221.888 293.604 222.85 294.526 224.026 295.677C226.379 297.978 229.59 301.201 233.068 304.822C236.545 308.443 239.637 311.776 241.835 314.221C242.934 315.44 243.818 316.438 244.411 317.132C244.746 317.481 245.048 317.861 245.312 318.265Z" fill="#263238"/>
<path d="M254.483 300.042C254.483 300.042 254.569 299.822 254.749 299.391C255.034 298.765 255.379 298.167 255.78 297.606C257.359 295.432 259.585 293.797 262.151 292.927C263.988 292.273 265.948 292.019 267.895 292.183C270.214 292.405 272.448 293.155 274.421 294.374C276.7 295.757 278.624 297.639 280.046 299.873C281.69 302.367 282.509 305.302 282.39 308.274C282.291 309.877 281.786 311.43 280.921 312.791C280.015 314.203 278.808 315.404 277.384 316.311C274.351 318.227 270.78 319.148 267.183 318.942C265.299 318.842 263.443 318.445 261.687 317.766C259.86 317.063 258.217 315.964 256.879 314.551C256.214 313.808 255.654 312.98 255.213 312.089C254.793 311.18 254.504 310.218 254.354 309.23C254.069 307.206 254.248 305.145 254.878 303.198C256.191 299.138 259.038 295.73 262.829 293.68C264.795 292.617 266.982 292.011 269.222 291.91C271.462 291.809 273.696 292.215 275.752 293.097C277.882 293.981 279.748 295.388 281.17 297.183C282.595 299.026 283.485 301.216 283.746 303.519C284.044 305.855 283.659 308.226 282.639 310.355C282.114 311.423 281.425 312.405 280.595 313.265C279.75 314.113 278.798 314.85 277.761 315.456C275.67 316.591 273.364 317.289 270.987 317.507C268.611 317.726 266.213 317.46 263.945 316.725C261.712 316.05 259.659 314.894 257.935 313.341C256.225 311.788 255.056 309.742 254.595 307.495C254.111 305.287 254.43 302.981 255.496 300.981C256.037 299.996 256.78 299.131 257.677 298.443C258.561 297.786 259.547 297.275 260.597 296.929C262.659 296.277 264.822 295.991 266.985 296.083C269.092 296.098 271.187 296.382 273.219 296.929C275.228 297.45 277.084 298.429 278.637 299.788C280.125 301.156 281.14 302.949 281.54 304.915C281.934 306.815 281.818 308.783 281.205 310.626C280.597 312.402 279.57 314.012 278.208 315.321C275.621 317.813 272.196 319.282 268.582 319.449C266.891 319.538 265.199 319.296 263.602 318.739C262.069 318.197 260.691 317.301 259.583 316.125C258.535 315.003 257.742 313.673 257.256 312.225C256.778 310.866 256.565 309.431 256.63 307.995C256.752 305.335 257.829 302.804 259.669 300.854C261.242 299.158 263.233 297.891 265.448 297.174C267.308 296.577 269.278 296.392 271.218 296.633C273.9 296.961 276.448 297.973 278.612 299.568C279.173 299.975 279.704 300.422 280.2 300.905C280.535 301.235 280.698 301.413 280.698 301.413C280.698 301.413 280.509 301.252 280.174 300.939C279.664 300.472 279.125 300.037 278.56 299.636C276.393 298.088 273.859 297.112 271.201 296.802C269.105 296.563 266.981 296.822 265.008 297.558C263.034 298.294 261.268 299.485 259.858 301.032C258.066 302.94 257.022 305.414 256.913 308.012C256.855 309.42 257.067 310.826 257.54 312.157C258.018 313.562 258.794 314.851 259.815 315.939C260.891 317.078 262.228 317.948 263.714 318.477C265.271 319.01 266.919 319.24 268.565 319.153C272.092 318.982 275.432 317.54 277.95 315.101C279.266 313.833 280.258 312.276 280.844 310.558C281.432 308.777 281.538 306.876 281.153 305.042C280.767 303.154 279.791 301.433 278.362 300.118C276.852 298.81 275.053 297.866 273.107 297.36C271.109 296.821 269.049 296.537 266.977 296.514C264.864 296.436 262.755 296.722 260.743 297.36C258.69 297.979 256.953 299.343 255.883 301.176C254.866 303.089 254.562 305.292 255.024 307.402C255.469 309.56 256.596 311.524 258.244 313.011C259.915 314.532 261.91 315.666 264.083 316.328C266.29 317.043 268.623 317.303 270.937 317.09C273.25 316.878 275.495 316.198 277.53 315.093C278.534 314.511 279.456 313.8 280.269 312.978C281.066 312.152 281.729 311.21 282.235 310.186C283.223 308.132 283.596 305.842 283.308 303.587C283.063 301.364 282.211 299.247 280.844 297.462C279.468 295.727 277.665 294.367 275.606 293.511C273.611 292.652 271.443 292.256 269.268 292.353C267.093 292.45 264.969 293.037 263.061 294.069C259.376 296.069 256.61 299.384 255.333 303.333C254.721 305.222 254.542 307.222 254.809 309.187C254.964 310.142 255.253 311.07 255.668 311.945C256.093 312.8 256.63 313.597 257.265 314.314C258.56 315.682 260.151 316.746 261.919 317.428C263.636 318.096 265.451 318.491 267.294 318.595C270.814 318.807 274.312 317.919 277.289 316.057C278.665 315.227 279.824 314.09 280.673 312.739C281.521 311.387 282.036 309.857 282.175 308.274C282.295 305.367 281.5 302.495 279.9 300.051C278.51 297.845 276.624 295.983 274.387 294.611C272.449 293.403 270.254 292.653 267.973 292.42C266.055 292.24 264.12 292.477 262.305 293.113C259.763 293.96 257.545 295.555 255.951 297.682C255.54 298.234 255.184 298.823 254.887 299.442C254.595 299.831 254.483 300.042 254.483 300.042Z" fill="#FF725E"/>
<path d="M277.744 323.401C277.822 323.494 271.012 329.23 262.529 336.217C254.045 343.205 247.073 348.781 247.021 348.688C246.97 348.594 253.753 342.859 262.237 335.879C270.72 328.9 277.667 323.307 277.744 323.401Z" fill="#263238"/>
<path d="M279.23 347.935C278.826 347.701 278.443 347.432 278.088 347.131L275.065 344.813C272.532 342.833 269.055 340.075 265.225 337.013C261.395 333.95 257.952 331.158 255.47 329.12L252.542 326.683C252.171 326.404 251.826 326.092 251.512 325.752C251.914 325.989 252.296 326.258 252.654 326.556L255.668 328.874C258.201 330.854 261.679 333.612 265.508 336.674C269.338 339.737 272.781 342.529 275.271 344.568L278.191 346.996C278.56 347.284 278.907 347.597 279.23 347.935Z" fill="#263238"/>
<path d="M349.426 323.731C349.494 323.824 342.986 328.739 334.871 334.729C326.757 340.718 320.128 345.447 320.051 345.346C319.973 345.244 326.491 340.338 334.605 334.348C342.72 328.358 349.348 323.629 349.426 323.731Z" fill="#263238"/>
<path d="M351.95 344.542C351.89 344.644 344.969 340.422 336.494 335.101C328.019 329.78 321.227 325.397 321.287 325.287C321.347 325.177 328.268 329.416 336.743 334.729C345.218 340.041 352.053 344.441 351.95 344.542Z" fill="#263238"/>
<path d="M278.861 385.632C278.766 385.548 285.532 378.56 293.965 370.041C302.397 361.521 309.309 354.66 309.421 354.745C309.532 354.83 302.749 361.817 294.317 370.345C285.884 378.873 278.946 385.717 278.861 385.632Z" fill="#FF725E"/>
<path d="M307.463 385.624C307.463 385.624 307.351 385.531 307.179 385.328L306.458 384.482C305.788 383.636 304.895 382.544 303.805 381.208C301.564 378.45 298.387 374.702 294.703 370.717C291.019 366.732 287.525 363.272 284.949 360.819L281.892 357.858L281.033 357.063C280.934 356.974 280.845 356.874 280.767 356.767C280.767 356.767 280.896 356.834 281.093 356.995L281.952 357.731C282.716 358.374 283.798 359.33 285.12 360.531C287.748 362.934 291.286 366.369 294.986 370.362C298.687 374.355 301.856 378.145 304.002 380.954C305.101 382.358 305.969 383.492 306.578 384.338L307.24 385.268C307.329 385.377 307.404 385.497 307.463 385.624Z" fill="#FF725E"/>
<path d="M237.172 350.041C237.172 350.041 237.447 370.827 232.123 383.272L199.674 377.824C199.674 377.824 209.446 358.129 206.784 347.182L237.172 350.041Z" fill="#EBEBEB"/>
<path d="M237.164 349.263C237.164 349.263 233.094 374.778 230.604 382.392L198.352 376.081C198.352 376.081 204.99 351.412 204.904 344.542L237.164 349.263Z" fill="#FF725E"/>
<path d="M208.175 355.98C208.175 356.098 212.966 357.198 218.934 358.433C224.902 359.669 229.753 360.574 229.779 360.464C229.805 360.354 224.988 359.246 219.02 358.01C213.052 356.775 208.201 355.862 208.175 355.98Z" fill="white"/>
<path d="M207.351 361.386C207.351 361.505 212.142 362.596 218.11 363.84C224.078 365.083 228.929 365.98 228.955 365.87C228.981 365.76 224.164 364.652 218.196 363.417C212.228 362.181 207.377 361.242 207.351 361.386Z" fill="white"/>
<path d="M212.091 367.502C212.641 367.738 213.217 367.908 213.808 368.01C214.916 368.272 216.453 368.619 218.144 368.974C219.836 369.33 221.39 369.617 222.515 369.82C223.116 369.969 223.733 370.043 224.352 370.04C223.781 369.803 223.185 369.63 222.575 369.524C221.476 369.254 219.939 368.907 218.239 368.56C216.538 368.213 214.993 367.909 213.877 367.714C213.292 367.573 212.692 367.502 212.091 367.502Z" fill="white"/>
<path d="M390.693 291.675C390.693 291.675 394.016 311.929 390.65 324.847L358.158 324.162C358.158 324.162 364.805 303.536 360.588 293.223L390.693 291.675Z" fill="#EBEBEB"/>
<path d="M390.547 290.914C390.547 290.914 390.333 316.387 389.019 324.162L356.587 322.648C356.587 322.648 359.429 297.606 358.304 290.914H390.547Z" fill="#455A64"/>
<path d="M362.907 302.25C362.907 302.369 367.784 302.47 373.803 302.479C379.823 302.487 384.708 302.403 384.708 302.284C384.708 302.166 379.831 302.064 373.803 302.056C367.776 302.047 362.907 302.132 362.907 302.25Z" fill="white"/>
<path d="M363.216 307.639C363.216 307.758 368.093 307.859 374.113 307.868C380.132 307.876 385.018 307.792 385.018 307.673C385.018 307.555 380.14 307.453 374.113 307.445C368.085 307.436 363.216 307.521 363.216 307.639Z" fill="white"/>
<path d="M369.029 312.606C369.627 312.732 370.238 312.786 370.849 312.766C371.974 312.766 373.528 312.826 375.246 312.834C376.963 312.843 378.509 312.834 379.634 312.775C380.244 312.799 380.855 312.751 381.454 312.631C380.856 312.505 380.244 312.454 379.634 312.479C378.509 312.437 376.963 312.411 375.246 312.403C373.528 312.394 371.974 312.403 370.849 312.462C370.239 312.438 369.628 312.486 369.029 312.606Z" fill="white"/>
<path d="M397.563 233.276C391.5 233.276 385.395 229.528 382.184 223.632C379.062 217.76 378.094 211.006 379.445 204.512C381.222 196.052 386.906 189.115 393.93 186.898C399.898 185.012 410.563 186.052 415.595 194.352C417.992 198.41 419.182 203.051 419.029 207.744C419.007 208.077 418.918 208.403 418.767 208.702C418.617 209.002 418.408 209.269 418.153 209.489C417.898 209.709 417.602 209.877 417.28 209.984C416.959 210.091 416.62 210.135 416.281 210.113C415.598 210.068 414.961 209.757 414.51 209.25C414.059 208.742 413.832 208.079 413.877 207.405C413.924 203.741 412.969 200.133 411.112 196.957C407.231 190.57 398.722 190.697 395.442 191.729C389.431 193.624 385.584 200.028 384.425 205.536C383.312 210.868 384.104 216.415 386.666 221.238C389.199 225.891 394.325 228.784 398.868 228.099C399.538 228.007 400.219 228.178 400.761 228.577C401.304 228.975 401.666 229.568 401.769 230.227C401.872 230.887 401.707 231.559 401.31 232.1C400.913 232.64 400.317 233.005 399.649 233.115C398.959 233.221 398.261 233.275 397.563 233.276Z" fill="#263238"/>
<path d="M231.256 233.276C225.185 233.276 219.089 229.529 215.877 223.632C212.753 217.761 211.782 211.007 213.13 204.512C214.632 197.372 219.716 189.149 227.727 186.882C231.59 185.851 235.685 186.055 239.422 187.465L237.567 192.203C234.878 191.196 231.937 191.039 229.152 191.755C223.245 193.447 219.398 199.893 218.213 205.536C217.1 210.868 217.892 216.415 220.454 221.238C222.987 225.899 228.122 228.784 232.656 228.099L233.437 233.116C232.716 233.226 231.986 233.279 231.256 233.276Z" fill="#263238"/>
<path d="M395.442 207.871L393.072 220.654H427.942L431.042 207.998L395.442 207.871Z" fill="#FF725E"/>
<path d="M240.092 231.254C240.093 232.336 239.769 233.393 239.161 234.294C238.552 235.194 237.685 235.895 236.672 236.31C235.658 236.725 234.542 236.834 233.465 236.623C232.388 236.412 231.399 235.892 230.622 235.127C229.846 234.362 229.318 233.388 229.104 232.327C228.89 231.266 229.001 230.166 229.422 229.167C229.843 228.168 230.555 227.315 231.468 226.715C232.382 226.115 233.456 225.796 234.553 225.797C236.022 225.8 237.429 226.375 238.467 227.398C239.505 228.421 240.089 229.808 240.092 231.254Z" fill="#263238"/>
<path d="M406.252 231.254C406.254 232.336 405.93 233.393 405.321 234.294C404.712 235.194 403.846 235.895 402.832 236.31C401.818 236.725 400.702 236.834 399.625 236.623C398.549 236.412 397.559 235.892 396.783 235.127C396.007 234.362 395.478 233.388 395.265 232.327C395.051 231.266 395.161 230.166 395.582 229.167C396.003 228.168 396.716 227.315 397.629 226.715C398.543 226.115 399.616 225.796 400.714 225.797C402.182 225.8 403.59 226.375 404.628 227.398C405.666 228.421 406.25 229.808 406.252 231.254Z" fill="#263238"/>
<path d="M314.744 125.479L305.625 159.555L274.146 162.889V168.388L318.376 169.919L326.688 131.688L314.744 125.479Z" fill="#FFBE9D"/>
<path d="M328.011 170.824C328.011 170.824 278.826 168.515 264.821 179.284C250.816 190.054 257.6 207.735 257.6 207.735L336.752 207.532L343.741 167.999L328.011 170.824Z" fill="#263238"/>
<path d="M336.383 196.906C336.144 196.912 335.905 196.895 335.67 196.856C335.206 196.805 334.528 196.737 333.652 196.627C331.935 196.416 329.359 196.06 326.268 195.544C318.152 194.184 310.124 192.357 302.225 190.071C297.605 188.726 293.235 187.372 289.199 186.382C285.636 185.474 281.993 184.907 278.32 184.69C275.841 184.553 273.355 184.695 270.909 185.113C270.051 185.215 269.389 185.435 268.926 185.511C268.697 185.566 268.464 185.609 268.23 185.638C268.449 185.545 268.676 185.474 268.909 185.426C269.554 185.228 270.211 185.067 270.875 184.944C273.327 184.456 275.83 184.266 278.328 184.377C282.054 184.552 285.754 185.093 289.371 185.993C293.432 186.957 297.811 188.311 302.414 189.656C310.27 191.922 318.24 193.783 326.293 195.231C329.393 195.79 331.909 196.187 333.652 196.458L335.661 196.771C335.905 196.796 336.146 196.842 336.383 196.906Z" fill="#455A64"/>
<path d="M290.667 186.12C289.301 185.01 287.845 184.011 286.314 183.134C284.709 182.394 283.046 181.783 281.342 181.306C281.871 181.261 282.404 181.313 282.913 181.459C284.169 181.725 285.382 182.158 286.52 182.745C287.656 183.335 288.707 184.072 289.645 184.936C290.057 185.265 290.404 185.667 290.667 186.12Z" fill="#455A64"/>
<path d="M333.223 276.16L333.884 296.523L329.728 312.783C329.66 313.061 329.652 313.351 329.703 313.633C329.754 313.914 329.864 314.183 330.025 314.421C330.186 314.659 330.395 314.862 330.64 315.017C330.884 315.172 331.158 315.275 331.445 315.321C331.777 315.381 332.119 315.361 332.442 315.264C332.764 315.167 333.059 314.995 333.3 314.763C336.426 311.751 347.897 300.618 347.751 299.137C347.597 297.445 348.498 277.598 348.498 277.598L333.223 276.16Z" fill="#FF725E"/>
<g opacity="0.6">
<path opacity="0.6" d="M331.368 315.355L347.683 297.792V298.638C347.692 299.385 347.43 300.112 346.944 300.685C345.648 302.217 341.964 306.37 333.3 314.78C333.052 315.021 332.748 315.198 332.414 315.296C332.08 315.393 331.726 315.408 331.385 315.338L331.368 315.355Z" fill="white"/>
</g>
<g opacity="0.6">
<path opacity="0.6" d="M343.355 291.252C343.093 291.441 342.913 291.72 342.851 292.034C342.789 292.347 342.849 292.673 343.02 292.944C343.201 293.198 343.473 293.374 343.781 293.437C344.089 293.5 344.409 293.445 344.677 293.283C344.947 293.086 345.131 292.797 345.195 292.473C345.258 292.149 345.196 291.813 345.021 291.532C344.807 291.284 344.504 291.127 344.175 291.096C343.847 291.064 343.519 291.16 343.261 291.362" fill="white"/>
</g>
<path d="M336.013 306.404C335.893 306.464 335.412 305.406 334.184 304.839C333.425 304.545 332.614 304.401 331.797 304.416C331.797 304.365 332.038 304.205 332.519 304.129C333.156 304.052 333.802 304.158 334.38 304.432C334.958 304.706 335.445 305.138 335.782 305.677C336.022 306.091 336.056 306.387 336.013 306.404Z" fill="#263238"/>
<path d="M334.562 309.154C333.968 308.834 333.355 308.552 332.725 308.308C332.054 308.191 331.378 308.112 330.698 308.071C331.014 307.871 331.374 307.749 331.747 307.715C332.121 307.681 332.498 307.736 332.845 307.876C334.064 308.198 334.665 309.094 334.562 309.154Z" fill="#263238"/>
<path d="M338.718 302.868C337.841 302.298 336.923 301.792 335.97 301.354C334.965 301.051 333.937 300.824 332.896 300.677C333.978 300.454 335.102 300.541 336.134 300.93C337.166 301.318 338.063 301.991 338.718 302.868Z" fill="#263238"/>
<path d="M339.045 296.676C338.993 296.802 337.842 296.337 336.357 296.303C334.871 296.269 333.695 296.625 333.644 296.498C334.477 296.045 335.418 295.823 336.369 295.854C337.32 295.886 338.244 296.169 339.045 296.676Z" fill="#263238"/>
<path d="M339.001 290.694C338.097 290.414 337.158 290.257 336.211 290.228C335.272 290.336 334.353 290.572 333.48 290.931C333.48 290.888 333.669 290.626 334.141 290.355C334.774 290.004 335.481 289.804 336.206 289.773C336.932 289.742 337.654 289.881 338.315 290.178C338.787 290.406 339.036 290.643 339.001 290.694Z" fill="#263238"/>
<path d="M336.237 289.087C336.183 288.833 336.183 288.571 336.237 288.317C336.301 287.61 336.508 286.922 336.846 286.295C337.047 285.812 337.407 285.41 337.868 285.153C338.028 285.083 338.205 285.062 338.377 285.094C338.549 285.125 338.707 285.208 338.83 285.331C339.051 285.585 339.17 285.91 339.165 286.244C339.124 286.926 338.845 287.573 338.376 288.076C337.906 288.579 337.275 288.906 336.589 289.002C335.904 289.077 335.211 288.95 334.6 288.637C333.988 288.324 333.485 287.838 333.154 287.243C333.071 287.092 333.021 286.926 333.009 286.755C332.998 286.584 333.023 286.413 333.085 286.253C333.166 286.101 333.291 285.977 333.444 285.897C333.597 285.817 333.772 285.785 333.944 285.804C334.454 285.912 334.928 286.148 335.318 286.49C335.881 286.929 336.364 287.462 336.743 288.063C336.895 288.276 337.005 288.514 337.069 288.765C336.524 288.001 335.867 287.32 335.12 286.743C334.772 286.462 334.36 286.267 333.918 286.177C333.823 286.161 333.725 286.175 333.638 286.218C333.552 286.26 333.482 286.329 333.437 286.413C333.407 286.522 333.399 286.636 333.413 286.748C333.428 286.86 333.466 286.967 333.523 287.065C333.824 287.569 334.266 287.977 334.796 288.241C335.325 288.505 335.921 288.614 336.511 288.554C337.097 288.48 337.639 288.211 338.047 287.79C338.455 287.37 338.704 286.824 338.752 286.244C338.764 286.013 338.691 285.785 338.546 285.601C338.481 285.529 338.395 285.479 338.299 285.459C338.203 285.44 338.103 285.451 338.014 285.491C337.637 285.718 337.338 286.051 337.155 286.447C336.699 287.269 336.388 288.162 336.237 289.087Z" fill="#263238"/>
<path d="M343.698 167.999C343.698 167.999 322.429 207.617 322.137 214.529C321.845 221.44 322.137 285.153 322.137 285.153H355.059C355.917 285.153 360.855 256.448 359.85 249.841C358.845 243.233 355.299 207.718 355.299 207.718H374.241C374.241 207.718 379.436 202.245 379.247 195.299C379.136 191.467 376.594 183.633 374.095 179.479C372.472 176.814 362.074 162.863 362.074 162.863L343.698 167.999Z" fill="#263238"/>
<path d="M342.273 170.681C342.25 170.76 342.218 170.836 342.179 170.909C342.101 171.078 341.998 171.29 341.87 171.552L340.633 174.022C340.075 175.097 339.414 176.4 338.641 177.914L337.405 180.342L336.108 183.108L329.728 196.72C328.517 199.258 327.246 201.974 325.924 204.757L323.923 208.987C323.277 210.45 322.788 211.976 322.464 213.539C322.138 215.107 321.968 216.702 321.957 218.302C321.906 219.884 321.871 221.449 321.845 222.98C321.845 226.06 321.785 229.021 321.794 231.846C321.794 237.498 321.863 242.591 321.923 246.863C321.983 251.135 322.034 254.562 322.077 257.015C322.077 258.182 322.077 259.105 322.077 259.764C322.077 260.061 322.077 260.297 322.077 260.484C322.077 260.67 322.077 260.729 322.077 260.729C322.063 260.648 322.063 260.565 322.077 260.484C322.077 260.297 322.077 260.061 322.077 259.773C322.077 259.105 322.009 258.191 321.957 257.015C321.871 254.629 321.76 251.169 321.665 246.863C321.571 242.557 321.468 237.506 321.442 231.846C321.442 229.021 321.442 226.051 321.442 222.98C321.442 221.441 321.493 219.875 321.554 218.285C321.562 216.66 321.732 215.039 322.06 213.446C322.393 211.853 322.893 210.3 323.554 208.81L325.563 204.58L329.393 196.56L335.902 182.981L337.224 180.223C337.679 179.377 338.083 178.531 338.495 177.812L340.547 173.955C341.105 172.914 341.552 172.102 341.861 171.518C342.007 171.264 342.127 171.061 342.213 170.892C342.299 170.723 342.265 170.672 342.273 170.681Z" fill="#455A64"/>
<path d="M335.387 184.174C334.704 182.564 334.13 180.91 333.669 179.225C333.066 177.584 332.576 175.905 332.201 174.2C333.001 175.763 333.635 177.405 334.09 179.098C334.698 180.742 335.132 182.443 335.387 184.174Z" fill="#455A64"/>
<path d="M359.919 248.597C359.864 248.453 359.829 248.302 359.816 248.149C359.775 247.805 359.715 247.373 359.635 246.855C359.481 245.662 359.283 244.037 359.034 242.066C358.562 237.972 357.926 232.413 357.222 226.271C356.518 220.129 355.943 214.504 355.591 210.451C355.428 208.472 355.29 206.847 355.187 205.654C355.187 205.121 355.119 204.69 355.093 204.343C355.082 204.191 355.082 204.038 355.093 203.886C355.147 204.03 355.179 204.181 355.187 204.335C355.23 204.681 355.29 205.113 355.359 205.637C355.496 206.83 355.685 208.446 355.909 210.426C356.364 214.52 356.982 220.087 357.626 226.229C358.27 232.371 358.88 237.929 359.343 242.032C359.532 244.012 359.695 245.636 359.807 246.829C359.85 247.354 359.884 247.794 359.91 248.14C359.926 248.292 359.929 248.445 359.919 248.597Z" fill="#455A64"/>
<path d="M351.555 61.8934C351.048 58.5094 353.994 55.2523 357.394 54.8546C360.794 54.457 364.22 56.5466 365.783 59.6007C366.51 61.1366 366.909 62.8037 366.953 64.498C366.997 66.1923 366.687 67.8774 366.041 69.4481C365.182 71.5885 363.594 73.7543 361.284 73.9235C358.974 74.0927 357.205 72.3584 355.677 70.7594" fill="#263238"/>
<path d="M327.384 78.678C320.514 63.8476 336.829 56.3944 345.699 58.8647C354.045 61.1912 357.609 65.2858 358.983 70.7848C360.487 76.3018 360.187 82.146 358.124 87.4849C357.042 90.0736 355.101 92.6962 352.285 93.0177" fill="#263238"/>
<path d="M351.023 67.0964C351.729 67.1686 352.383 67.5003 352.852 68.0255C353.321 68.5507 353.573 69.2309 353.556 69.9305L351.95 107.679C351.89 112.137 345.287 114.659 340.436 114.557C335.55 114.456 335.387 112.087 335.284 107.848C335.172 100.767 335.172 98.1023 335.172 98.1446C335.172 98.1869 328.99 97.1294 327.71 89.1855C327.066 85.2347 327.272 78.7543 327.607 73.4583C327.916 68.6954 331.119 62.8411 335.945 63.3063L351.023 67.0964Z" fill="#FFBE9D"/>
<path d="M330.767 77.976C330.762 78.2424 330.864 78.4999 331.05 78.693C331.237 78.8861 331.493 78.9993 331.763 79.0081C331.895 79.0185 332.027 79.0026 332.153 78.9616C332.278 78.9205 332.394 78.855 332.493 78.769C332.593 78.683 332.673 78.5782 332.731 78.4609C332.788 78.3436 332.821 78.2161 332.828 78.086C332.83 77.8202 332.727 77.5639 332.542 77.3713C332.356 77.1787 332.101 77.0648 331.832 77.0539C331.7 77.0435 331.567 77.0593 331.442 77.1004C331.316 77.1415 331.2 77.207 331.101 77.293C331.002 77.379 330.921 77.4837 330.864 77.6011C330.806 77.7184 330.773 77.8459 330.767 77.976Z" fill="#263238"/>
<path d="M329.058 76.8338C329.187 76.9607 329.977 76.3939 331.084 76.3939C332.192 76.3939 333.016 76.9438 333.137 76.8084C333.257 76.6731 333.068 76.5123 332.707 76.2585C332.225 75.9306 331.653 75.7564 331.067 75.7594C330.489 75.7539 329.925 75.9352 329.462 76.2755C329.118 76.5293 328.998 76.7746 329.058 76.8338Z" fill="#263238"/>
<path d="M341.646 77.9758C341.643 78.2361 341.741 78.4877 341.92 78.6794C342.098 78.8711 342.344 78.9886 342.608 79.008C342.74 79.0183 342.872 79.0025 342.998 78.9614C343.123 78.9203 343.239 78.8549 343.338 78.7689C343.437 78.6829 343.518 78.5781 343.576 78.4608C343.633 78.3434 343.666 78.2159 343.673 78.0858C343.675 77.8201 343.572 77.5637 343.387 77.3711C343.201 77.1785 342.946 77.0647 342.676 77.0537C342.416 77.0422 342.161 77.1327 341.968 77.3055C341.775 77.4782 341.659 77.7192 341.646 77.9758Z" fill="#263238"/>
<path d="M340.032 77.0369C340.161 77.1638 340.942 76.597 342.05 76.597C343.157 76.597 343.982 77.1469 344.102 77.02C344.222 76.8931 344.033 76.7154 343.673 76.4616C343.192 76.1322 342.619 75.9578 342.033 75.9625C341.455 75.9624 340.893 76.1431 340.427 76.4786C340.032 76.7324 339.937 76.9862 340.032 77.0369Z" fill="#263238"/>
<path d="M335.962 85.1667C335.376 84.9889 334.771 84.8809 334.159 84.8453C333.875 84.8453 333.6 84.7607 333.558 84.5745C333.531 84.2801 333.597 83.9847 333.746 83.7285C334.013 83.0517 334.287 82.3411 334.605 81.5966C335.383 79.7904 336.015 77.9262 336.494 76.0215C335.564 77.7603 334.78 79.5711 334.15 81.4359L333.343 83.5847C333.165 83.9233 333.114 84.3124 333.197 84.6845C333.24 84.7829 333.304 84.8704 333.386 84.9407C333.468 85.0111 333.564 85.0623 333.669 85.0906C333.826 85.1315 333.988 85.1542 334.15 85.1583C334.751 85.2349 335.36 85.2377 335.962 85.1667Z" fill="#263238"/>
<path d="M335.198 98.1359C339.01 98.2043 342.766 97.2227 346.042 95.3018C346.042 95.3018 343.415 100.767 335.343 100.022L335.198 98.1359Z" fill="#EB996E"/>
<path d="M336.434 87.8062C336.646 87.5455 336.922 87.3421 337.236 87.2148C337.55 87.0876 337.891 87.0408 338.229 87.0787C338.475 87.099 338.715 87.1688 338.934 87.2837C339.152 87.3986 339.345 87.5563 339.499 87.747C339.647 87.9295 339.735 88.1522 339.75 88.3852C339.765 88.6181 339.708 88.8501 339.585 89.0499C339.407 89.2476 339.172 89.3881 338.912 89.4529C338.652 89.5178 338.378 89.5041 338.126 89.4136C337.597 89.2303 337.112 88.9424 336.7 88.5676C336.575 88.4802 336.468 88.3713 336.382 88.2462C336.343 88.1857 336.321 88.1152 336.321 88.0431C336.321 87.971 336.343 87.9005 336.382 87.8401" fill="#EB996E"/>
<path d="M339.242 85.9284C339.062 85.9284 339.053 87.1043 338.023 87.9503C336.992 88.7963 335.704 88.661 335.696 88.7963C335.687 88.9317 335.979 89.0248 336.554 89.0417C337.263 89.0497 337.953 88.8133 338.504 88.3733C339.027 87.9493 339.365 87.3437 339.448 86.6813C339.457 86.216 339.319 85.9199 339.242 85.9284Z" fill="#263238"/>
<path d="M339.5 75.1164C339.611 75.4125 340.727 75.2687 342.033 75.4294C343.338 75.5902 344.394 75.9286 344.566 75.6663C344.643 75.5394 344.454 75.2602 344.033 74.9641C343.467 74.6056 342.823 74.3852 342.153 74.3212C341.485 74.2391 340.808 74.3174 340.178 74.5496C339.697 74.7357 339.457 74.9726 339.5 75.1164Z" fill="#263238"/>
<path d="M329.47 73.6529C329.668 73.9067 330.432 73.6529 331.359 73.6529C332.287 73.6529 333.077 73.8221 333.24 73.5598C333.317 73.4329 333.24 73.1791 332.853 72.9507C332.401 72.6577 331.866 72.5126 331.325 72.5362C330.784 72.5472 330.26 72.7214 329.822 73.0353C329.496 73.2806 329.384 73.5344 329.47 73.6529Z" fill="#263238"/>
<path d="M339.972 60.7004C337.235 60.8379 334.577 61.6526 332.244 63.0692C330.936 63.7372 329.774 64.6525 328.825 65.763C327.876 66.8735 327.159 68.1573 326.714 69.5411C326.601 69.8289 326.549 70.1364 326.56 70.4448C326.572 70.7532 326.648 71.056 326.783 71.3346C327.038 71.6532 327.398 71.8741 327.801 71.959C328.204 72.044 328.624 71.9877 328.989 71.7999C329.718 71.41 330.337 70.8492 330.793 70.1671C330.974 70.913 331.407 71.5759 332.021 72.0474C332.635 72.5188 333.394 72.7707 334.172 72.7619C334.951 72.753 335.703 72.4839 336.306 71.9987C336.909 71.5134 337.326 70.8407 337.49 70.091C337.552 70.8531 337.909 71.5625 338.488 72.0715C339.067 72.5806 339.823 72.8499 340.599 72.8236C341.372 72.7576 342.11 72.4702 342.72 71.9967C343.33 71.5232 343.787 70.8844 344.033 70.1587C344.223 71.5343 344.705 72.8548 345.45 74.0333C345.831 74.6183 346.386 75.0734 347.039 75.3368C347.692 75.6001 348.411 75.659 349.099 75.5054C348.811 76.675 348.829 77.8976 349.151 79.0586C349.58 80.1753 351.289 99.2864 352.44 98.8973C353.59 98.5081 353.547 79.0163 353.805 77.8826C354.376 75.7081 354.665 73.4708 354.664 71.2246C354.74 68.9106 353.979 66.6451 352.516 64.8333C351.053 63.0215 348.984 61.7814 346.678 61.3349C344.376 60.8146 342.014 60.6012 339.654 60.7004" fill="#263238"/>
<path d="M356.132 95.5048C356.132 95.5048 356.055 95.5556 355.883 95.6148C355.642 95.7018 355.391 95.7615 355.136 95.7925C353.942 95.9418 352.729 95.754 351.639 95.2507C350.549 94.7475 349.627 93.9496 348.979 92.9499C348.101 91.4438 347.731 89.7019 347.923 87.9754C348.052 86.1565 348.481 84.4984 348.679 82.9756C348.873 81.6237 348.993 80.2625 349.039 78.8978C349.039 77.7304 349.039 76.7913 349.039 76.1314C349.002 75.794 349.002 75.4536 349.039 75.1162C349.141 75.449 349.202 75.7927 349.22 76.1399C349.314 77.0647 349.359 77.9937 349.357 78.9232C349.355 80.3007 349.267 81.6767 349.091 83.0432C348.902 84.5999 348.498 86.2665 348.37 88.0177C348.186 89.6569 348.522 91.3118 349.331 92.7553C350.037 93.9046 351.122 94.7797 352.405 95.2341C353.267 95.558 354.189 95.6965 355.11 95.6402C355.771 95.5979 356.123 95.4625 356.132 95.5048Z" fill="#263238"/>
<path d="M337.13 59.6768C337.442 60.256 337.587 60.9084 337.55 61.5633C337.58 63.1664 336.965 64.716 335.838 65.8733C334.712 67.0305 333.167 67.7014 331.54 67.7391C330.879 67.8015 330.214 67.6845 329.616 67.4007C329.616 67.3246 330.355 67.5276 331.522 67.4007C333.049 67.2986 334.482 66.6411 335.543 65.5561C336.605 64.471 337.219 63.0359 337.267 61.5295C337.293 60.4043 337.052 59.6937 337.13 59.6768Z" fill="#455A64"/>
<path d="M338.314 69.0335C338.357 69.0335 338.254 69.5749 337.636 70.1671C337.226 70.5308 336.745 70.8089 336.222 70.9848C335.7 71.1607 335.147 71.2308 334.596 71.1908C333.517 71.0959 332.477 70.7446 331.565 70.1671C330.87 69.7357 330.492 69.4057 330.526 69.3211C330.942 69.4501 331.34 69.6291 331.711 69.8541C332.617 70.318 333.606 70.6053 334.622 70.7001C335.631 70.7587 336.627 70.4585 337.43 69.8541C338.057 69.4649 338.263 68.9996 338.314 69.0335Z" fill="#455A64"/>
<path d="M357.763 66.6055C357.821 67.3338 357.769 68.0664 357.609 68.7797C357.366 70.5467 356.688 72.2284 355.634 73.678C355.084 74.3969 354.39 74.9973 353.596 75.4425C352.801 75.8877 351.923 76.1682 351.014 76.2668C350.462 76.3158 349.906 76.2612 349.374 76.106C349.005 75.9961 348.825 75.8861 348.833 75.8607C349.541 75.9855 350.263 76.0168 350.98 75.9538C352.688 75.6806 354.225 74.7722 355.273 73.4158C356.279 72.0141 356.967 70.4157 357.291 68.7289C357.404 68.0122 357.562 67.303 357.763 66.6055Z" fill="#455A64"/>
<path d="M359.24 70.4551C359.319 70.6726 359.362 70.901 359.369 71.1319C359.427 71.7477 359.441 72.3668 359.412 72.9846C359.367 75.0664 358.61 77.0723 357.265 78.6782C356.506 79.5611 355.518 80.2248 354.406 80.5986C353.494 80.8925 352.522 80.9507 351.581 80.7678C350.949 80.6489 350.349 80.4011 349.821 80.0403C349.46 79.778 349.305 79.5834 349.323 79.5665C350.027 80.0081 350.811 80.3125 351.632 80.4633C352.518 80.5887 353.422 80.5046 354.268 80.2179C355.3 79.8429 356.216 79.2138 356.93 78.3906C358.206 76.8441 358.964 74.9471 359.103 72.9592C359.24 71.428 359.163 70.4635 359.24 70.4551Z" fill="#455A64"/>
<path d="M246.059 172.711L230.475 207.828H251.933L267.217 172.432L246.059 172.711Z" fill="#455A64"/>
<path d="M234.725 135.36L252.302 169.42H307.737L305.496 164.97L289.439 164.496L276.344 135.783C275.947 134.908 275.3 134.166 274.484 133.645C273.667 133.124 272.715 132.847 271.742 132.847H236.288C235.984 132.837 235.682 132.906 235.414 133.047C235.146 133.189 234.921 133.399 234.762 133.654C234.603 133.91 234.516 134.202 234.509 134.502C234.503 134.802 234.577 135.098 234.725 135.36Z" fill="#E0E0E0"/>
<path d="M262.486 150.63C262.486 151.043 262.361 151.447 262.128 151.791C261.895 152.135 261.564 152.403 261.176 152.561C260.789 152.719 260.362 152.76 259.951 152.68C259.54 152.599 259.162 152.4 258.865 152.108C258.568 151.815 258.366 151.443 258.285 151.038C258.203 150.632 258.245 150.212 258.405 149.83C258.566 149.449 258.838 149.122 259.187 148.893C259.535 148.663 259.945 148.541 260.365 148.541C260.927 148.543 261.465 148.764 261.862 149.155C262.259 149.546 262.483 150.077 262.486 150.63Z" fill="#263238"/>
<path d="M313.645 169.488H245.879V172.745H313.645V169.488Z" fill="#455A64"/>
<path d="M292.771 171.121L313.387 207.862H323.245L325.392 203.658L327.366 199.233L313.645 172.745L292.771 171.121Z" fill="#455A64"/>
<path d="M329 110C329 110 317.479 114.055 315 126.938L327.165 133L329 110Z" fill="#A8A8D0"/>
<path d="M330.029 108.789C330.029 108.789 321.692 127.63 322.009 137.921C322.12 141.498 324.446 150.849 324.446 150.849L328.781 174C328.781 174 361.964 169.475 362.699 169.475C363.435 169.475 361.588 150.47 361.588 150.47L367 113.951C367 113.951 364.52 108.978 353.32 107.255C346.608 106.194 330.029 108.789 330.029 108.789Z" fill="#A8A8D0"/>
<path d="M325.434 118.863C325.512 118.905 324.636 120.284 323.58 122.67C322.967 124.067 322.451 125.502 322.034 126.967C321.533 128.763 321.168 130.592 320.944 132.441C320.746 134.293 320.686 136.156 320.763 138.016C320.841 139.535 321.022 141.047 321.304 142.542C321.785 145.08 322.335 146.637 322.249 146.662C322.069 146.326 321.925 145.971 321.819 145.605C321.666 145.186 321.534 144.759 321.424 144.327C321.287 143.82 321.107 143.253 320.987 142.635C320.664 141.129 320.452 139.603 320.351 138.067C320.248 136.182 320.297 134.293 320.497 132.416C320.726 130.541 321.107 128.688 321.639 126.874C322.08 125.4 322.634 123.96 323.296 122.568C323.538 122.028 323.807 121.5 324.104 120.986C324.309 120.588 324.535 120.202 324.782 119.827C324.966 119.485 325.184 119.162 325.434 118.863Z" fill="#263238"/>
<path d="M332.647 107.958L333.128 102.882C333.181 102.355 333.429 101.865 333.825 101.506C334.221 101.147 334.737 100.944 335.275 100.936L351.718 100.691C352.217 100.685 352.7 100.866 353.068 101.198C353.436 101.529 353.663 101.986 353.702 102.476L354.123 107.95C352.746 110.824 350.417 113.152 347.52 114.549C342.685 116.858 335.172 116.934 335.172 116.934L332.647 107.958Z" fill="#A8A8D0"/>
<path d="M336.949 100.979C337.001 100.979 336.76 101.308 336.657 101.825C336.564 102.572 336.564 103.328 336.657 104.075C336.801 105.164 336.801 106.268 336.657 107.357C336.362 106.296 336.212 105.201 336.211 104.1C336.096 103.317 336.131 102.519 336.314 101.748C336.597 101.165 336.923 100.936 336.949 100.979Z" fill="#263238"/>
<path d="M340.891 107.256C340.603 106.22 340.465 105.149 340.478 104.075C340.414 103.315 340.414 102.551 340.478 101.791C340.564 101.182 340.813 100.869 340.865 100.945C340.916 101.021 340.787 101.3 340.796 101.859C340.805 102.417 340.891 103.212 340.891 104.058C341.035 105.119 341.035 106.195 340.891 107.256Z" fill="#263238"/>
<path d="M345.828 107.121C345.473 106.134 345.256 105.103 345.184 104.058C344.972 103.023 344.905 101.964 344.986 100.911C345.345 101.906 345.562 102.945 345.63 103.999C345.839 105.026 345.906 106.076 345.828 107.121Z" fill="#263238"/>
<path d="M350.087 107.442C349.695 106.355 349.486 105.211 349.469 104.058C349.304 102.908 349.333 101.739 349.554 100.598C349.779 101.712 349.9 102.845 349.915 103.982C350.082 105.127 350.139 106.286 350.087 107.442Z" fill="#263238"/>
<g opacity="0.3">
<path opacity="0.3" d="M353.35 126.824C352.689 132.517 353.126 142.331 355.17 147.703L364.77 132.077L353.35 126.824Z" fill="black"/>
</g>
<path d="M364.34 114L364.392 114.049C367.126 116.75 369.127 120.033 370.223 123.618L372 131.24L353.022 134C351.977 130.767 351.729 127.353 352.297 124.016C353.229 118.269 364.34 114 364.34 114Z" fill="#A8A8D0"/>
<path d="M372.455 129.988C372.333 130.031 372.206 130.062 372.077 130.081L370.996 130.276L366.951 130.927L353.264 132.974H353.024V132.729C352.981 131.604 352.946 130.436 352.921 129.235C352.878 126.113 352.921 123.127 353.109 120.411C353.24 117.978 353.997 115.617 355.308 113.55C356.189 112.16 357.396 111 358.828 110.166C359.214 109.94 359.623 109.753 360.047 109.608C360.189 109.544 360.34 109.501 360.494 109.481C360.494 109.481 359.893 109.709 358.914 110.327C357.551 111.187 356.408 112.345 355.574 113.711C354.33 115.765 353.622 118.09 353.513 120.479C353.316 123.169 353.324 126.147 353.376 129.269C353.376 130.453 353.436 131.629 353.462 132.746L353.212 132.534L366.951 130.631L371.013 130.115L372.112 129.988C372.226 129.973 372.341 129.973 372.455 129.988Z" fill="#263238"/>
<path d="M332.553 118.321C331.591 117.77 330.708 117.096 329.925 116.316C329.043 115.646 328.258 114.86 327.59 113.981C329.433 115.203 331.103 116.663 332.553 118.321Z" fill="#FAFAFA"/>
<path d="M330.003 128.11C329.329 128.791 328.549 129.363 327.693 129.802C326.907 130.363 326.038 130.803 325.117 131.105C326.574 129.871 328.217 128.866 329.986 128.127L330.003 128.11Z" fill="#FAFAFA"/>
<path d="M340.539 130.521C340.386 129.319 340.386 128.102 340.539 126.9C340.545 125.691 340.695 124.487 340.985 123.313C341.135 124.513 341.135 125.726 340.985 126.925C340.982 128.137 340.832 129.344 340.539 130.521Z" fill="#FAFAFA"/>
<path d="M350.782 140.309C349.928 139.519 349.13 138.671 348.395 137.771C347.551 136.978 346.762 136.13 346.034 135.233C347.064 135.822 347.976 136.594 348.722 137.509C349.571 138.315 350.269 139.263 350.782 140.309Z" fill="#FAFAFA"/>
<path d="M352.225 119.844C351.488 120.599 350.647 121.249 349.726 121.773C348.883 122.413 347.956 122.936 346.97 123.33C347.709 122.573 348.553 121.924 349.477 121.401C350.319 120.765 351.243 120.241 352.225 119.844Z" fill="#FAFAFA"/>
<path d="M342.969 112.442C342.154 113.223 341.235 113.892 340.238 114.43C339.324 115.097 338.325 115.643 337.267 116.054C338.083 115.272 339.001 114.601 339.998 114.058C340.916 113.399 341.914 112.856 342.969 112.442Z" fill="#FAFAFA"/>
<path d="M351.315 115.386C350.752 114.567 350.313 113.672 350.01 112.729C349.587 111.833 349.298 110.881 349.151 109.904C349.72 110.722 350.16 111.62 350.456 112.569C350.884 113.46 351.173 114.41 351.315 115.386Z" fill="#FAFAFA"/>
<path d="M362.795 119.1C361.422 118.162 360.23 116.99 359.275 115.64C360.002 116.049 360.65 116.582 361.19 117.213C361.836 117.741 362.38 118.38 362.795 119.1Z" fill="#FAFAFA"/>
<path d="M358.064 127.348C357.791 126.513 357.666 125.637 357.695 124.759C357.567 123.893 357.593 123.011 357.772 122.154C358.166 123.857 358.265 125.613 358.064 127.348Z" fill="#FAFAFA"/>
<path d="M367.604 125.639C366.605 125.796 365.584 125.762 364.598 125.538C363.592 125.457 362.611 125.19 361.705 124.751C362.702 124.761 363.696 124.88 364.667 125.106C365.662 125.18 366.647 125.359 367.604 125.639Z" fill="#FAFAFA"/>
<path d="M329.135 142.686C328.435 141.731 327.858 140.694 327.418 139.598C326.843 138.564 326.399 137.465 326.096 136.324C326.796 137.279 327.373 138.317 327.813 139.412C328.39 140.445 328.834 141.545 329.135 142.686Z" fill="#FAFAFA"/>
<path d="M341.749 156.036C340.942 155.314 340.24 154.485 339.663 153.574C338.973 152.743 338.396 151.828 337.945 150.85C338.754 151.573 339.459 152.401 340.04 153.312C340.733 154.139 341.308 155.056 341.749 156.036Z" fill="#FAFAFA"/>
<path d="M352.174 150.436C351.29 151.003 350.33 151.447 349.323 151.755C348.368 152.199 347.353 152.504 346.309 152.661C348.146 151.646 350.121 150.897 352.174 150.436Z" fill="#FAFAFA"/>
<path d="M326.491 161.248C326.903 159.651 327.598 158.139 328.543 156.781C328.398 157.6 328.107 158.387 327.684 159.107C327.417 159.884 327.013 160.609 326.491 161.248Z" fill="#FAFAFA"/>
<path d="M318.411 123.017C317.914 122.397 317.616 121.646 317.552 120.859C317.35 120.097 317.386 119.292 317.655 118.55C317.832 119.284 317.947 120.031 317.999 120.783C318.197 121.516 318.335 122.262 318.411 123.017Z" fill="#FAFAFA"/>
<path d="M332.759 152.686C331.842 152.448 330.972 152.062 330.183 151.544C329.328 151.161 328.539 150.647 327.847 150.021C328.763 150.263 329.633 150.648 330.423 151.163C331.275 151.552 332.063 152.065 332.759 152.686Z" fill="#FAFAFA"/>
<path d="M341.045 138.592C339.637 140.253 338.001 141.714 336.185 142.932C336.837 142.056 337.605 141.271 338.469 140.597C339.231 139.816 340.098 139.141 341.045 138.592Z" fill="#FAFAFA"/>
<g opacity="0.3">
<path opacity="0.3" d="M335.97 138.33C336.387 141.279 337.722 144.028 339.792 146.197C341.938 148.262 345.261 149.302 348.052 148.228C348.357 148.145 348.637 147.991 348.869 147.779C349.1 147.567 349.277 147.303 349.383 147.01C349.43 146.649 349.349 146.283 349.153 145.975C348.958 145.666 348.659 145.434 348.31 145.318C347.614 145.097 346.885 144.994 346.154 145.013C344.072 144.878 342.059 144.222 340.307 143.105C338.555 141.989 337.121 140.45 336.142 138.634" fill="black"/>
</g>
<path d="M347.133 145.148C347.133 145.148 346.936 145.216 346.558 145.25C346.027 145.302 345.492 145.302 344.961 145.25C344.172 145.158 343.397 144.977 342.651 144.708C340.81 144.056 339.175 142.938 337.911 141.468C337.398 140.872 336.957 140.219 336.597 139.522C336.344 139.058 336.145 138.567 336.005 138.059C335.936 137.877 335.898 137.685 335.893 137.492C335.979 137.492 336.211 138.253 336.872 139.37C337.259 140.021 337.71 140.633 338.22 141.197C338.851 141.883 339.557 142.498 340.324 143.033C341.099 143.55 341.928 143.984 342.797 144.327C343.51 144.604 344.249 144.808 345.004 144.937C346.3 145.123 347.133 145.063 347.133 145.148Z" fill="#263238"/>
<path d="M299.863 158.786L312.297 157.356L321.064 163.016L354.552 155.097L355.342 132.492L370.223 130.563V157.931C370.139 161.254 368.722 164.408 366.282 166.703C363.842 168.998 360.578 170.245 357.205 170.173L308.124 168.828L306.037 164.716L295.501 164.403L299.863 158.786Z" fill="#FFBE9D"/>
<path d="M354.157 155.055C353.951 155.136 353.738 155.201 353.522 155.249L351.701 155.715L344.978 157.356L322.756 162.66L320.686 163.151H320.6H320.532L311.773 157.474H311.893L299.451 158.896L299.537 158.845L296.24 162.965L295.381 164.048C295.286 164.177 295.176 164.297 295.055 164.403C295.135 164.265 295.224 164.132 295.321 164.005L296.18 162.889L299.374 158.709H299.426L311.85 157.178H311.919H311.971L320.746 162.829H320.592L322.661 162.339L344.909 157.144L351.667 155.613L353.504 155.215C353.717 155.145 353.936 155.091 354.157 155.055Z" fill="#EB996E"/>
<path d="M306.656 162.297C305.051 162.482 303.435 162.544 301.821 162.483H300.963L301.083 162.44C300.112 163.32 299.063 164.113 297.949 164.809C298.834 163.847 299.799 162.958 300.834 162.153L300.885 162.102H301.838C303.447 162.037 305.058 162.102 306.656 162.297Z" fill="#EB996E"/>
<path d="M360.331 158.752C359.691 157.757 358.859 156.894 357.884 156.214C356.848 155.637 355.707 155.269 354.526 155.131C354.874 155.012 355.246 154.983 355.608 155.046C356.485 155.137 357.329 155.427 358.073 155.892C358.818 156.357 359.444 156.986 359.901 157.728C360.133 158.026 360.281 158.379 360.331 158.752Z" fill="#EB996E"/>
<path d="M145.587 339.475H89.5161V347.063H145.587V339.475Z" fill="#263238"/>
<path d="M145.681 347.165H89.4216V339.381H145.681V347.165ZM89.6105 346.97H145.493V339.567H89.6105V346.97Z" fill="#263238"/>
<path d="M94.7195 344.542L102.782 383.771H132.647L140.452 347.072L94.7195 344.542Z" fill="#263238"/>
<path d="M94.7195 380.057L99.0214 385.895H135.317L140.452 380.057H94.7195Z" fill="#455A64"/>
<path d="M115.448 345.684C115.336 345.684 115.199 327.512 115.13 305.076C115.061 282.64 115.13 264.468 115.216 264.468C115.302 264.468 115.465 282.64 115.534 305.076C115.602 327.512 115.559 345.684 115.448 345.684Z" fill="#263238"/>
<path d="M127.941 300.203C127.904 300.349 127.852 300.49 127.787 300.626C127.658 300.939 127.486 301.328 127.289 301.802C127.177 302.064 127.057 302.343 126.92 302.648C126.782 302.953 126.679 303.316 126.55 303.68L126.112 304.865C125.966 305.288 125.846 305.711 125.7 306.218C125.034 308.44 124.509 310.7 124.129 312.986C123.698 315.79 123.411 318.614 123.27 321.446C123.067 326.6 123.217 331.761 123.717 336.894C123.897 338.874 124.077 340.464 124.215 341.564C124.266 342.08 124.318 342.503 124.352 342.833C124.364 342.982 124.364 343.132 124.352 343.281C124.298 343.14 124.263 342.992 124.249 342.842C124.189 342.512 124.12 342.097 124.034 341.589C123.854 340.49 123.622 338.899 123.408 336.928C122.824 331.783 122.637 326.602 122.849 321.429C122.977 318.582 123.263 315.743 123.708 312.927C124.105 310.636 124.662 308.375 125.374 306.159C125.529 305.685 125.657 305.228 125.812 304.814L126.276 303.629L126.688 302.606C126.825 302.293 126.962 302.022 127.083 301.76L127.658 300.609C127.73 300.46 127.826 300.323 127.941 300.203Z" fill="#263238"/>
<path d="M126.507 285.508C126.46 285.712 126.4 285.913 126.327 286.109C126.181 286.523 125.983 287.09 125.743 287.801L125.314 289.019C125.176 289.476 125.022 289.967 124.859 290.491C124.532 291.54 124.154 292.733 123.82 294.078L123.253 296.185C123.081 296.921 122.909 297.691 122.729 298.477C122.334 300.059 122.051 301.777 121.69 303.553C121.072 307.157 120.531 311.167 120.153 315.355C119.775 319.543 119.646 323.595 119.595 327.258C119.543 330.922 119.595 334.221 119.784 336.987C119.827 338.375 119.921 339.618 119.99 340.718C120.059 341.818 120.127 342.766 120.196 343.535C120.265 344.305 120.299 344.872 120.333 345.32C120.345 345.526 120.345 345.732 120.333 345.938C120.278 345.739 120.244 345.535 120.23 345.329C120.179 344.881 120.11 344.297 120.016 343.552C119.921 342.808 119.827 341.86 119.741 340.735C119.655 339.61 119.543 338.392 119.475 337.004C119.286 334.229 119.209 330.93 119.2 327.258C119.191 323.587 119.372 319.551 119.732 315.33C120.093 311.108 120.668 307.107 121.304 303.486C121.673 301.684 121.973 299.966 122.377 298.41C122.566 297.615 122.755 296.845 122.927 296.109L123.519 294.011C123.871 292.665 124.275 291.473 124.627 290.424C124.798 289.899 124.962 289.417 125.108 288.96C125.254 288.503 125.425 288.114 125.571 287.75L126.224 286.058C126.297 285.865 126.392 285.681 126.507 285.508Z" fill="#263238"/>
<path d="M111.901 348.899C111.892 348.829 111.892 348.758 111.901 348.687C111.901 348.527 111.901 348.324 111.85 348.061C111.807 347.486 111.755 346.682 111.687 345.659C111.549 343.535 111.36 340.524 111.12 336.801C110.639 329.331 109.935 319.035 108.656 307.656C108.003 301.971 107.247 296.582 106.457 291.692C106.045 289.256 105.668 286.938 105.23 284.772C104.792 282.606 104.371 280.601 104.027 278.766C103.684 276.93 103.246 275.289 102.911 273.842C102.576 272.395 102.276 271.143 102.053 270.128C101.829 269.113 101.615 268.351 101.469 267.784C101.417 267.539 101.366 267.336 101.331 267.175C101.318 267.105 101.318 267.034 101.331 266.964C101.367 267.028 101.393 267.096 101.409 267.167L101.58 267.768C101.743 268.326 101.958 269.104 102.241 270.094C102.525 271.084 102.86 272.336 103.212 273.791C103.564 275.246 103.993 276.879 104.38 278.715C104.766 280.551 105.238 282.547 105.633 284.713C106.028 286.879 106.492 289.197 106.904 291.642C107.711 296.532 108.475 301.929 109.128 307.606C110.407 318.976 111.069 329.306 111.481 336.784C111.687 340.532 111.833 343.552 111.919 345.65C111.919 346.674 111.987 347.478 112.004 348.061C112.004 348.315 112.004 348.527 112.004 348.687C111.981 348.763 111.946 348.834 111.901 348.899Z" fill="#263238"/>
<path d="M114.993 273.258C114.744 270.72 112.108 268.741 109.48 268.715C108.166 268.772 106.882 269.123 105.726 269.742C104.57 270.361 103.572 271.23 102.808 272.285C101.297 274.409 100.204 276.794 99.5882 279.316C97.8194 285.382 96.8577 291.752 97.6133 298.021C98.3689 304.29 100.945 310.457 105.513 314.882C106.251 315.609 107.23 316.328 108.235 316.108C108.779 315.952 109.272 315.661 109.669 315.262C114.14 311.229 117.684 306.3 120.062 300.806C122.441 295.313 123.599 289.381 123.459 283.41C123.39 281.033 123.073 278.546 121.742 276.566C120.411 274.587 117.277 272.472 115.001 273.267" fill="#5CA272"/>
<path d="M95.3893 252.616L91.697 259.214C91.6112 259.367 91.4995 259.544 91.3192 259.553C91.1389 259.561 90.9757 259.392 90.8727 259.231L81.1011 244.494L83.3508 243.233L95.3893 252.616Z" fill="#5CA272"/>
<g opacity="0.2">
<path opacity="0.2" d="M95.3893 252.616L91.697 259.214C91.6112 259.367 91.4995 259.544 91.3192 259.553C91.1389 259.561 90.9757 259.392 90.8727 259.231L81.1011 244.494L83.3508 243.233L95.3893 252.616Z" fill="black"/>
</g>
<path d="M115.216 264.502L81.8825 245.12C81.6927 245.048 81.5192 244.94 81.3719 244.803C81.2245 244.665 81.1063 244.499 81.0238 244.316C80.895 243.834 81.2642 243.36 81.6163 242.997C83.9099 240.655 86.6883 238.827 89.7627 237.637C92.8372 236.448 96.1355 235.924 99.4336 236.102C102.73 236.335 105.92 237.356 108.726 239.077C111.533 240.797 113.872 243.164 115.542 245.975C118.754 251.634 118.865 259.13 115.173 264.502" fill="#5CA272"/>
<path d="M86.7253 238.936C86.8678 238.897 87.0155 238.88 87.1633 238.885C87.4466 238.885 87.876 238.818 88.4255 238.826C89.9732 238.805 91.5195 238.924 93.0451 239.181C95.3181 239.565 97.5334 240.227 99.6397 241.152C103.275 242.764 106.503 245.148 109.094 248.133C111.684 251.118 113.573 254.631 114.623 258.419C115.054 259.889 115.341 261.396 115.482 262.92C115.551 263.453 115.534 263.876 115.551 264.164C115.566 264.307 115.566 264.452 115.551 264.595C115.551 264.595 115.474 264.003 115.336 262.903C115.146 261.4 114.833 259.915 114.4 258.462C113.002 253.639 110.261 249.3 106.486 245.935C102.711 242.57 98.0547 240.316 93.0451 239.427C91.5354 239.144 90.0047 238.983 88.4684 238.944C87.2921 238.953 86.7253 238.97 86.7253 238.936Z" fill="#263238"/>
<path d="M110.699 251.127C110.162 251.449 109.585 251.703 108.982 251.88C107.917 252.294 106.406 252.819 104.775 253.343C103.143 253.868 101.598 254.274 100.481 254.545C99.8889 254.723 99.2785 254.837 98.6609 254.883C99.2101 254.622 99.7857 254.417 100.378 254.274L104.62 252.963L108.853 251.618C109.451 251.394 110.069 251.23 110.699 251.127Z" fill="#263238"/>
<path d="M105.453 237.235C105.751 238.433 105.884 239.666 105.848 240.899C105.946 242.129 105.876 243.366 105.642 244.579C105.481 243.362 105.418 242.134 105.453 240.907C105.355 239.685 105.355 238.457 105.453 237.235Z" fill="#263238"/>
<path d="M81.5732 244.756C82.3531 244.404 83.1635 244.12 83.9947 243.91C85.5059 243.445 87.6183 242.861 90.0053 242.303C92.3924 241.745 94.5048 241.322 96.016 241.051C96.863 240.864 97.725 240.751 98.592 240.712C97.7769 240.971 96.9449 241.174 96.1019 241.322C94.5563 241.66 92.4268 242.168 90.0912 242.692C87.7556 243.217 85.6347 243.783 84.0805 244.173C83.2588 244.422 82.4212 244.617 81.5732 244.756Z" fill="#263238"/>
<path d="M99.8458 267.15C96.9778 265.01 93.9467 264.612 90.3489 264.722C86.7505 264.948 83.2267 265.835 79.959 267.336C74.3348 269.756 69.054 273.334 65.6966 278.393C62.3392 283.453 61.1628 290.153 63.6787 295.669C63.8767 296.246 64.2832 296.73 64.8207 297.031C65.4452 297.202 66.1111 297.151 66.7012 296.887C73.0983 294.831 79.5297 292.759 85.4116 289.544C91.2934 286.329 96.6429 281.854 99.7942 276.008C100.601 274.643 101.121 273.133 101.323 271.566C101.409 270.774 101.322 269.972 101.069 269.215C100.816 268.458 100.402 267.763 99.8544 267.176" fill="#5CA272"/>
<path d="M99.8973 266.49C99.7541 266.571 99.6012 266.633 99.4422 266.676L98.1027 267.133L97.1324 267.446C96.7803 267.573 96.4025 267.725 95.9989 267.886C95.1918 268.208 94.2816 268.529 93.2598 269.003L91.697 269.705C91.1475 269.95 90.6065 270.255 90.0312 270.551C88.872 271.109 87.7042 271.829 86.4506 272.556C81.096 275.827 76.3311 279.952 72.3513 284.764C71.4926 285.889 70.591 286.947 69.8783 288.012C69.5091 288.537 69.1398 289.028 68.8135 289.527L67.9549 290.965C67.3538 291.87 66.9073 292.75 66.478 293.503C66.2719 293.875 66.0658 294.222 65.8941 294.552C65.7223 294.882 65.585 295.178 65.4562 295.457L64.8207 296.709C64.7609 296.861 64.68 297.003 64.5803 297.132C64.6221 296.975 64.6797 296.822 64.7521 296.676L65.3102 295.39C65.439 295.11 65.5764 294.806 65.7224 294.467C65.8683 294.129 66.083 293.782 66.2805 293.402C66.6926 292.632 67.1391 291.71 67.7059 290.821C67.9978 290.356 68.2898 289.865 68.5645 289.358C68.8393 288.85 69.2515 288.359 69.6121 287.826C70.3162 286.743 71.1835 285.678 72.0679 284.535C74.0691 282.112 76.2628 279.849 78.6281 277.767C81.0198 275.72 83.5755 273.867 86.2702 272.226C87.5325 271.499 88.7174 270.788 89.8852 270.238C90.4691 269.95 91.0187 269.654 91.6026 269.392L93.1911 268.715C94.1957 268.25 95.1403 267.945 95.9646 267.641C96.3767 267.497 96.7546 267.353 97.1152 267.235L98.0941 266.947L99.4594 266.566C99.6032 266.53 99.7496 266.505 99.8973 266.49Z" fill="#263238"/>
<path d="M77.5032 278.436C75.2203 279.292 72.8929 280.029 70.5308 280.644C68.2043 281.389 65.8362 282.002 63.4382 282.479C65.7211 281.623 68.0485 280.886 70.4106 280.271C72.7386 279.531 75.1064 278.918 77.5032 278.436Z" fill="#263238"/>
<path d="M77.2113 293.562C77.0942 292.855 77.0425 292.138 77.0568 291.422C77.0568 290.102 77.0568 288.266 77.0568 286.253C77.0568 284.239 77.2285 282.403 77.3401 281.084C77.3576 280.366 77.4497 279.651 77.6149 278.952C77.6727 279.667 77.6727 280.385 77.6149 281.1C77.5634 282.547 77.5119 284.307 77.4518 286.261C77.3917 288.215 77.3573 289.975 77.3144 291.422C77.3465 292.137 77.312 292.853 77.2113 293.562Z" fill="#263238"/>
<path d="M90.4004 286.98C90.2888 286.98 89.9368 283.266 89.619 278.672C89.3013 274.079 89.121 270.348 89.2326 270.348C89.3443 270.348 89.6877 274.053 90.014 278.647C90.3403 283.241 90.5121 286.972 90.4004 286.98Z" fill="#263238"/>
<path d="M73.9912 269.984C74.7315 269.892 75.4791 269.869 76.2237 269.916C77.5976 269.916 79.5039 269.967 81.6076 270.035C83.7113 270.103 85.609 270.187 86.9828 270.263C87.7288 270.273 88.4727 270.344 89.2068 270.475C88.4665 270.567 87.7189 270.59 86.9743 270.543C85.6004 270.543 83.6941 270.5 81.5904 270.424C79.4867 270.348 77.589 270.272 76.2066 270.196C75.4634 270.187 74.7222 270.117 73.9912 269.984Z" fill="#263238"/>
<path d="M106.947 316.641C106.909 316.492 106.891 316.338 106.895 316.184C106.895 315.854 106.895 315.423 106.835 314.898C106.784 313.773 106.775 312.157 106.835 310.144C106.895 308.13 107.007 305.753 107.248 303.113C107.488 300.474 107.883 297.572 108.424 294.552C108.965 291.532 109.635 288.698 110.313 286.092C110.991 283.486 111.73 281.244 112.4 279.324C113.069 277.403 113.636 275.94 114.117 274.874C114.323 274.383 114.486 274.028 114.623 273.681C114.676 273.54 114.742 273.404 114.821 273.275C114.802 273.425 114.759 273.57 114.692 273.706L114.203 274.95C113.808 275.999 113.267 277.488 112.64 279.434C112.013 281.38 111.326 283.664 110.648 286.202C109.97 288.74 109.334 291.599 108.785 294.611C108.235 297.623 107.866 300.533 107.591 303.13C107.316 305.727 107.162 308.139 107.093 310.135C107.024 312.132 106.981 313.756 106.981 314.881C106.981 315.406 106.981 315.829 106.981 316.167C106.981 316.326 106.97 316.484 106.947 316.641Z" fill="#263238"/>
<path d="M108.699 294.23C108.309 294.756 107.862 295.238 107.368 295.669C106.509 296.515 105.281 297.648 103.89 298.858C102.499 300.068 101.185 301.108 100.215 301.844C99.7186 302.27 99.1774 302.641 98.6006 302.953C99.0376 302.466 99.5206 302.021 100.043 301.625L103.624 298.562L107.179 295.466C107.644 295.007 108.153 294.594 108.699 294.23Z" fill="#263238"/>
<path d="M119.252 302.598C118.729 301.992 118.256 301.347 117.835 300.669L114.546 295.931L111.18 291.244C110.681 290.619 110.23 289.957 109.832 289.265C110.413 289.817 110.939 290.424 111.403 291.075C112.331 292.234 113.567 293.858 114.838 295.711C116.109 297.564 117.259 299.264 118.041 300.516C118.51 301.171 118.915 301.868 119.252 302.598Z" fill="#263238"/>
<path d="M113.722 276.261C113.782 276.354 110.287 278.681 105.899 281.456C101.511 284.231 97.9137 286.413 97.8535 286.32C97.7934 286.227 101.288 283.901 105.685 281.126C110.081 278.351 113.67 276.177 113.722 276.261Z" fill="#263238"/>
<path d="M123.648 286.794C121.798 285.276 120.029 283.664 118.35 281.964C116.582 280.364 114.905 278.67 113.327 276.888C115.184 278.401 116.955 280.014 118.633 281.718C120.403 283.314 122.077 285.009 123.648 286.794Z" fill="#263238"/>
<path d="M126.095 286.566L129.101 286.32C131.238 286.148 133.312 285.521 135.18 284.484C136.094 283.959 137.041 283.49 138.014 283.08C141.732 281.616 145.887 281.879 149.889 281.676C156.445 281.35 162.868 279.734 168.78 276.921C169.135 276.767 169.434 276.51 169.638 276.185C170.256 275.077 169.106 274.087 168.118 273.486C163.044 270.407 157.883 267.294 152.139 265.762C146.394 264.231 139.86 264.493 134.965 267.818C129.212 271.727 127.108 279.747 126.138 286.566" fill="#5CA272"/>
<path d="M169.664 275.796C169.491 275.726 169.322 275.647 169.157 275.559L167.732 274.823C166.495 274.18 164.718 273.233 162.46 272.175C159.844 270.902 157.117 269.866 154.311 269.079C150.88 268.107 147.286 267.819 143.741 268.233C140.19 268.622 136.837 270.041 134.106 272.311C131.974 274.263 130.267 276.624 129.092 279.248C128.036 281.473 127.375 283.368 126.911 284.654L126.37 286.151C126.317 286.329 126.248 286.501 126.164 286.667C126.189 286.483 126.232 286.302 126.293 286.126C126.413 285.745 126.567 285.237 126.756 284.611C127.329 282.763 128.012 280.95 128.8 279.18C129.957 276.495 131.671 274.077 133.832 272.082C136.601 269.732 140.024 268.258 143.655 267.852C147.248 267.424 150.893 267.712 154.371 268.698C157.193 269.514 159.932 270.585 162.554 271.896C164.795 272.996 166.556 273.977 167.775 274.662L169.166 275.466C169.345 275.555 169.513 275.666 169.664 275.796Z" fill="#263238"/>
<path d="M162.442 279.645C162.382 279.73 158.441 277.226 153.65 274.045C148.858 270.864 145.02 268.207 145.063 268.123C145.106 268.038 149.056 270.542 153.847 273.723C158.639 276.904 162.503 279.552 162.442 279.645Z" fill="#263238"/>
<path d="M158.664 267.742C156.659 268.363 154.543 268.556 152.456 268.309C153.477 268.1 154.514 267.981 155.556 267.953C156.584 267.795 157.624 267.724 158.664 267.742Z" fill="#263238"/>
<path d="M141.019 264.629C140.268 266.38 139.283 268.024 138.091 269.519C138.398 268.618 138.832 267.764 139.379 266.981C139.809 266.124 140.362 265.332 141.019 264.629Z" fill="#263238"/>
<path d="M144.539 281.929C143.875 281.657 143.242 281.317 142.65 280.914C141.508 280.237 139.971 279.222 138.357 278.063C136.743 276.904 135.274 275.779 134.227 274.967C133.64 274.558 133.094 274.097 132.595 273.588C133.233 273.915 133.837 274.303 134.398 274.747L138.597 277.75C140.229 278.918 141.731 279.941 142.831 280.686C143.436 281.051 144.008 281.467 144.539 281.929Z" fill="#263238"/>
<path d="M130.517 299.163C127.649 298.41 124.223 301.159 123.648 304.027C123.073 306.895 124.155 309.822 125.425 312.487C128.16 318.404 132.217 323.636 137.292 327.791C142.412 331.927 148.799 334.238 155.419 334.348C154.208 328.798 155.736 322.994 155.067 317.352C154.468 312.381 152.177 307.758 148.566 304.238C144.955 300.717 140.239 298.507 135.189 297.97C133.36 297.775 131.239 297.496 130.509 299.163" fill="#5CA272"/>
<path d="M155.419 334.348C155.275 334.301 155.136 334.238 155.006 334.162C154.63 333.953 154.271 333.715 153.933 333.451C152.73 332.42 151.764 331.148 151.099 329.72C150.644 328.874 150.129 327.893 149.631 326.835C149.133 325.778 148.635 324.661 148.086 323.451C147.535 322.213 146.901 321.011 146.188 319.856C145.423 318.624 144.562 317.453 143.612 316.353C141.654 314.086 139.542 312.123 137.713 310.237C136.059 308.595 134.554 306.814 133.213 304.915C132.316 303.628 131.578 302.239 131.015 300.778C130.835 300.262 130.698 299.848 130.629 299.569C130.581 299.429 130.552 299.284 130.543 299.137C130.543 299.137 130.74 299.712 131.161 300.728C131.774 302.15 132.539 303.503 133.445 304.763C134.811 306.621 136.327 308.366 137.979 309.983C139.817 311.844 141.937 313.807 143.921 316.1C144.893 317.214 145.774 318.402 146.557 319.653C147.267 320.827 147.901 322.045 148.455 323.299L149.966 326.683C150.447 327.732 150.945 328.696 151.391 329.568C152.018 330.983 152.93 332.258 154.07 333.316C154.895 334.043 155.461 334.314 155.419 334.348Z" fill="#263238"/>
<path d="M140.59 329.737C140.607 329.095 140.696 328.457 140.856 327.834C141.079 326.666 141.448 325.067 141.946 323.324C142.444 321.582 142.977 320.033 143.406 318.925C143.594 318.31 143.856 317.719 144.187 317.166C144.071 317.794 143.899 318.411 143.672 319.01C143.312 320.143 142.814 321.7 142.333 323.434C141.852 325.169 141.474 326.742 141.131 327.893C141.012 328.524 140.831 329.141 140.59 329.737Z" fill="#263238"/>
<path d="M154.895 316.108C154.207 316.009 153.53 315.853 152.868 315.643C151.632 315.33 149.923 314.89 148.026 314.467C146.128 314.044 144.393 313.722 143.14 313.485C142.452 313.399 141.774 313.251 141.113 313.046C141.807 313.028 142.501 313.085 143.183 313.215C144.453 313.375 146.205 313.663 148.111 314.061C150.018 314.458 151.726 314.966 152.946 315.355C153.62 315.539 154.273 315.791 154.895 316.108Z" fill="#263238"/>
<path d="M129.942 320.067C129.974 319.323 130.078 318.584 130.251 317.859C130.509 316.514 130.904 314.653 131.445 312.631C131.986 310.609 132.552 308.79 132.999 307.487C133.219 306.772 133.507 306.078 133.858 305.415C133.733 306.147 133.549 306.868 133.308 307.572C132.93 308.892 132.398 310.711 131.866 312.724C131.333 314.737 130.887 316.59 130.569 317.918C130.422 318.651 130.213 319.37 129.942 320.067Z" fill="#263238"/>
<path d="M148.309 304.23C148.309 304.332 144.711 304.052 140.306 303.587C135.901 303.122 132.329 302.665 132.346 302.563C135.023 302.639 137.694 302.851 140.349 303.198C143.018 303.408 145.675 303.753 148.309 304.23Z" fill="#263238"/>
<path d="M145.681 347.038C145.681 347.148 133.085 347.232 117.552 347.232C102.018 347.232 89.4216 347.148 89.4216 347.038C89.4216 346.928 102.018 346.843 117.552 346.843C133.085 346.843 145.681 346.928 145.681 347.038Z" fill="#455A64"/>
<path d="M136.923 363.002C136.923 363.112 128.431 363.205 117.964 363.205C107.497 363.205 99.0129 363.112 99.0129 363.002C99.0129 362.892 107.497 362.807 117.964 362.807C128.431 362.807 136.923 362.934 136.923 363.002Z" fill="#455A64"/>
<path d="M137.249 365.286C137.249 365.396 128.766 365.48 118.298 365.48C107.831 365.48 99.3477 365.396 99.3477 365.286C99.3477 365.176 107.831 365.091 118.298 365.091C128.766 365.091 137.249 365.176 137.249 365.286Z" fill="#455A64"/>
<path d="M137.249 361.124C137.249 361.234 128.474 361.318 117.646 361.318C106.818 361.318 98.0425 361.234 98.0425 361.124C98.0425 361.014 106.818 360.929 117.646 360.929C128.474 360.929 137.249 361.014 137.249 361.124Z" fill="#455A64"/>
</svg>
