<svg width="500" height="500" viewBox="0 0 500 500" fill="none" xmlns="http://www.w3.org/2000/svg">
<path d="M60.73 67.4999L73.85 67.2199L80.51 67.1099C82.74 67.1099 84.97 67.1099 87.21 67.1099H87.65V67.5599L87.71 78.7499V79.2499H87.21L74 79.1299C69.58 79.1299 65.17 79.0199 60.76 78.9599H60.48V78.6899C60.48 76.7899 60.57 74.9099 60.61 73.0399L60.73 67.4999ZM60.73 67.4999L60.87 73.1599C60.87 75.0199 60.98 76.8599 61 78.6899L60.73 78.4199C65.14 78.4199 69.55 78.2599 73.97 78.2599L87.21 78.1899L86.71 78.6899L86.76 67.4999L87.21 67.9499C85.02 67.9499 82.85 67.9499 80.66 67.8899L74.08 67.7799L60.73 67.4999Z" fill="#EBEBEB"/>
<path d="M75.5002 53.39L88.6202 53.11L95.2802 53C97.5102 53 99.7502 53 101.98 53H102.42V53.45L102.48 64.64V65.14H102L88.7402 65C84.3202 65 79.9102 64.89 75.5002 64.83H75.2202V64.56C75.2202 62.66 75.3102 60.78 75.3502 58.91L75.5002 53.39ZM75.5002 53.39L75.6402 59.05C75.6402 60.91 75.7502 62.75 75.7702 64.58L75.5002 64.31C79.9102 64.31 84.3202 64.15 88.7402 64.15L102 64.08L101.5 64.58V53.39L101.95 53.84C99.7702 53.84 97.5902 53.84 95.4002 53.78L88.8202 53.67L75.5002 53.39Z" fill="#EBEBEB"/>
<path d="M101.18 197.16L114.3 196.88L120.96 196.77C123.19 196.72 125.43 196.77 127.66 196.71H128.1V197.16L128.16 208.35V208.85H127.66L114.42 208.78C110 208.78 105.59 208.67 101.18 208.62H100.9V208.35C100.9 206.45 100.99 204.56 101.03 202.69L101.18 197.16ZM101.18 197.16L101.32 202.81C101.32 204.67 101.43 206.52 101.45 208.35L101.18 208.07C105.59 208.07 110 207.91 114.42 207.91L127.66 207.85L127.16 208.35V197.16L127.61 197.6C125.42 197.6 123.25 197.6 121.06 197.6L114.48 197.49L101.18 197.16Z" fill="#EBEBEB"/>
<path d="M116 183.05L129.12 182.77L135.78 182.66C138.01 182.66 140.25 182.66 142.48 182.6H142.92V183.05L142.98 194.24V194.74H142.48L129.24 194.67C124.82 194.67 120.41 194.56 116 194.51H115.72V194.24C115.72 192.34 115.81 190.45 115.86 188.58L116 183.05ZM116 183.05L116.14 188.7C116.14 190.56 116.25 192.41 116.27 194.24L116 194C120.41 193.95 124.82 193.85 129.24 193.84L142.48 193.78L141.98 194.28V183.09L142.43 183.53C140.25 183.53 138.07 183.53 135.88 183.48L129.3 183.37L116 183.05Z" fill="#EBEBEB"/>
<path d="M46.0002 53.39L59.1302 53.11L65.7402 53C67.9602 53 70.2002 53 72.4302 53H72.8802V53.45L72.9302 64.64V65.14H72.4202L59.1902 65C54.7802 65 50.3702 64.89 45.9502 64.83H45.6802V64.56C45.6802 62.66 45.7702 60.78 45.8102 58.91L46.0002 53.39ZM46.0002 53.39L46.1502 59.05C46.1502 60.91 46.2602 62.75 46.2802 64.58L46.0002 64.31C50.4202 64.31 54.8302 64.15 59.2402 64.15L72.4802 64.08L71.9802 64.58L72.0002 53.39L72.4402 53.84C70.2602 53.84 68.0902 53.84 65.9002 53.78L59.3202 53.67L46.0002 53.39Z" fill="#EBEBEB"/>
<path d="M439.27 296.41L426.15 296.69L419.49 296.81C417.26 296.81 415.03 296.81 412.79 296.86H412.35V296.41L412.29 285.23V284.72H412.79L426.03 284.78C430.45 284.78 434.86 284.89 439.27 284.94H439.55V285.21C439.55 287.1 439.46 288.99 439.42 290.86L439.27 296.41ZM439.27 296.41L439.13 290.76C439.13 288.9 439.02 287.06 439 285.23L439.27 285.5C434.86 285.55 430.45 285.66 426.03 285.66L412.79 285.72L413.29 285.23L413.24 296.41L412.79 295.97C414.98 295.97 417.15 295.97 419.34 295.97L425.92 296.09L439.27 296.41Z" fill="#EBEBEB"/>
<path d="M454.05 310.52L440.92 310.8L434.26 310.92C432.03 310.92 429.8 310.92 427.57 310.97H427.12V310.52L427.07 299.33V298.83H427.58L440.82 298.89C445.23 298.89 449.64 299 454.06 299.05H454.33V299.31C454.33 301.21 454.24 303.1 454.2 304.97L454.05 310.52ZM454.05 310.52L453.9 304.87C453.9 303.01 453.79 301.17 453.77 299.33L454.05 299.61C449.63 299.66 445.22 299.77 440.81 299.77L427.57 299.83L428.07 299.33L428 310.52L427.56 310.08C429.74 310.08 431.91 310.08 434.1 310.13L440.68 310.25L454.05 310.52Z" fill="#EBEBEB"/>
<path d="M87.4302 310.52L74.3102 310.8L67.6502 310.92C65.4202 310.92 63.1802 310.92 60.9502 310.97H60.5102V310.52L60.4502 299.33V298.83H61.0002L74.2402 298.89C78.6602 298.89 83.0702 299 87.4802 299.05H87.7602V299.31C87.7602 301.21 87.6702 303.1 87.6202 304.97L87.4302 310.52ZM87.4302 310.52L87.2902 304.87C87.2902 303.01 87.1802 301.17 87.1602 299.33L87.4302 299.61C83.0202 299.66 78.6102 299.77 74.1902 299.77L61.0002 299.83L61.5002 299.33L61.4502 310.52L61.0002 310.08C63.1802 310.08 65.3602 310.08 67.5502 310.13L74.1302 310.25L87.4302 310.52Z" fill="#EBEBEB"/>
<path d="M412.68 53.39L425.81 53.11L432.47 53C434.69 53 436.93 53 439.16 53H439.61V53.45L439.66 64.64V65.14H439.16L425.92 65C421.51 65 417.09 64.89 412.68 64.83H412.41V64.56C412.41 62.66 412.49 60.78 412.54 58.91L412.68 53.39ZM412.68 53.39L412.82 59.05C412.87 60.91 412.94 62.75 412.95 64.58L412.68 64.31C417.09 64.31 421.51 64.15 425.92 64.15L439.16 64.08L438.66 64.58L438.72 53.39L439.16 53.84C436.98 53.84 434.8 53.84 432.62 53.78L426 53.67L412.68 53.39Z" fill="#EBEBEB"/>
<path d="M450.67 225.78H317.53V39.8501H450.67V225.78ZM321.48 221.83H446.72V43.8001H321.48V221.83Z" fill="#EBEBEB"/>
<path d="M386.07 44.8301H382.12V223.8H386.07V44.8301Z" fill="#EBEBEB"/>
<path d="M454.26 47.8398H313.95V53.3398H454.26V47.8398Z" fill="#EBEBEB"/>
<path d="M454.26 54.0303H313.95V59.5303H454.26V54.0303Z" fill="#EBEBEB"/>
<path d="M454.26 60.21H313.95V65.71H454.26V60.21Z" fill="#EBEBEB"/>
<path d="M454.26 66.3999H313.95V71.8999H454.26V66.3999Z" fill="#EBEBEB"/>
<path d="M454.26 72.5898H313.95V78.0898H454.26V72.5898Z" fill="#EBEBEB"/>
<path d="M454.26 78.7803H313.95V84.2803H454.26V78.7803Z" fill="#EBEBEB"/>
<path d="M454.26 84.9702H313.95V90.4702H454.26V84.9702Z" fill="#EBEBEB"/>
<path d="M454.26 91.1602H313.95V96.6602H454.26V91.1602Z" fill="#EBEBEB"/>
<path d="M454.26 97.3501H313.95V102.85H454.26V97.3501Z" fill="#EBEBEB"/>
<path d="M442.52 46.7202H441.53V153.77H442.52V46.7202Z" fill="#A6A6A6"/>
<path d="M443.78 158.37H440.27L441.15 153.33H442.9L443.78 158.37Z" fill="#A6A6A6"/>
<path d="M446.08 46.7202H445.09V180.77H446.08V46.7202Z" fill="#A6A6A6"/>
<path d="M447.34 184.48H443.83L444.71 179.44H446.46L447.34 184.48Z" fill="#A6A6A6"/>
<path d="M460.39 39.0801H307.82V50.5901H460.39V39.0801Z" fill="#DBDBDB"/>
<path d="M154.04 105.08H42.2202V111.72H154.04V105.08Z" fill="#EBEBEB"/>
<path d="M57.3504 111.72H50.7104V133.68H57.3504V111.72Z" fill="#EBEBEB"/>
<path d="M57.3504 111.72H50.7104V118.51H57.3504V111.72Z" fill="#DBDBDB"/>
<path d="M145.55 111.72H138.91V133.68H145.55V111.72Z" fill="#EBEBEB"/>
<path d="M145.55 111.72H138.91V118.51H145.55V111.72Z" fill="#DBDBDB"/>
<path d="M67.4302 105.08V62.7603H56.7702V105.08H67.4302Z" fill="#C7C7C7"/>
<path d="M67.4302 65.1603V60.5103H56.7702V65.1603H67.4302Z" fill="#DBDBDB"/>
<path d="M67.4302 72.8399V71.1099H56.7702V72.8399H67.4302Z" fill="#DBDBDB"/>
<path d="M68.7603 99.5299V94.8799H56.7803V99.5299H68.7603Z" fill="#DBDBDB"/>
<path d="M74.8701 105.08V55.7202H67.4201V105.08H74.8701Z" fill="#DBDBDB"/>
<path d="M73.3501 79.3499V60.3599H68.8801V79.3499H73.3501Z" fill="#EBEBEB"/>
<path d="M127.842 99.7969L92.7393 65.0957L87.5017 70.3939L122.605 105.095L127.842 99.7969Z" fill="#C7C7C7"/>
<path d="M118.59 92.6937L105.084 79.3433L101.942 82.5222L115.447 95.8726L118.59 92.6937Z" fill="#DBDBDB"/>
<path d="M87.52 105.09V67.6001H74.87V105.09H87.52Z" fill="#A6A6A6"/>
<path d="M87.52 101.11V97.6201H74.87V101.11H87.52Z" fill="#C7C7C7"/>
<path d="M87.52 95.3302V93.9702H74.87V95.3302H87.52Z" fill="#C7C7C7"/>
<path d="M56.77 105.1V69.8599H48.03V105.1H56.77Z" fill="#A6A6A6"/>
<path d="M56.77 101.35V98.0703H48.03V101.35H56.77Z" fill="#C7C7C7"/>
<path d="M56.77 80.3899V77.1099H48.03V80.3899H56.77Z" fill="#C7C7C7"/>
<path d="M56.77 83.9199V82.6499H48.03V83.9199H56.77Z" fill="#C7C7C7"/>
<path d="M451.32 446.59C451.32 460.78 361.18 472.29 250 472.29C138.82 472.29 48.6802 460.78 48.6802 446.59C48.6802 432.4 138.82 420.89 250 420.89C361.18 420.89 451.32 432.4 451.32 446.59Z" fill="#A8A8D0"/>
<path d="M400.14 326.64C400.14 326.64 383.55 322.88 374.46 314.5C365.37 306.12 360.28 291.11 360.28 291.11C366.586 292.319 372.804 293.953 378.89 296C381.173 298.356 383.073 301.055 384.52 304C384.663 302.106 384.663 300.204 384.52 298.31C386.645 299.226 388.634 300.431 390.43 301.89C398 308.45 400.14 326.64 400.14 326.64Z" fill="#5CA272"/>
<path d="M370.64 298.4C368.38 296.84 366.08 295.33 363.83 293.75C363.69 293.66 363.83 293.44 363.96 293.53C368.24 296.08 372.45 298.81 376.53 301.67C377.95 302.67 379.35 303.7 380.73 304.76L380.44 304.27C379.94 303.44 379.44 302.62 378.89 301.8C377.851 300.137 376.673 298.565 375.37 297.1C375.32 297.05 375.37 296.97 375.45 297.02C376.74 298.51 378.03 300.02 379.21 301.57C379.77 302.32 380.29 303.1 380.79 303.89C381.05 304.31 381.3 304.72 381.53 305.15L381.78 305.57C383.93 307.26 386.02 309.02 388.01 310.87C389.243 312.017 390.433 313.203 391.58 314.43C390.93 312.43 390.37 310.43 389.63 308.43C389.63 308.36 389.72 308.33 389.74 308.43C390.46 310.5 391.25 312.59 391.81 314.72C393.08 316.09 394.3 317.51 395.44 319L395.38 318.73C395.19 317.94 395 317.16 394.79 316.39C394.39 314.89 393.94 313.39 393.44 311.92C392.483 308.866 390.971 306.015 388.98 303.51C388.93 303.45 388.98 303.37 389.06 303.43C392.168 307.308 394.344 311.848 395.42 316.7C395.6 317.4 395.76 318.11 395.92 318.82C396.01 319.2 396.11 319.58 396.17 319.97C396.67 320.65 397.17 321.33 397.64 322.03C400.456 326.358 402.803 330.974 404.64 335.8C406.725 341.212 408.514 346.734 410 352.34C409.994 352.358 409.982 352.373 409.967 352.384C409.952 352.395 409.933 352.4 409.915 352.4C409.896 352.4 409.878 352.395 409.863 352.384C409.847 352.373 409.836 352.358 409.83 352.34C406.58 342.63 403.27 332.78 397.71 324.11C396.538 322.277 395.273 320.504 393.92 318.8C391.171 318.624 388.458 318.086 385.85 317.2C383.005 316.236 380.291 314.923 377.77 313.29C376.333 312.319 374.948 311.274 373.62 310.16C373.611 310.157 373.603 310.152 373.596 310.145C373.59 310.138 373.585 310.129 373.582 310.12C373.58 310.111 373.579 310.102 373.581 310.092C373.583 310.083 373.587 310.074 373.593 310.067C373.598 310.059 373.606 310.053 373.615 310.049C373.623 310.045 373.633 310.043 373.642 310.044C373.651 310.044 373.661 310.046 373.669 310.051C373.677 310.056 373.684 310.062 373.69 310.07C376.008 311.941 378.568 313.492 381.3 314.68C383.981 315.911 386.787 316.849 389.67 317.48C390.89 317.75 392.14 317.95 393.38 318.12C391.846 316.229 390.213 314.42 388.49 312.7C387.93 312.14 387.35 311.6 386.77 311.06C384.836 309.708 382.785 308.533 380.64 307.55C377.92 306.23 375.24 304.84 372.55 303.47C371.03 302.7 369.55 301.91 368 301.16C367.93 301.16 368 301.04 368.06 301.07C370.78 302.39 373.55 303.62 376.3 304.88C379.05 306.14 381.52 307.26 384 308.65L384.32 308.84C382.07 306.84 379.74 305.02 377.32 303.22C375.14 301.6 372.91 300 370.64 298.4Z" fill="#263238"/>
<path d="M371.59 307C372.94 307.59 374.31 308.11 375.65 308.74C376.99 309.37 378.32 310.13 379.65 310.9C379.656 310.903 379.661 310.907 379.665 310.913C379.669 310.918 379.672 310.924 379.674 310.931C379.676 310.937 379.677 310.944 379.676 310.951C379.675 310.957 379.673 310.964 379.67 310.97C379.666 310.976 379.662 310.981 379.657 310.985C379.651 310.989 379.645 310.992 379.639 310.994C379.632 310.996 379.626 310.997 379.619 310.996C379.612 310.995 379.606 310.993 379.6 310.99C378.28 310.36 376.94 309.77 375.6 309.11C374.26 308.45 372.93 307.71 371.55 307.11C371.49 307 371.52 306.93 371.59 307Z" fill="#263238"/>
<path d="M454 243C450.92 246.95 449.17 251.774 449 256.78C448.95 258.27 449.18 260.35 449.36 262.78C445.217 265.183 441.547 268.321 438.53 272.04C441.841 270.115 445.645 269.204 449.47 269.42C449.384 271.1 449.174 272.771 448.84 274.42C446.438 274.427 444.061 274.899 441.84 275.81C444.017 275.787 446.176 276.216 448.18 277.07C445.18 286.48 436.44 296.15 412.18 300.25C409.61 288.709 411.13 276.634 416.48 266.09C423.77 251.76 454 243 454 243Z" fill="#5CA272"/>
<path d="M403.8 340.49C404.22 336.49 404.743 332.49 405.37 328.49C406.598 320.493 408.23 312.563 410.26 304.73C411.214 301.054 412.386 297.437 413.77 293.9C413.7 293.256 413.67 292.608 413.68 291.96C413.68 291.18 413.68 290.4 413.68 289.62C413.68 288.07 413.77 286.52 413.9 284.97C414.146 281.898 414.644 278.851 415.39 275.86C415.84 274.13 416.39 272.43 416.86 270.72C416.864 270.71 416.872 270.7 416.882 270.694C416.892 270.688 416.903 270.684 416.915 270.684C416.926 270.684 416.938 270.688 416.948 270.694C416.957 270.7 416.965 270.71 416.97 270.72C416.16 273.705 415.558 276.742 415.17 279.81C414.74 282.831 414.469 285.871 414.36 288.92C414.36 289.75 414.31 290.59 414.31 291.42C414.31 291.78 414.31 292.14 414.31 292.49C415.504 289.592 416.87 286.767 418.4 284.03C420.866 279.692 423.644 275.538 426.71 271.6C426.716 271.14 426.783 270.683 426.91 270.24C427.02 269.7 427.14 269.16 427.26 268.61C427.51 267.51 427.79 266.4 428.09 265.31C428.69 263.11 429.49 260.98 430.18 258.81C430.184 258.8 430.192 258.79 430.202 258.784C430.212 258.778 430.223 258.774 430.235 258.774C430.246 258.774 430.258 258.778 430.268 258.784C430.277 258.79 430.285 258.8 430.29 258.81C429.65 260.96 429.22 263.19 428.73 265.38C428.48 266.46 428.25 267.54 428.01 268.63C427.89 269.17 427.77 269.71 427.66 270.25C427.66 270.25 427.66 270.34 427.66 270.38C428.64 269.14 429.64 267.92 430.66 266.72C435.29 261.28 440.37 256.26 445.49 251.29C446.12 250.67 446.76 250.08 447.4 249.47C447.4 249.47 447.53 249.47 447.48 249.56C442.59 254.66 437.78 259.81 433.22 265.21C432.13 266.5 431.07 267.8 430.02 269.11L431.68 268.01C433.09 267.09 434.52 266.19 435.99 265.37C437.46 264.55 438.99 263.73 440.46 262.98C441.93 262.23 443.68 261.58 445.19 260.71C445.25 260.71 445.31 260.78 445.24 260.81C443.705 261.518 442.225 262.337 440.81 263.26C439.33 264.14 437.86 265.02 436.41 265.94C434.96 266.86 433.55 267.74 432.13 268.66C430.95 269.43 429.79 270.27 428.56 270.97C425.746 274.587 423.148 278.367 420.78 282.29C419.317 284.764 417.982 287.31 416.78 289.92L417.65 289.54L419.88 288.54C421.3 287.91 422.74 287.29 424.17 286.67C426.89 285.48 429.66 284.4 432.33 283.1C433.835 282.39 435.291 281.582 436.69 280.68C436.75 280.68 436.8 280.68 436.74 280.78C431.74 284.21 426.18 286.62 420.68 289.06L418.29 290.12C417.63 290.41 416.97 290.73 416.29 290.99C414.657 294.639 413.283 298.398 412.18 302.24C410.011 309.969 408.249 317.807 406.9 325.72C405.51 333.65 404.57 341.63 403.84 349.65C403.75 350.65 403.66 351.65 403.54 352.65C403.526 352.724 403.488 352.791 403.43 352.839C403.372 352.887 403.3 352.914 403.225 352.914C403.15 352.914 403.077 352.887 403.019 352.839C402.962 352.791 402.923 352.724 402.91 352.65C403 348.61 403.37 344.54 403.8 340.49Z" fill="#263238"/>
<path d="M418.57 273.45C419.01 270.98 419.67 268.57 420.33 266.15C420.33 266.08 420.46 266.15 420.44 266.15C419.83 268.52 419.39 270.94 418.94 273.34C418.49 275.74 418.09 278.26 417.74 280.73C417.74 280.73 417.67 280.78 417.67 280.73C417.831 278.288 418.132 275.858 418.57 273.45Z" fill="#263238"/>
<path d="M429 280.14C430.69 279.022 432.454 278.019 434.28 277.14C435.16 276.69 436.06 276.25 436.95 275.82C437.84 275.39 438.84 275 439.76 274.54C439.82 274.54 439.87 274.6 439.76 274.63C438.87 275.08 438.03 275.63 437.16 276.09L434.46 277.57C432.69 278.52 430.94 279.57 429.08 280.35C429.059 280.344 429.04 280.333 429.024 280.319C429.007 280.304 428.995 280.286 428.987 280.265C428.979 280.245 428.977 280.223 428.979 280.201C428.981 280.179 428.988 280.158 429 280.14Z" fill="#263238"/>
<path opacity="0.1" d="M399.84 297.9C399.84 297.9 384.49 294.23 377.44 283.9C370.71 274.07 368.53 257.3 368.36 255.82C368.63 257.18 371.8 271.82 382.25 278.66C390.26 283.92 398 288.22 399.84 297.9Z" fill="#263238"/>
<path d="M399.84 297.9C399.84 297.9 384.49 294.23 377.44 283.9C370.71 274.07 368.53 257.3 368.36 255.82C368.355 255.787 368.355 255.753 368.36 255.72C368.36 255.72 375.72 266.19 383.46 268.86C391.2 271.53 402.06 280.79 399.84 297.9Z" fill="#5CA272"/>
<path d="M371.06 261.52C372.437 264.342 374.025 267.056 375.81 269.64C377.598 272.092 379.722 274.28 382.12 276.14C384.21 277.8 386.41 279.3 388.52 280.92V280.84C388.12 280.26 387.7 279.68 387.26 279.13C386.38 278 385.42 276.94 384.45 275.89C382.55 273.82 380.6 271.79 378.89 269.55C377.936 268.304 377.112 266.963 376.43 265.55C376.43 265.48 376.5 265.45 376.53 265.55C379.02 270.74 384 274.06 387.53 278.44C388.032 279.063 388.503 279.71 388.94 280.38C389.292 280.866 389.591 281.389 389.83 281.94C391.774 283.5 393.533 285.278 395.07 287.24C394.936 286.226 394.729 285.224 394.45 284.24C394.095 282.872 393.546 281.562 392.82 280.35C392.82 280.29 392.88 280.22 392.92 280.29C393.661 281.505 394.261 282.8 394.71 284.15C395.034 285.226 395.222 286.338 395.27 287.46C396.03 288.492 396.725 289.571 397.35 290.69C397.28 290.36 397.22 290.03 397.16 289.69C396.85 288.16 396.52 286.63 396.16 285.12C395.435 282.046 394.187 279.12 392.47 276.47C392.42 276.41 392.47 276.35 392.56 276.41C394.321 279.02 395.698 281.869 396.65 284.87C397.14 286.38 397.53 287.87 397.88 289.46C398.05 290.21 398.2 290.97 398.34 291.73C398.42 292.12 398.5 292.53 398.57 292.93C400.09 296.275 401.275 299.762 402.11 303.34C403.614 309.733 404.707 316.217 405.38 322.75C406.173 329.59 406.527 336.475 406.44 343.36C406.44 344.23 406.37 345.09 406.33 345.95C406.33 346.17 405.98 346.21 405.97 345.95C405.82 342.54 405.73 339.13 405.53 335.73C405.33 332.33 405.03 328.93 404.67 325.53C403.969 318.86 402.901 312.233 401.47 305.68C400.22 300.07 398.61 294.42 395.54 289.5C394.015 287.052 392.15 284.833 390 282.91C387.85 280.98 385.5 279.29 383.23 277.5C380.93 275.75 378.842 273.736 377.01 271.5C375.136 269.02 373.502 266.369 372.13 263.58L371.03 261.5C370.93 261.52 371 261.46 371.06 261.52Z" fill="#263238"/>
<path d="M373.71 263.78C374.72 265.851 375.862 267.856 377.13 269.78C377.13 269.78 377.13 269.87 377.06 269.78C375.741 267.88 374.584 265.873 373.6 263.78C373.57 263.75 373.68 263.71 373.71 263.78Z" fill="#263238"/>
<path d="M456.18 291.11C456.18 291.11 456.43 312.93 443.38 319.22C430.33 325.51 423.38 320.28 414.48 322.39C414.82 321.87 421.15 312.77 431.21 310.27C441.57 307.68 453 300.2 456.18 291.11Z" fill="#5CA272"/>
<path opacity="0.1" d="M456.18 291.11C456.18 291.11 456.43 312.93 443.38 319.22C430.33 325.51 423.38 320.28 414.48 322.39C419.165 320.155 424.173 318.673 429.32 318C437.55 317 453.26 311.65 456.18 291.11Z" fill="black"/>
<path d="M413.62 322.78C415.169 321.361 416.918 320.175 418.81 319.26C419.08 319.13 419.37 319.02 419.66 318.9C419.792 318.724 419.936 318.557 420.09 318.4C420.49 317.99 420.89 317.6 421.32 317.23C422.14 316.526 423.02 315.893 423.95 315.34C426.11 314.07 428.48 313.18 430.69 312C430.75 312 430.81 312.06 430.74 312.1C429.65 312.66 428.59 313.29 427.53 313.91C426.47 314.53 425.44 315.09 424.43 315.74C423.526 316.323 422.664 316.968 421.85 317.67C421.62 317.87 421.4 318.09 421.18 318.31C422.623 317.826 424.096 317.435 425.59 317.14C427.98 316.66 430.39 316.32 432.78 315.81C433.948 315.56 435.103 315.25 436.24 314.88C437.32 314 438.4 313.14 439.43 312.19C440.669 311.053 441.797 309.801 442.8 308.45C442.8 308.4 442.94 308.45 442.89 308.51C441.309 310.651 439.52 312.631 437.55 314.42C438.11 314.2 438.66 313.97 439.21 313.72C443.693 311.713 447.54 308.513 450.33 304.47C450.33 304.41 450.47 304.47 450.43 304.53C448.057 307.999 444.993 310.941 441.43 313.17C439.647 314.284 437.741 315.187 435.75 315.86C433.437 316.577 431.078 317.135 428.69 317.53C426.35 317.91 424.041 318.458 421.78 319.17C419.698 319.876 417.741 320.905 415.98 322.22C412.658 324.802 409.981 328.119 408.16 331.91C405.821 336.959 404.364 342.37 403.85 347.91C403.85 348.14 403.47 348.14 403.48 347.91C404.09 338.69 406.55 329.14 413.62 322.78Z" fill="#263238"/>
<path d="M428.76 315.66C429.44 314.642 430.361 313.808 431.44 313.23C432.677 312.584 433.764 311.684 434.63 310.59C434.63 310.53 434.77 310.59 434.72 310.65C433.937 311.647 432.986 312.5 431.91 313.17C430.726 313.801 429.681 314.665 428.84 315.71C428.8 315.76 428.72 315.71 428.76 315.66Z" fill="#263238"/>
<path d="M421.83 338.88L421.24 350.88L419.42 387.53H392.05L390.23 350.88L389.64 338.88H421.83Z" fill="#37474F"/>
<path d="M421.83 338.88L421.24 350.88H390.23L389.64 338.88H421.83Z" fill="#263238"/>
<path d="M423.75 333.87H387.72V345.32H423.75V333.87Z" fill="#37474F"/>
<path d="M42.2202 387.53L94.1602 387.29L146.11 387.2L250 387.03L353.89 387.2L405.84 387.29L457.78 387.53L405.84 387.78L353.89 387.87L250 388.03L146.11 387.86L94.1602 387.78L42.2202 387.53Z" fill="#263238"/>
<path d="M375.22 414.26V65.7298C375.22 58.6109 369.449 52.8398 362.33 52.8398L137.68 52.8398C130.561 52.8398 124.79 58.6109 124.79 65.7298L124.79 414.26C124.79 421.379 130.561 427.15 137.68 427.15H362.33C369.449 427.15 375.22 421.379 375.22 414.26Z" fill="#263238"/>
<path d="M365.01 80H136V402.14H365.01V80Z" fill="white"/>
<path d="M277.24 68.7396V67.3496C277.24 66.6593 276.681 66.0996 275.99 66.0996H223.99C223.3 66.0996 222.74 66.6593 222.74 67.3496V68.7396C222.74 69.43 223.3 69.9896 223.99 69.9896H275.99C276.681 69.9896 277.24 69.43 277.24 68.7396Z" fill="#37474F"/>
<path d="M250 420.89C253.894 420.89 257.05 417.734 257.05 413.84C257.05 409.946 253.894 406.79 250 406.79C246.107 406.79 242.95 409.946 242.95 413.84C242.95 417.734 246.107 420.89 250 420.89Z" fill="#37474F"/>
<path d="M329.37 123.28H170.93V125.51H329.37V123.28Z" fill="#EBEBEB"/>
<path d="M329.37 130.2H170.93V132.43H329.37V130.2Z" fill="#EBEBEB"/>
<path d="M329.37 340.93H170.93V343.16H329.37V340.93Z" fill="#EBEBEB"/>
<path d="M329.37 347.85H170.93V350.08H329.37V347.85Z" fill="#EBEBEB"/>
<path d="M312.64 325.4H187.36V219.42L249.99 179.64L312.64 219.42V325.4Z" fill="#FF4727"/>
<path opacity="0.2" d="M312.64 325.4H187.36V219.42L249.99 179.64L312.64 219.42V325.4Z" fill="#404099"/>
<path d="M304.15 160H193V302.69H304.15V160Z" fill="#EBEBEB"/>
<path d="M243.23 259.97L217.78 234.21L226.33 225.76L241.2 240.81L272.08 192.39L282.22 198.85L243.23 259.97Z" fill="#FE4400"/>
<path d="M312.64 246V325.4H187.36V246C192.74 249 198.03 252.24 203.36 255.36C208.69 258.48 213.97 261.72 219.24 264.96C225.11 268.53 230.98 272.17 236.83 275.83L237.02 275.72C236.96 275.72 236.92 275.82 236.87 275.85C241.244 278.55 245.62 281.267 250 284C254.36 281.25 258.75 278.48 263.13 275.77C263.08 275.77 263.04 275.68 262.98 275.64C263.039 275.681 263.103 275.715 263.17 275.74C269.017 272.093 274.88 268.467 280.76 264.86C286.034 261.64 291.32 258.447 296.62 255.28C302 252.19 307.26 249 312.64 246Z" fill="#2A2962"/>
<g opacity="0.2">
<path opacity="0.2" d="M312.64 246C307.58 249.55 302.43 253 297.33 256.46C292.23 259.92 287.04 263.3 281.86 266.69C276.46 270.23 271.05 273.737 265.63 277.21L265.14 277.55L250.71 286.75L249.99 287.18L249.29 286.75L234.88 277.53L234.37 277.21C228.937 273.73 223.52 270.217 218.12 266.67C212.96 263.3 207.81 259.88 202.67 256.46C197.53 253.04 192.42 249.5 187.36 246C192.74 249 198.03 252.24 203.36 255.36C208.69 258.48 213.97 261.72 219.24 264.96C225.11 268.53 230.98 272.17 236.83 275.83C241.23 278.543 245.62 281.267 250 284C254.36 281.25 258.75 278.48 263.13 275.77C268.977 272.123 274.84 268.497 280.72 264.89C285.994 261.67 291.28 258.477 296.58 255.31C302 252.19 307.26 249 312.64 246Z" fill="black"/>
<path opacity="0.2" d="M237 275.67C236.94 275.67 236.9 275.77 236.85 275.8L234.85 277.48C231.71 280.13 228.49 282.67 225.22 285.14C221.22 288.14 217.15 291.14 213.05 294C208.95 296.86 204.79 299.66 200.55 302.37C196.31 305.08 192.05 307.73 187.63 310.16C191.43 306.83 195.38 303.72 199.37 300.7C203.36 297.68 207.46 294.7 211.54 291.83C215.62 288.96 219.82 286.15 224.05 283.44C227.42 281.28 230.85 279.15 234.34 277.16C235.15 276.69 235.96 276.24 236.79 275.78L237 275.67Z" fill="black"/>
<path opacity="0.2" d="M312.34 310.16C307.92 307.73 303.63 305.08 299.42 302.37C295.21 299.66 291 296.84 286.9 294C282.8 291.16 278.72 288.18 274.73 285.14C271.48 282.67 268.26 280.14 265.14 277.5L263.14 275.8C263.09 275.8 263.05 275.71 262.99 275.67C263.049 275.711 263.113 275.745 263.18 275.77C264.01 276.24 264.82 276.69 265.63 277.16C269.12 279.16 272.53 281.28 275.92 283.44C280.15 286.15 284.29 288.97 288.41 291.83C292.53 294.69 296.59 297.65 300.58 300.7C304.57 303.75 308.54 306.83 312.34 310.16Z" fill="black"/>
</g>
<path d="M196.4 167.8C195.734 162.303 195.734 156.747 196.4 151.25C197.067 156.747 197.067 162.303 196.4 167.8Z" fill="#263238"/>
<path d="M189.36 170.43C187.169 168.739 185.094 166.901 183.15 164.93C181.177 162.992 179.339 160.921 177.65 158.73C182.009 162.146 185.941 166.074 189.36 170.43Z" fill="#263238"/>
<path d="M186.25 177.26C183.505 177.616 180.738 177.783 177.97 177.76C175.205 177.791 172.442 177.627 169.7 177.27C172.442 176.909 175.205 176.742 177.97 176.77C180.738 176.744 183.505 176.908 186.25 177.26Z" fill="#263238"/>
<path d="M188.88 184.29C185.461 188.645 181.533 192.576 177.18 196C180.592 191.635 184.521 187.699 188.88 184.28V184.29Z" fill="#263238"/>
<path d="M302.85 167.8C302.503 165.054 302.339 162.288 302.36 159.52C302.34 156.755 302.511 153.992 302.87 151.25C303.537 156.747 303.537 162.303 302.87 167.8H302.85Z" fill="#263238"/>
<path d="M309.89 170.43C313.31 166.074 317.241 162.146 321.6 158.73C319.912 160.921 318.074 162.992 316.1 164.93C314.157 166.901 312.082 168.739 309.89 170.43Z" fill="#263238"/>
<path d="M313 177.26C315.746 176.908 318.512 176.744 321.28 176.77C324.045 176.742 326.809 176.909 329.55 177.27C326.808 177.628 324.045 177.791 321.28 177.76C318.512 177.783 315.745 177.616 313 177.26Z" fill="#263238"/>
<path d="M310.37 184.29C314.729 187.706 318.658 191.638 322.07 196C319.882 194.305 317.81 192.464 315.87 190.49C313.897 188.552 312.059 186.481 310.37 184.29Z" fill="#263238"/>
<path d="M169.29 457.12C167.13 457.82 105.6 457.02 103.29 455.5C102.4 454.94 101.99 445.97 101.81 435.11V434.77C101.81 432.54 101.74 430.23 101.73 427.9C101.73 427.58 101.73 427.26 101.73 426.9L104.73 394.98L145.89 395.39L141.82 427.01V428.26L141.57 434.8V435.48C141.57 435.48 164.99 446.32 167.37 448.26C169.75 450.2 171.44 456.44 169.29 457.12Z" fill="#F7A9A0"/>
<path d="M169.29 457.12C167.13 457.82 105.6 457.02 103.29 455.5C102.4 454.94 101.99 445.97 101.81 435.11V434.77C101.81 432.54 101.74 430.23 101.73 427.9C101.73 427.58 101.73 427.26 101.73 426.9L141.81 427.01V428.26L141.56 434.8V435.48C141.56 435.48 164.98 446.32 167.36 448.26C169.74 450.2 171.44 456.44 169.29 457.12Z" fill="#EBEBEB"/>
<path d="M169.47 457.27C167.29 457.97 105.2 457.38 102.85 455.86C101.95 455.29 101.51 446.24 101.29 435.29L141.29 435.56C141.29 435.56 164.96 446.42 167.37 448.36C169.78 450.3 171.64 456.56 169.47 457.27Z" fill="#FF4727"/>
<path d="M168.6 454.78C158.2 454.42 116.19 453.97 105.88 454.41C105.8 454.41 105.8 454.47 105.88 454.48C116.19 455.05 158.19 455.16 168.6 454.95C168.82 454.94 168.82 454.78 168.6 454.78Z" fill="#263238"/>
<path d="M163.42 446.09C162.264 446.051 161.112 446.251 160.036 446.678C158.961 447.105 157.985 447.749 157.17 448.57C155.698 450.044 154.846 452.027 154.79 454.11C154.79 454.17 154.91 454.17 154.92 454.11C155.292 452.052 156.322 450.17 157.854 448.747C159.387 447.325 161.34 446.438 163.42 446.22C163.431 446.224 163.442 446.226 163.454 446.225C163.465 446.223 163.476 446.219 163.485 446.213C163.495 446.206 163.502 446.198 163.508 446.188C163.513 446.178 163.516 446.166 163.516 446.155C163.516 446.144 163.513 446.132 163.508 446.122C163.502 446.112 163.495 446.103 163.485 446.097C163.476 446.091 163.465 446.087 163.454 446.085C163.442 446.084 163.431 446.086 163.42 446.09Z" fill="#263238"/>
<path d="M145.35 436.64C141.18 436.54 136.35 437.96 133.72 441.34C133.62 441.48 133.81 441.62 133.93 441.55C137.593 439.679 141.445 438.204 145.42 437.15C145.48 437.133 145.532 437.095 145.566 437.042C145.601 436.99 145.615 436.927 145.606 436.865C145.598 436.803 145.567 436.746 145.52 436.705C145.473 436.663 145.413 436.641 145.35 436.64Z" fill="#263238"/>
<path d="M148.55 437.92C144.39 437.82 139.55 439.25 136.92 442.63C136.82 442.76 137.01 442.9 137.13 442.84C140.791 440.963 144.643 439.485 148.62 438.43C148.68 438.413 148.732 438.374 148.766 438.322C148.8 438.27 148.814 438.207 148.806 438.145C148.797 438.083 148.767 438.026 148.72 437.984C148.673 437.943 148.612 437.92 148.55 437.92Z" fill="#263238"/>
<path d="M151.76 439.2C147.59 439.11 142.76 440.53 140.13 443.91C140.03 444.04 140.21 444.19 140.34 444.12C144 442.251 147.848 440.776 151.82 439.72C151.876 439.699 151.924 439.66 151.955 439.608C151.986 439.557 151.999 439.497 151.992 439.437C151.986 439.377 151.959 439.322 151.917 439.279C151.875 439.236 151.82 439.208 151.76 439.2Z" fill="#263238"/>
<path d="M155 440.49C150.84 440.39 146 441.82 143.37 445.2C143.27 445.33 143.46 445.47 143.58 445.41C147.219 443.538 151.047 442.06 155 441C155.059 440.989 155.112 440.957 155.15 440.91C155.188 440.864 155.209 440.805 155.209 440.745C155.209 440.685 155.188 440.627 155.15 440.58C155.112 440.534 155.059 440.502 155 440.49Z" fill="#263238"/>
<path d="M108.63 444.55C103.95 444.55 103.9 451.78 108.63 451.81C113.36 451.84 113.31 444.58 108.63 444.55Z" fill="white"/>
<path d="M150 425.56C147.91 423.79 145.23 425.48 143.92 427.28C141.703 430.414 140.351 434.077 140 437.9C140 437.98 140.06 438.02 140.13 438.02C140.145 438.098 140.178 438.172 140.227 438.234C140.277 438.297 140.34 438.347 140.412 438.38C140.485 438.414 140.564 438.429 140.644 438.426C140.723 438.422 140.801 438.399 140.87 438.36C143.87 436.36 147.3 434.54 149.58 431.67C150.9 430 151.94 427.24 150 425.56ZM144.8 434.37C143.36 435.37 141.87 436.37 140.47 437.44C141.165 435.35 141.966 433.298 142.87 431.29C143.325 430.324 143.843 429.389 144.42 428.49C145.34 427.12 149.42 423.68 149.83 428.22C150 430.72 146.48 433.14 144.76 434.37H144.8Z" fill="#263238"/>
<path d="M129.62 439.34C133.25 439.93 137 438.94 140.57 438.42C140.647 438.4 140.718 438.362 140.778 438.31C140.839 438.258 140.886 438.192 140.917 438.119C140.948 438.045 140.961 437.966 140.957 437.886C140.952 437.807 140.929 437.729 140.89 437.66C140.902 437.65 140.912 437.637 140.919 437.622C140.926 437.607 140.93 437.591 140.93 437.575C140.93 437.559 140.926 437.543 140.919 437.528C140.912 437.513 140.902 437.5 140.89 437.49C138.073 434.902 134.624 433.102 130.89 432.27C128.7 431.82 125.59 432.38 125.24 435.1C124.89 437.67 127.51 439 129.62 439.34ZM127.13 437C124.35 433.4 129.71 433.16 131.31 433.55C132.331 433.814 133.334 434.148 134.31 434.55C136.37 435.37 138.31 436.46 140.24 437.47C138.47 437.62 136.73 437.92 134.96 438.13C132.89 438.35 128.67 438.93 127.13 437Z" fill="#263238"/>
<path opacity="0.1" d="M134.3 457.37C118.87 457.1 103.98 456.59 102.85 455.86C101.95 455.29 101.51 446.24 101.29 435.29H106.99C113.29 440.45 126.62 451.18 134.3 457.37Z" fill="black"/>
<path d="M144.2 435H99.8901C99.8901 435 108.81 331.51 108.46 329.7C108.02 327.38 105.4 316.91 101.92 303.22C100.83 298.94 99.6501 294.35 98.4301 289.59C95.1201 276.71 91.4301 262.64 88.3101 250.39C83.5501 232.05 79.8301 217.8 79.8301 217.8H117.38C117.38 217.8 121.76 231.67 127.28 249.73C136.28 279.06 148.28 319.44 149.46 329.26C151.38 345.09 144.2 435 144.2 435Z" fill="#37474F"/>
<path d="M142.24 427.42C135.47 427.28 137.41 427.23 130.64 427.16C127.33 427.16 105.57 426.94 102.47 427.45C102.451 427.45 102.434 427.457 102.42 427.47C102.407 427.484 102.4 427.501 102.4 427.52C102.4 427.539 102.407 427.556 102.42 427.569C102.434 427.583 102.451 427.59 102.47 427.59C105.57 428.1 127.33 427.91 130.64 427.88C137.41 427.82 135.47 427.76 142.24 427.62C142.266 427.62 142.292 427.609 142.311 427.591C142.329 427.572 142.34 427.546 142.34 427.52C142.34 427.493 142.329 427.468 142.311 427.449C142.292 427.431 142.266 427.42 142.24 427.42Z" fill="#263238"/>
<path d="M116.8 323.35C115.35 316.95 113.17 310.67 111.28 304.35C107.44 291.583 103.576 278.817 99.6898 266.05C97.7498 259.67 95.8031 253.29 93.8498 246.91C92.8631 243.69 91.8631 240.473 90.8498 237.26C89.8498 234.11 88.7398 231 87.8498 227.82C87.4898 226.53 87.2898 227.24 87.7598 228.88C88.6898 232.18 89.6098 235.49 90.5798 238.79C92.4798 245.323 94.3998 251.85 96.3398 258.37C100.18 271.35 104.053 284.32 107.96 297.28C109.913 303.787 111.87 310.287 113.83 316.78C114.821 319.874 115.619 323.027 116.22 326.22C116.748 329.556 116.882 332.942 116.62 336.31C116.19 343.09 115.4 349.86 114.78 356.62C114.16 363.38 113.52 370.18 112.9 376.95C111.653 390.443 110.413 403.933 109.18 417.42C109.03 419.13 108.88 420.84 108.75 422.56C108.75 423.13 109.57 423.08 109.63 422.56C111.09 409.23 112.21 395.84 113.46 382.49C114.71 369.14 115.96 355.9 117.2 342.61C117.51 339.27 117.87 335.93 117.87 332.61C117.862 329.493 117.503 326.387 116.8 323.35Z" fill="#263238"/>
<path d="M113.12 217.78C110.51 237.95 105.54 275.78 101.92 303.2C93.4501 270 79.8301 217.78 79.8301 217.78H113.12Z" fill="#263238"/>
<path d="M122.34 457.72C120.19 458.42 58.6601 457.85 56.3401 456.34C55.4501 455.78 55.0101 446.81 54.7901 435.95V435.61C54.7401 433.38 54.7001 431.07 54.6901 428.74C54.6901 428.42 54.6901 428.1 54.6901 427.74C54.5501 412.08 55.6901 395.83 55.6901 395.83L95.9101 396.09L94.7801 427.71V428.96L94.5601 435.51V436.18C94.5601 436.18 117.91 447 120.29 448.9C122.67 450.8 124.5 457 122.34 457.72Z" fill="#F7A9A0"/>
<path d="M122.34 457.72C120.19 458.42 58.6599 457.85 56.3399 456.34C55.4499 455.78 55.0099 446.81 54.7899 435.95V435.61C54.7399 433.38 54.6999 431.07 54.6899 428.74C54.6899 428.42 54.6899 428.1 54.6899 427.74H94.7699V428.99L94.5499 435.54V436.21C94.5499 436.21 117.91 447 120.29 448.9C122.67 450.8 124.5 457 122.34 457.72Z" fill="#EBEBEB"/>
<path d="M122.59 457.59C120.41 458.29 58.3202 457.7 55.9702 456.18C55.0702 455.61 54.6302 446.56 54.4102 435.61L94.4102 435.88C94.4102 435.88 118.08 446.74 120.48 448.68C122.88 450.62 124.76 456.88 122.59 457.59Z" fill="#FF4727"/>
<path d="M121.72 455.1C111.31 454.74 69.3099 454.29 58.9999 454.73C58.9199 454.73 58.9199 454.79 58.9999 454.79C69.2999 455.37 111.31 455.48 121.72 455.27C121.94 455.26 121.94 455.1 121.72 455.1Z" fill="#263238"/>
<path d="M116.54 446.41C115.384 446.371 114.232 446.571 113.156 446.997C112.081 447.424 111.105 448.069 110.29 448.89C108.814 450.362 107.962 452.346 107.91 454.43C107.91 454.49 108.03 454.49 108.04 454.43C108.412 452.372 109.442 450.49 110.974 449.068C112.507 447.645 114.46 446.758 116.54 446.54C116.553 446.535 116.564 446.526 116.572 446.514C116.58 446.503 116.584 446.489 116.584 446.475C116.584 446.461 116.58 446.447 116.572 446.436C116.564 446.424 116.553 446.415 116.54 446.41Z" fill="#263238"/>
<path d="M98.4701 437C94.3001 436.91 89.4701 438.33 86.8401 441.71C86.7401 441.84 86.9201 441.99 87.0501 441.92C90.7128 440.049 94.5646 438.574 98.5401 437.52C98.5964 437.498 98.6438 437.458 98.6745 437.406C98.7052 437.353 98.7175 437.293 98.7094 437.233C98.7013 437.173 98.6734 437.117 98.63 437.075C98.5866 437.033 98.5303 437.006 98.4701 437Z" fill="#263238"/>
<path d="M101.67 438.24C97.5098 438.14 92.6698 439.56 90.0398 442.95C89.9398 443.08 90.1298 443.22 90.2498 443.16C93.9111 441.284 97.7631 439.805 101.74 438.75C101.8 438.733 101.852 438.695 101.886 438.642C101.92 438.59 101.935 438.527 101.926 438.465C101.917 438.403 101.887 438.346 101.84 438.305C101.793 438.264 101.732 438.241 101.67 438.24Z" fill="#263238"/>
<path d="M104.88 439.52C100.71 439.42 95.8797 440.85 93.2497 444.23C93.1397 444.36 93.3297 444.5 93.4597 444.44C97.1171 442.565 100.966 441.09 104.94 440.04C104.996 440.019 105.043 439.979 105.075 439.928C105.106 439.877 105.119 439.816 105.112 439.757C105.105 439.697 105.079 439.641 105.037 439.598C104.994 439.556 104.939 439.528 104.88 439.52Z" fill="#263238"/>
<path d="M108.08 440.81C103.91 440.71 99.08 442.13 96.45 445.52C96.35 445.65 96.54 445.79 96.66 445.73C100.321 443.852 104.173 442.373 108.15 441.32C108.21 441.303 108.262 441.265 108.296 441.212C108.331 441.16 108.345 441.097 108.336 441.035C108.328 440.973 108.297 440.916 108.25 440.875C108.203 440.833 108.143 440.81 108.08 440.81Z" fill="#263238"/>
<path d="M61.75 444.87C57.07 444.87 57.02 452.1 61.75 452.13C66.48 452.16 66.43 444.9 61.75 444.87Z" fill="white"/>
<path d="M103.08 425.88C100.98 424.11 98.31 425.8 96.99 427.6C94.7881 430.735 93.45 434.394 93.11 438.21C93.1082 438.227 93.1103 438.245 93.1164 438.261C93.1224 438.277 93.1321 438.291 93.1448 438.303C93.1574 438.315 93.1726 438.323 93.1892 438.328C93.2057 438.333 93.2231 438.333 93.24 438.33C93.2536 438.409 93.2861 438.484 93.3346 438.548C93.3832 438.612 93.4464 438.663 93.519 438.697C93.5916 438.732 93.6714 438.748 93.7517 438.745C93.8319 438.742 93.9102 438.72 93.98 438.68C96.98 436.68 100.41 434.86 102.69 431.98C104 430.3 105.06 427.55 103.08 425.88ZM97.88 434.69C96.44 435.69 94.95 436.69 93.55 437.75C94.2612 435.66 95.0789 433.607 96 431.6C96.4554 430.637 96.9732 429.705 97.55 428.81C98.47 427.44 102.55 424 102.96 428.53C103.12 431 99.6 433.46 97.88 434.69Z" fill="#263238"/>
<path d="M82.7399 439.66C86.3599 440.25 90.1199 439.25 93.6799 438.74C93.7553 438.721 93.8253 438.684 93.8844 438.634C93.9436 438.583 93.9904 438.52 94.0213 438.448C94.0522 438.377 94.0663 438.3 94.0626 438.222C94.0589 438.144 94.0375 438.068 93.9999 438C94.0144 437.99 94.0262 437.976 94.0343 437.961C94.0424 437.945 94.0467 437.928 94.0467 437.91C94.0467 437.892 94.0424 437.875 94.0343 437.859C94.0262 437.844 94.0144 437.83 93.9999 437.82C91.1788 435.238 87.7314 433.438 83.9999 432.6C81.8099 432.16 78.6999 432.72 78.3499 435.44C77.9999 438 80.6299 439.31 82.7399 439.66ZM80.2499 437.26C77.4699 433.66 82.8299 433.43 84.4299 433.82C85.4517 434.084 86.4541 434.418 87.4299 434.82C89.4515 435.693 91.4273 436.667 93.3499 437.74C91.5799 437.89 89.8399 438.18 88.0799 438.4C85.9999 438.67 81.7899 439.25 80.2499 437.26Z" fill="#263238"/>
<path d="M116.17 217.78C116.17 217.78 115.3 235.78 111.17 249.98C110.84 251.16 110.48 252.31 110.1 253.42C106.335 254.949 102.717 256.817 99.2897 259C99.2897 259 98.8597 273.45 98.4297 289.58C97.9497 307.58 97.4297 327.7 97.5497 331.97C97.9297 347.97 95.5497 435.64 95.5497 435.64L51.2397 435.82C51.2397 435.82 59.2397 337.82 59.2397 332.01C59.1497 322.62 61.3797 281.1 63.1097 250.83C64.1097 232.17 65.0297 217.83 65.0297 217.83L116.17 217.78Z" fill="#37474F"/>
<path d="M93.9999 427.75C87.2299 427.64 89.1699 427.58 82.4099 427.54C79.0899 427.54 57.3299 427.42 54.2399 427.95C54.2214 427.95 54.2036 427.957 54.1904 427.97C54.1773 427.984 54.1699 428.001 54.1699 428.02C54.1699 428.039 54.1773 428.056 54.1904 428.069C54.2036 428.083 54.2214 428.09 54.2399 428.09C57.3299 428.59 79.0999 428.3 82.4099 428.26C89.1799 428.16 87.2299 428.12 93.9999 427.95C94.0264 427.95 94.0519 427.939 94.0706 427.921C94.0894 427.902 94.0999 427.876 94.0999 427.85C94.0999 427.823 94.0894 427.798 94.0706 427.779C94.0519 427.761 94.0264 427.75 93.9999 427.75Z" fill="#263238"/>
<path d="M68.7198 224.2C67.8998 248.92 67.0398 273.64 65.9298 298.34C64.8198 323.04 63.3298 347.92 61.2598 372.64C60.0998 386.46 58.9998 405.9 57.5098 419.64C57.5098 419.73 57.6398 419.77 57.6598 419.64C60.8798 395.12 62.6598 364.81 64.2698 340.13C65.8798 315.45 66.9298 290.75 67.7698 266.05C68.2498 252.05 68.6098 238.05 69.0298 224.11C68.9998 224 68.7298 224 68.7198 224.2Z" fill="#263238"/>
<path d="M112 252.35C107.579 254.196 103.327 256.421 99.2901 259C99.2625 259.022 99.2436 259.053 99.2365 259.087C99.2294 259.122 99.2346 259.157 99.2513 259.188C99.268 259.219 99.2951 259.244 99.3278 259.257C99.3604 259.27 99.3967 259.271 99.4301 259.26C103.7 257.18 108.06 255.18 112.22 252.87C112.273 252.831 112.311 252.776 112.329 252.713C112.346 252.65 112.342 252.583 112.316 252.523C112.291 252.462 112.246 252.413 112.188 252.381C112.131 252.35 112.065 252.339 112 252.35Z" fill="#263238"/>
<path d="M112.21 237.11C111.91 238.68 111.53 240.24 111.21 241.81C110.89 243.38 110.66 244.81 110.27 246.23C109.947 247.633 109.233 248.916 108.21 249.93C107.64 250.46 107 250.93 106.39 251.43L105.39 252.22C105.39 252.01 105.48 251.8 105.51 251.58C105.62 250.98 105.72 250.39 105.82 249.79C106.04 248.46 106.25 247.13 106.46 245.79C106.86 243.17 107.22 240.53 107.77 237.95C107.77 237.84 107.63 237.8 107.61 237.95C106.96 240.51 106.24 243.04 105.67 245.63C105.39 246.9 104.4 253.16 104.36 253.63C104.32 254.1 104.27 254.55 104.26 255.01C104.194 255.474 104.194 255.945 104.26 256.41C104.26 256.53 104.42 256.51 104.47 256.41C104.664 255.977 104.799 255.519 104.87 255.05C104.99 254.61 105.09 254.15 105.17 253.7C105.17 253.54 105.17 253.37 105.24 253.2C105.86 252.83 106.43 252.33 107.01 251.91C107.59 251.49 108.27 251.02 108.85 250.53C109.903 249.594 110.652 248.365 111 247C111.381 245.525 111.628 244.019 111.74 242.5C111.94 240.72 112.08 238.93 112.33 237.16C112.39 237 112.23 237 112.21 237.11Z" fill="#263238"/>
<path d="M96.0002 177.07C99.4302 187.4 114.79 220.24 121.24 222.54C127.96 224.92 153.91 227.89 159.67 223.36C162.49 221.13 163.47 197.36 159.67 197.96C155.87 198.56 132.99 199.39 130.27 198.42C127.55 197.45 109.38 171 102 164.56C89.2702 153.51 94.1702 171.5 96.0002 177.07Z" fill="#F7A9A0"/>
<path d="M153.93 197.56L153.56 227.15C153.56 227.15 126.95 227.22 119.86 223.49C112.77 219.76 97.7698 185.57 94.0198 172.49C90.2698 159.41 96.2698 157.39 105.8 166.99C115.33 176.59 129.66 196.71 131.36 197.12C133.06 197.53 153.93 197.56 153.93 197.56Z" fill="#FE4400"/>
<path d="M118.42 181.61C112.945 182.528 107.643 184.282 102.7 186.81L101.8 187.28C101.57 187.39 101.35 187.51 101.13 187.64C100.69 187.87 100.26 188.11 99.8299 188.37L99.6399 187.89L100.55 187.36L101.21 187.01C101.62 186.78 102.04 186.55 102.46 186.34C104.998 185.023 107.645 183.926 110.37 183.06C112.892 182.243 115.473 181.618 118.09 181.19L118.42 181.61ZM124.36 189.08C123.888 189.327 123.404 189.551 122.91 189.75C121.633 190.288 120.286 190.645 118.91 190.81C118.21 190.89 117.51 191.01 116.81 191.05L114.7 191.11C111.877 191.033 109.092 190.444 106.48 189.37C104.91 188.76 103.38 188.02 101.85 187.28C101.65 187.2 101.46 187.1 101.26 187.01C100.78 186.79 100.26 186.56 99.8099 186.35L99.3399 186.15L98.8999 185.96L99.0699 186.38C99.0699 186.5 99.1699 186.62 99.2099 186.74H99.2999L100.59 187.32L101.17 187.6C102.83 188.39 104.5 189.23 106.24 189.91C108.922 191.013 111.781 191.619 114.68 191.7L116.84 191.65C117.56 191.65 118.28 191.48 118.99 191.4C120.434 191.233 121.847 190.866 123.19 190.31C123.747 190.091 124.291 189.84 124.82 189.56L124.36 189.08ZM114.12 176.34C112.249 177.208 110.429 178.183 108.67 179.26C105.36 181.296 102.223 183.601 99.2899 186.15L99.0199 186.38C99.0199 186.5 99.1199 186.62 99.1599 186.74V186.82C99.1599 186.82 99.1599 186.82 99.2199 186.82C99.3899 186.67 99.5499 186.52 99.7199 186.39C102.601 183.935 105.674 181.715 108.91 179.75C110.703 178.678 112.548 177.696 114.44 176.81L114.12 176.34Z" fill="white"/>
<path d="M146.18 212.17C146.18 209.82 146.35 200.45 146.56 198.17H146.63C146.86 200.43 146.98 209.68 146.97 212.03C147.047 216.703 146.87 221.376 146.44 226.03C146.434 226.045 146.424 226.058 146.411 226.068C146.397 226.077 146.381 226.082 146.365 226.082C146.349 226.082 146.333 226.077 146.319 226.068C146.306 226.058 146.296 226.045 146.29 226.03C145.94 221.42 146.13 216.79 146.18 212.17Z" fill="#263238"/>
<path opacity="0.1" d="M94 172.48C97.75 185.57 112.75 219.75 119.84 223.48C123.24 225.27 131.12 226.19 138.41 226.65L96.65 161C93.08 160.62 91.73 164.49 94 172.48Z" fill="black"/>
<path d="M60.3798 244.47C60.5398 244.63 125.46 240.19 126 239.47C126.76 238.47 106.21 172.47 101.06 162.82C98.8698 158.69 88.3698 158.09 84.2198 162C73.8298 171.77 66.5998 203.36 65.0798 212.83C62.5598 228.45 59.7998 243.9 60.3798 244.47Z" fill="#FF4727"/>
<path d="M122.53 226.34L120.71 225.27C118.257 223.841 115.73 222.542 113.14 221.38L111.72 220.76L111.03 220.48C109.118 219.69 107.157 219.022 105.16 218.48C102.431 217.719 99.6346 217.223 96.8101 217C91.142 216.754 85.4703 217.395 80.0001 218.9L79.0001 219.18C78.7501 219.24 78.5101 219.31 78.2701 219.39C74.4585 220.555 70.7548 222.047 67.2001 223.85C66.2001 224.32 65.2001 224.85 64.2801 225.34L63.9801 225.5L62.8801 226.09L62.9701 225.58L64.1001 225C65.2201 224.39 66.3501 223.8 67.4901 223.25C68.4301 222.77 69.3901 222.32 70.3501 221.89C72.7648 220.782 75.2424 219.817 77.7701 219L78.5001 218.79C78.9501 218.64 79.4001 218.51 79.8601 218.39C82.6149 217.615 85.4323 217.083 88.2801 216.8C91.1225 216.491 93.9855 216.418 96.8401 216.58C101.861 217.009 106.78 218.241 111.41 220.23L112.09 220.53L113.28 221.06C115.874 222.255 118.401 223.59 120.85 225.06L122.41 225.98L122.53 226.34ZM119.17 215.34C117.51 216.34 115.89 217.34 114.28 218.4C113.28 219.02 112.37 219.65 111.41 220.26L111.03 220.51C109.72 221.35 108.39 222.16 107.03 222.92C104.595 224.343 101.943 225.357 99.1801 225.92C97.8 226.185 96.3897 226.255 94.9901 226.13C94.2901 226.06 93.5801 226.04 92.8901 225.94L90.8101 225.57C88.0635 224.912 85.4583 223.764 83.1201 222.18C81.7101 221.26 80.3701 220.18 79.0101 219.18L78.4901 218.79C78.0701 218.47 77.6401 218.15 77.2101 217.85L76.8001 217.55L76.2001 217.14C73.818 215.444 70.9921 214.481 68.0701 214.37C66.9172 214.391 65.7781 214.625 64.7101 215.06L64.6201 215.6C65.7111 215.145 66.8783 214.901 68.0601 214.88C70.8759 215.015 73.5907 215.971 75.8701 217.63L76.2201 217.87L76.6301 218.16C77.0101 218.43 77.3901 218.71 77.7601 219L78.2801 219.39C79.7501 220.51 81.2101 221.67 82.7801 222.69C85.1745 224.317 87.8444 225.496 90.6601 226.17L92.8001 226.56C93.5101 226.66 94.2301 226.69 94.9501 226.76C96.3996 226.885 97.8594 226.814 99.2901 226.55C102.11 225.967 104.813 224.919 107.29 223.45C108.78 222.61 110.23 221.7 111.66 220.76L112.03 220.53L114.55 218.88C116.11 217.88 117.69 216.88 119.29 215.88L119.17 215.34ZM118.07 211.8C116.333 211.239 114.567 210.771 112.78 210.4C109.967 209.831 107.1 209.569 104.23 209.62C101.36 209.674 98.4989 209.975 95.6801 210.52C92.863 211.051 90.0914 211.8 87.3901 212.76C83.7368 214.073 80.1981 215.685 76.8101 217.58C76.6101 217.68 76.4201 217.79 76.2301 217.9C74.8101 218.69 73.4201 219.51 72.0401 220.36C70.5101 221.3 68.9901 222.27 67.4901 223.25C66.3201 224 65.1601 224.77 64.0001 225.53L62.8801 226.26C62.8801 226.42 62.8301 226.57 62.8101 226.72C64.2901 225.78 65.7501 224.82 67.2201 223.88C68.2201 223.21 69.3001 222.54 70.3501 221.88C70.9801 221.48 71.6101 221.09 72.2501 220.71C73.6901 219.84 75.1601 218.99 76.6401 218.18L77.2201 217.87C80.5394 216.052 84.0007 214.507 87.5701 213.25C92.9275 211.342 98.5465 210.269 104.23 210.07C107.071 210.004 109.911 210.246 112.7 210.79C114.563 211.165 116.402 211.646 118.21 212.23C118.16 212.06 118.11 211.91 118.07 211.77V211.8Z" fill="white"/>
<path d="M75.4998 169.5C58.2698 188.5 38.8398 220.61 47.1498 227.5C54.7498 233.76 82.4698 227.8 99.8998 220.99C103.22 219.69 89.7598 190.35 86.3798 192.09C82.821 193.985 79.1472 195.655 75.3798 197.09C74.3798 197.35 79.6598 190.95 85.4998 175.57C91.3998 159.86 85.3498 158.63 75.4998 169.5Z" fill="#F7A9A0"/>
<path d="M128.73 189.87C128.73 193.28 120.34 192.61 120.34 192.61C121.563 193.406 122.469 194.606 122.9 196C123.53 198.51 119.9 200.61 119.9 200.61C120.99 201.703 121.731 203.095 122.03 204.61C122.39 207.07 119.03 209.72 119.03 209.72C119.474 211.291 119.34 212.97 118.65 214.45C116.65 218.34 109.93 218.45 105.78 219.29C101.13 220.365 96.5748 221.817 92.1599 223.63L84.4399 192.98C84.4399 192.98 102.44 182.29 107.44 182.53C111.66 182.82 128.71 184.65 128.73 189.87Z" fill="#F7A9A0"/>
<path d="M120.27 192.51C115.81 191.21 111.05 190.99 106.46 190.82C106.36 190.82 106.35 190.97 106.46 190.98C111.04 191.09 115.69 192.43 120.24 192.73C120.269 192.734 120.299 192.727 120.322 192.709C120.346 192.691 120.361 192.664 120.365 192.635C120.369 192.606 120.361 192.577 120.344 192.553C120.326 192.53 120.299 192.514 120.27 192.51Z" fill="#263238"/>
<path d="M119.75 200.3C118.709 200.104 117.646 200.047 116.59 200.13C115.47 200.13 114.35 200.18 113.23 200.23C110.983 200.33 108.743 200.49 106.51 200.71C106.41 200.71 106.4 200.87 106.51 200.87C108.75 200.77 110.99 200.7 113.22 200.69H116.58C117.637 200.777 118.7 200.744 119.75 200.59C119.778 200.577 119.801 200.557 119.817 200.531C119.834 200.505 119.842 200.476 119.842 200.445C119.842 200.415 119.834 200.385 119.817 200.359C119.801 200.334 119.778 200.313 119.75 200.3Z" fill="#263238"/>
<path d="M118.87 209.81C117.927 209.645 116.963 209.645 116.02 209.81L113 210C111 210.11 108.91 210.23 106.86 210.27C106.839 210.27 106.818 210.278 106.803 210.293C106.788 210.308 106.78 210.329 106.78 210.35C106.78 210.371 106.788 210.391 106.803 210.406C106.818 210.421 106.839 210.43 106.86 210.43C108.94 210.43 111.02 210.43 113.1 210.34L116.16 210.25C117.092 210.306 118.027 210.195 118.92 209.92C118.934 209.913 118.946 209.901 118.951 209.886C118.957 209.871 118.956 209.854 118.95 209.84C118.943 209.825 118.931 209.814 118.916 209.808C118.901 209.803 118.884 209.803 118.87 209.81Z" fill="#263238"/>
<path d="M83.5699 192.73L90.2099 225.73C90.2099 225.73 48.9399 236.5 44.6599 226.06C40.3799 215.62 64.6599 176.85 78.6599 165.79C92.6599 154.73 87.3999 172.15 86.9699 173.55C85.0799 179.74 76.2799 195.88 76.2799 195.88L83.5699 192.73Z" fill="#FF4727"/>
<path d="M90.2102 225.69C90.2102 225.69 48.9402 236.46 44.6602 226.02C42.3602 220.4 48.3202 206.59 56.4902 193.3L56.6202 193.09L56.7902 192.82C56.8402 192.73 56.9002 192.64 56.9602 192.55C59.9107 187.794 63.1015 183.191 66.5202 178.76L66.8702 178.31C70.3137 173.698 74.2615 169.485 78.6402 165.75C92.6402 154.69 87.3802 172.11 86.9502 173.51C86.8202 173.95 86.6502 174.44 86.4502 174.97C86.3702 175.17 86.2902 175.39 86.2002 175.61C85.0502 178.55 83.2002 182.51 81.3302 186.15L81.1102 186.59C81.1102 186.59 81.1102 186.69 81.0402 186.73L80.9202 186.96C78.5502 191.63 76.4002 195.59 76.2702 195.83L83.5702 192.73L90.2102 225.69Z" fill="#FE4400"/>
<path d="M81.33 186.15L81.11 186.59C81.11 186.59 81.11 186.69 81.04 186.73L80.54 187.05L76.47 189.7C74.0813 191.273 71.5852 192.677 69 193.9C67.6913 194.504 66.3195 194.96 64.91 195.26C63.4831 195.593 61.9943 195.548 60.59 195.13C60.24 195.03 59.88 194.95 59.59 194.84L58.59 194.41C57.9254 194.127 57.2835 193.792 56.67 193.41L56.52 193.32L56.65 193.11L56.82 192.84C56.8651 192.883 56.9155 192.92 56.97 192.95L57.11 193.03C57.649 193.385 58.2178 193.693 58.81 193.95L59.81 194.37L60.81 194.66C62.1404 195.066 63.5536 195.117 64.91 194.81C66.2868 194.524 67.6281 194.088 68.91 193.51C71.4776 192.315 73.9601 190.945 76.34 189.41L79.59 187.33L80.44 186.78L81.33 186.15ZM80.33 186.76C75.2 188.01 70.17 189.6 65.05 190.85C62.37 191.52 59.65 192.11 56.92 192.55C56.86 192.64 56.8 192.73 56.75 192.82L56.58 193.09L57.04 193.01C59.77 192.55 62.48 191.94 65.16 191.26C69.97 190.05 74.69 188.55 79.48 187.31L80.48 187.05C80.6 187.05 80.73 186.98 80.86 186.96L80.98 186.73C80.98 186.73 80.98 186.64 81.05 186.59L80.33 186.76ZM80.66 178.45C79.4154 179.121 78.1136 179.68 76.77 180.12C75.4526 180.569 74.0578 180.746 72.67 180.64C70.5644 180.344 68.5612 179.545 66.83 178.31L66.48 178.76C68.301 180.039 70.404 180.859 72.61 181.15C74.0713 181.256 75.5387 181.059 76.92 180.57C78.3047 180.12 79.644 179.541 80.92 178.84C82.7372 177.854 84.5028 176.776 86.21 175.61C86.3 175.39 86.38 175.17 86.46 174.97C84.6018 176.23 82.6792 177.391 80.7 178.45H80.66Z" fill="white"/>
<path d="M82.8601 192.76C78.1201 194.42 65.7001 200.62 62.9701 203.16C62.9584 203.176 62.952 203.194 62.9517 203.213C62.9514 203.233 62.9572 203.252 62.9684 203.267C62.9796 203.283 62.9955 203.294 63.0138 203.3C63.0321 203.306 63.0519 203.306 63.0701 203.3C65.7501 201.41 81.0701 193.9 83.5001 192.98C83.5001 192.98 83.6201 193.27 83.6701 193.35C83.7201 193.43 83.8101 193.4 83.8101 193.29C83.7677 193.02 83.7075 192.753 83.6301 192.49L82.8601 192.76Z" fill="#263238"/>
<path d="M79.3302 211.2C78.8802 208.9 77.1602 199.68 76.9102 197.36C76.9102 197.36 76.9102 197.31 76.9702 197.36C77.6502 199.52 79.6102 208.57 80.0702 210.87C81.0876 215.445 81.852 220.072 82.3602 224.73C82.3602 224.81 82.2402 224.86 82.2102 224.73C81.0002 220.31 80.2102 215.73 79.3302 211.2Z" fill="#263238"/>
<path d="M75.9398 196C77.2298 193.19 78.8098 190.52 80.2298 187.78C81.6498 185.04 83.1198 182.32 84.4398 179.55H84.4997C83.6997 181.44 82.8998 183.33 82.0398 185.19C82.2998 184.9 82.5397 184.59 82.7797 184.28C83.2197 183.72 83.6197 183.13 84.0197 182.54C84.0197 182.54 84.0898 182.54 84.0798 182.54C83.7684 183.202 83.3826 183.826 82.9297 184.4C82.595 184.832 82.2272 185.236 81.8298 185.61C81.4798 186.37 81.1098 187.13 80.7298 187.88C79.4985 190.672 78.0577 193.366 76.4197 195.94C76.3597 196.13 75.8898 196.13 75.9398 196Z" fill="#263238"/>
<path d="M62.24 230.34C67.11 230.28 85.5 226.67 90.05 225.73C89.99 225.25 90.05 225.08 89.93 224.4C89.93 224.31 90.06 224.27 90.08 224.4C90.2 225.05 90.64 226.34 90.46 226.4C88.27 227.26 67.02 230.97 62.24 230.57C62.2249 230.57 62.2099 230.567 62.196 230.561C62.182 230.556 62.1694 230.547 62.1587 230.536C62.148 230.526 62.1395 230.513 62.1338 230.499C62.128 230.485 62.125 230.47 62.125 230.455C62.125 230.44 62.128 230.425 62.1338 230.411C62.1395 230.397 62.148 230.384 62.1587 230.374C62.1694 230.363 62.182 230.355 62.196 230.349C62.2099 230.343 62.2249 230.34 62.24 230.34Z" fill="#263238"/>
<path d="M111.76 227.01L146 231.62L158.99 184.03L124.75 179.43L111.76 227.01Z" fill="#263238"/>
<path d="M113.45 227.23L147.68 231.84L160.67 184.26L143.555 181.955L126.44 179.65L113.45 227.23Z" fill="#A8A8D0"/>
<path d="M141.84 204.23C141.626 205.119 141.094 205.899 140.344 206.422C139.594 206.945 138.678 207.176 137.77 207.07C137.341 207.025 136.928 206.887 136.557 206.668C136.186 206.448 135.867 206.151 135.621 205.798C135.375 205.444 135.209 205.041 135.133 204.617C135.057 204.193 135.073 203.757 135.18 203.34C135.394 202.45 135.925 201.669 136.675 201.144C137.425 200.619 138.341 200.386 139.25 200.49C139.679 200.535 140.094 200.672 140.466 200.892C140.837 201.113 141.157 201.41 141.403 201.765C141.649 202.121 141.815 202.525 141.891 202.95C141.966 203.375 141.949 203.812 141.84 204.23Z" fill="white"/>
<path d="M160.33 194.07C161.76 198.07 165.84 203.28 165.9 206.44C165.941 207.219 165.73 207.989 165.3 208.639C164.87 209.289 164.242 209.784 163.51 210.05C163.51 210.05 166.51 211.92 166.04 214.79C165.83 216.27 163.27 217.23 163.27 217.23C163.917 217.689 164.425 218.317 164.737 219.046C165.05 219.775 165.154 220.576 165.04 221.36C164.62 223.36 162.12 224.03 162.12 224.03C162.12 224.03 163.62 226.6 162.53 228.52C160.31 232.41 142.7 230.62 140.64 223.85C139.64 220.7 143.95 221.37 143.95 221.37C143.95 221.37 138.03 218.92 138.31 215.28C138.59 211.64 144.09 212.84 144.09 212.84C144.09 212.84 138.38 210.42 139.09 206.67C139.8 202.92 145.09 204.92 145.09 204.92C145.09 204.92 141.44 201.92 142.61 199.12C144.54 194.57 151.36 201.23 155.32 200.7L158.11 194.53L160.33 194.07Z" fill="#F7A9A0"/>
<path d="M163.3 200C162.3 196.09 167.42 191.91 166.98 188C166.39 182.75 160.1 187.2 158.06 194.52L157.47 200.52L163.3 200Z" fill="#F7A9A0"/>
<path d="M161.75 224.19C161.763 224.19 161.776 224.195 161.785 224.205C161.795 224.214 161.8 224.227 161.8 224.24C161.8 224.253 161.795 224.266 161.785 224.276C161.776 224.285 161.763 224.29 161.75 224.29C155.592 225.156 149.316 224.135 143.75 221.36C143.57 221.27 143.65 220.94 143.86 221.01C149.638 222.933 155.664 224.004 161.75 224.19Z" fill="#263238"/>
<path d="M163.35 217.27C163.42 217.27 163.42 217.39 163.35 217.4C156.54 218.304 149.631 216.743 143.87 213C143.67 212.86 143.63 212.54 143.87 212.68C147.9 215 157.63 217.18 163.35 217.27Z" fill="#263238"/>
<path d="M144.71 204.5C150.38 208.11 156.63 209.5 163.26 210.09C163.34 210.09 163.33 210.22 163.26 210.23C159.94 210.85 155.75 210.06 152.55 209.17C149.554 208.403 146.812 206.862 144.6 204.7C144.5 204.61 144.59 204.42 144.71 204.5Z" fill="#263238"/>
<path d="M102.27 165.36C102.39 168.36 102.48 175.17 97.86 174.66C96.003 174.291 94.2915 173.395 92.93 172.08C91.4726 170.87 90.1545 169.502 89 168C87.6757 166.369 86.4852 164.633 85.44 162.81C85.44 162.74 85.28 162.81 85.33 162.89C86.39 164.72 87.27 166.61 88.51 168.34C89.6809 170.017 91.0735 171.527 92.65 172.83C94.1305 174.205 95.9983 175.092 98 175.37C98.8585 175.431 99.7113 175.192 100.413 174.694C101.115 174.196 101.623 173.47 101.85 172.64C102.533 170.275 102.676 167.788 102.27 165.36Z" fill="#263238"/>
<path d="M97.7198 171.65C94.3798 171.94 88.9198 165.65 87.3198 161.38C87.7394 159.155 88.2701 156.952 88.9098 154.78C89.4198 152.67 89.9098 150.3 90.2698 148.11L103.53 153.46C102.346 156.089 101.486 158.853 100.97 161.69C100.94 161.992 100.94 162.297 100.97 162.6C100.97 162.6 100.97 162.7 100.97 162.75C101 164.5 100.94 171.37 97.7198 171.65Z" fill="#F7A9A0"/>
<path d="M100.93 162.6C100.935 162.65 100.935 162.7 100.93 162.75C100.454 162.747 99.9793 162.707 99.5098 162.63C91.5698 161.28 91.1198 151.27 91.1598 148.48L94.4798 149.81L103.48 153.46C102.296 156.089 101.44 158.853 100.93 161.69C100.901 161.993 100.901 162.297 100.93 162.6Z" fill="#263238"/>
<path d="M88.7501 133.11C87.3701 138.11 90.3301 152.24 93.9101 155.32C99.1101 159.8 107.43 160.03 111.19 153.82C114.83 147.82 110.65 129.41 106.66 126.63C100.79 122.52 90.7801 125.77 88.7501 133.11Z" fill="#F7A9A0"/>
<path d="M102.72 142.05C102.72 142.05 102.66 142.11 102.72 142.15C102.94 143.1 103.04 144.23 102.24 144.72C102.24 144.72 102.24 144.78 102.24 144.77C103.23 144.41 103.09 142.92 102.72 142.05Z" fill="#263238"/>
<path d="M101.67 141.23C100.11 141.43 100.67 144.53 102.06 144.35C103.45 144.17 103 141.07 101.67 141.23Z" fill="#263238"/>
<path d="M108.15 141C108.15 141 108.24 141 108.24 141.08C108.37 142.08 108.68 143.13 109.6 143.31V143.36C108.51 143.36 108.12 141.92 108.15 141Z" fill="#263238"/>
<path d="M108.85 139.84C110.38 139.47 111.01 142.55 109.59 142.84C108.17 143.13 107.57 140.15 108.85 139.84Z" fill="#263238"/>
<path d="M100.21 140C100.6 139.819 100.978 139.612 101.34 139.38C101.759 139.217 102.112 138.918 102.34 138.53C102.391 138.392 102.396 138.24 102.352 138.099C102.309 137.958 102.22 137.836 102.1 137.75C101.838 137.616 101.545 137.555 101.251 137.573C100.958 137.59 100.674 137.686 100.43 137.85C99.8876 138.107 99.4599 138.556 99.2299 139.11C99.1786 139.244 99.1688 139.39 99.2018 139.529C99.2349 139.668 99.3093 139.794 99.4153 139.891C99.5213 139.987 99.6538 140.049 99.7957 140.068C99.9375 140.088 100.082 140.064 100.21 140Z" fill="#263238"/>
<path d="M109.85 138.89C109.41 138.89 109 138.81 108.56 138.77C108.101 138.791 107.648 138.661 107.27 138.4C107.169 138.293 107.106 138.156 107.09 138.01C107.074 137.864 107.105 137.717 107.18 137.59C107.367 137.364 107.611 137.192 107.887 137.092C108.163 136.992 108.461 136.967 108.75 137.02C109.353 137.036 109.928 137.279 110.36 137.7C110.452 137.801 110.514 137.926 110.537 138.061C110.56 138.196 110.543 138.334 110.489 138.46C110.436 138.586 110.347 138.693 110.233 138.769C110.12 138.846 109.987 138.888 109.85 138.89Z" fill="#263238"/>
<path d="M102.86 151.05C103.104 151.296 103.425 151.451 103.77 151.49C104.129 151.421 104.469 151.278 104.77 151.07C104.77 151.07 104.84 151.07 104.77 151.12C104.661 151.331 104.498 151.509 104.298 151.635C104.097 151.762 103.867 151.833 103.63 151.84C103.426 151.818 103.234 151.738 103.076 151.608C102.918 151.478 102.801 151.305 102.74 151.11C102.76 151.06 102.83 151 102.86 151.05Z" fill="#263238"/>
<path d="M103.4 147.78C103.708 148.12 104.083 148.393 104.501 148.582C104.919 148.772 105.371 148.873 105.83 148.88C106.231 148.888 106.631 148.841 107.02 148.74L107.24 148.68L107.44 148.61C107.491 148.592 107.534 148.558 107.563 148.513C107.592 148.467 107.605 148.414 107.6 148.36C107.606 148.327 107.606 148.293 107.6 148.26V148.18C107.5 147.43 107.24 146.32 107.24 146.32C107.53 146.41 109.02 146.81 108.93 146.42C108.3 143.097 107.332 139.846 106.04 136.72C106.034 136.702 106.022 136.687 106.007 136.676C105.992 136.665 105.974 136.66 105.955 136.66C105.936 136.66 105.918 136.665 105.903 136.676C105.888 136.687 105.876 136.702 105.87 136.72C106.43 139.8 107.54 142.72 108.16 145.83C107.63 145.682 107.081 145.611 106.53 145.62C106.43 145.62 107.07 147.76 107.08 148.1C106.483 148.259 105.861 148.297 105.249 148.211C104.638 148.126 104.05 147.918 103.52 147.6C103.4 147.63 103.33 147.71 103.4 147.78Z" fill="#263238"/>
<path d="M106.58 148.56C106.261 149.142 105.8 149.634 105.24 149.99C104.938 150.166 104.589 150.246 104.24 150.22C103.45 150.15 103.32 149.46 103.36 148.84C103.381 148.5 103.445 148.164 103.55 147.84C104.459 148.392 105.519 148.644 106.58 148.56Z" fill="#263238"/>
<path d="M105.24 150C104.938 150.176 104.589 150.256 104.24 150.23C103.45 150.16 103.32 149.47 103.36 148.85C103.756 148.806 104.156 148.896 104.496 149.104C104.837 149.312 105.098 149.627 105.24 150Z" fill="#FF9ABB"/>
<path d="M109.38 130.76C108.58 129.65 107.7 128.54 106.9 128.45C106.1 128.36 106.01 130.28 104.35 130.76C102.1 131.4 100.55 129.55 97.3498 130.01C92.6998 130.68 91.5098 134.94 92.7998 141.45C93.9498 147.27 90.5698 148.57 90.5698 148.57C90.5698 148.57 85.6898 136.24 88.3798 131.23C91.0698 126.22 98.9398 122.57 105.38 125.42C107.67 126.45 109.38 130.76 109.38 130.76Z" fill="#263238"/>
<path d="M92.9198 145.34C92.9198 145.34 89.4898 140.89 87.4598 142.13C85.4298 143.37 88.1398 149.93 90.6398 150.73C90.9516 150.856 91.2856 150.917 91.6216 150.909C91.9576 150.902 92.2885 150.826 92.5943 150.686C92.9002 150.547 93.1745 150.347 93.4006 150.098C93.6267 149.85 93.8 149.558 93.9098 149.24L92.9198 145.34Z" fill="#F7A9A0"/>
<path d="M88.2798 144C88.2798 144 88.2798 144 88.2798 144.07C89.0843 144.428 89.805 144.949 90.3957 145.602C90.9865 146.255 91.4341 147.024 91.7098 147.86C91.6016 147.692 91.4584 147.55 91.29 147.443C91.1216 147.336 90.932 147.267 90.7343 147.241C90.5366 147.214 90.3355 147.23 90.1448 147.289C89.9541 147.348 89.7784 147.447 89.6298 147.58C89.6298 147.58 89.6298 147.68 89.6798 147.67C89.9778 147.558 90.3033 147.541 90.6113 147.622C90.9193 147.702 91.1948 147.876 91.3998 148.12C91.7309 148.535 92.0222 148.98 92.2698 149.45C92.3498 149.6 92.6298 149.51 92.5598 149.33C92.4898 147.09 90.6498 144.1 88.2798 144Z" fill="#263238"/>
<path d="M100.71 123.66C98.7591 123.104 96.7384 122.831 94.7099 122.85C92.4199 122.92 85.4499 124.57 83.9799 126.25C82.5099 127.93 83.1099 134.65 83.2199 135.63C83.3299 136.61 84.6799 142.42 87.0399 143.51C89.3999 144.6 88.0399 134.57 90.8699 130.73C93.6999 126.89 100.71 123.66 100.71 123.66Z" fill="#FE4400"/>
<path opacity="0.1" d="M100.71 123.67C100.71 123.67 93.7097 126.89 90.8197 130.73C87.9297 134.57 89.3397 144.59 86.9997 143.51C86.4543 143.209 85.9737 142.803 85.5859 142.316C85.198 141.828 84.9104 141.269 84.7397 140.67C84.7397 137.67 85.1897 132.97 87.1297 129.45C88.9497 126.16 92.6398 124.05 96.7598 122.92C98.0957 123.055 99.4173 123.306 100.71 123.67Z" fill="black"/>
<path d="M88.4999 149.35C88.2699 146.66 89.8599 139.1 92.0599 134.57C94.2599 130.04 102.23 126.35 103.4 126.23C106.26 125.95 107.1 127.23 107.51 126.88C107.92 126.53 104.58 123.78 103.7 123.43C102.387 123.007 100.996 122.884 99.6299 123.07C98.3999 123.29 90.9299 125.24 88.6799 128.91C86.4299 132.58 83.9999 142.27 84.9999 144.48C85.2599 145.01 85.9999 145.25 86.4099 146.01C86.8899 147.01 87.2899 148.16 87.7199 148.84C88.1499 149.52 88.5199 149.58 88.4999 149.35Z" fill="#FE4400"/>
<path d="M92.4197 132.64C91.7259 132.341 91.0571 131.986 90.4197 131.58C89.7495 131.178 89.1315 130.694 88.5797 130.14C88.5797 130.14 88.4697 130.14 88.5097 130.2C88.9946 130.842 89.5785 131.402 90.2397 131.86C90.904 132.304 91.6475 132.617 92.4297 132.78C92.4483 132.779 92.4656 132.77 92.4778 132.756C92.49 132.742 92.4961 132.724 92.4947 132.705C92.4934 132.687 92.4848 132.669 92.4707 132.657C92.4566 132.645 92.4383 132.639 92.4197 132.64Z" fill="#263238"/>
<path d="M88.0598 146.69C87.9498 146.51 87.7998 146.36 87.6798 146.19C87.5382 145.998 87.4206 145.79 87.3298 145.57C87.2058 145.139 87.0348 144.723 86.8198 144.33C86.5979 144.038 86.3428 143.773 86.0598 143.54C85.7206 143.295 85.474 142.943 85.3598 142.54H85.2798C85.3998 143.35 86.0298 143.84 86.4898 144.46C86.7237 144.885 86.9178 145.33 87.0698 145.79C87.2468 146.21 87.5557 146.561 87.9498 146.79C87.9998 146.82 88.0898 146.76 88.0598 146.69Z" fill="#263238"/>
<path d="M88.5199 143.67C88.2199 143.41 87.9099 143.18 87.6299 142.89C87.3499 142.6 87.1299 142.29 86.8999 141.98C86.6699 141.67 86.4899 141.34 86.2699 140.98C86.0499 140.62 85.7199 140.27 85.4799 139.88C85.4799 139.88 85.3799 139.88 85.4099 139.94C85.6599 140.33 85.8299 140.78 86.0599 141.18C86.266 141.527 86.4931 141.861 86.7399 142.18C86.9732 142.49 87.2343 142.778 87.5199 143.04C87.8057 143.315 88.1466 143.526 88.5199 143.66C88.5199 143.66 88.5399 143.69 88.5199 143.67Z" fill="#263238"/>
<path d="M89.0799 140.92C88.4461 140.538 87.8731 140.062 87.3799 139.51C86.8999 138.97 86.4399 138.4 85.9999 137.83C85.9999 137.83 85.8999 137.83 85.9299 137.83C86.257 138.507 86.6704 139.139 87.1599 139.71C87.3978 139.99 87.6699 140.238 87.9699 140.45C88.2948 140.666 88.6397 140.85 88.9999 141C88.9999 141 89.1299 141 89.0799 140.92Z" fill="#263238"/>
<path d="M89.7399 138.26C89.4338 138.114 89.1587 137.911 88.9299 137.66C88.6499 137.4 88.3799 137.13 88.1199 136.85C87.8599 136.58 87.5999 136.33 87.3499 136.06C87.0798 135.807 86.8653 135.501 86.7199 135.16C86.7199 135.16 86.6299 135.16 86.6399 135.16C86.7184 135.525 86.8792 135.867 87.1099 136.16C87.3328 136.516 87.5872 136.85 87.8699 137.16C88.1496 137.448 88.4468 137.719 88.7599 137.97C89.0244 138.212 89.3554 138.369 89.7099 138.42C89.7204 138.422 89.7312 138.422 89.7417 138.42C89.7522 138.418 89.7621 138.413 89.7709 138.407C89.7797 138.401 89.7873 138.394 89.7931 138.385C89.7989 138.376 89.803 138.366 89.8049 138.355C89.8069 138.345 89.8068 138.334 89.8046 138.323C89.8024 138.313 89.7981 138.303 89.7921 138.294C89.7861 138.285 89.7784 138.278 89.7694 138.272C89.7605 138.266 89.7504 138.262 89.7399 138.26Z" fill="#263238"/>
<path d="M90 135C89.7067 134.8 89.4267 134.59 89.16 134.37C88.9 134.14 88.64 133.91 88.39 133.67C88.14 133.43 87.85 133.17 87.6 132.9C87.6 132.9 87.5 132.9 87.53 132.95C87.7205 133.265 87.9379 133.563 88.18 133.84C88.419 134.111 88.6763 134.365 88.95 134.6C89.2213 134.836 89.5086 135.053 89.81 135.25C90.106 135.476 90.447 135.636 90.81 135.72C90.8183 135.714 90.8251 135.707 90.8297 135.698C90.8344 135.69 90.8369 135.68 90.8369 135.67C90.8369 135.66 90.8344 135.65 90.8297 135.642C90.8251 135.633 90.8183 135.625 90.81 135.62C90.5597 135.389 90.2886 135.181 90 135Z" fill="#263238"/>
<path d="M94.2298 130.8C93.9098 130.52 93.5998 130.24 93.2298 129.98C92.8598 129.72 92.5198 129.49 92.1398 129.27C91.4221 128.83 90.6574 128.471 89.8598 128.2C89.8598 128.2 89.7698 128.25 89.8598 128.28C91.2798 129.16 92.7498 129.98 94.1698 130.88C94.1804 130.888 94.1938 130.892 94.2069 130.89C94.22 130.888 94.2319 130.881 94.2398 130.87C94.2478 130.86 94.2512 130.846 94.2493 130.833C94.2474 130.82 94.2404 130.808 94.2298 130.8Z" fill="#263238"/>
<path d="M95.4802 128.27C95.1713 128.001 94.8363 127.763 94.4802 127.56C93.6911 127.163 92.859 126.857 92.0002 126.65C91.9402 126.65 91.9102 126.71 92.0002 126.73C92.7702 127.08 93.5402 127.42 94.2802 127.81C94.6402 128.01 95.0102 128.21 95.3502 128.44C95.6902 128.67 95.9802 128.98 96.3502 129.23C96.3502 129.23 96.4202 129.23 96.3502 129.23C96.1286 128.854 95.8326 128.527 95.4802 128.27Z" fill="#263238"/>
<path d="M97.53 126.88C97.2238 126.604 96.8885 126.363 96.53 126.16C95.8756 125.763 95.1589 125.479 94.41 125.32C94.41 125.32 94.34 125.39 94.41 125.41C95.1056 125.682 95.775 126.017 96.41 126.41C96.73 126.61 97.05 126.83 97.41 127.05C97.77 127.27 98.02 127.55 98.35 127.73C98.35 127.73 98.4 127.73 98.35 127.73C98.1043 127.421 97.8297 127.136 97.53 126.88Z" fill="#263238"/>
<path d="M98.9199 125.3C98.6099 125.12 98.2799 124.95 97.9199 124.79C97.6072 124.615 97.2702 124.487 96.9199 124.41V124.5L98.7399 125.57C99.2757 125.941 99.7717 126.367 100.22 126.84C100.22 126.84 100.28 126.84 100.22 126.84C99.9522 126.207 99.4989 125.67 98.9199 125.3Z" fill="#263238"/>
<path d="M100.85 124.56C100.258 124.163 99.5964 123.881 98.8998 123.73C98.8498 123.73 98.8298 123.8 98.8998 123.82C99.5512 124.058 100.162 124.395 100.71 124.82C101.265 125.223 101.775 125.686 102.23 126.2C102.23 126.2 102.3 126.2 102.28 126.2C101.944 125.545 101.453 124.982 100.85 124.56Z" fill="#263238"/>
<path d="M105.28 125.23C105.096 125.046 104.903 124.873 104.7 124.71C104.497 124.549 104.283 124.402 104.06 124.27C103.83 124.13 103.6 124 103.38 123.85C103.38 123.85 103.28 123.9 103.38 123.93C103.614 124.066 103.835 124.223 104.04 124.4L104.62 124.88L105.21 125.36C105.395 125.54 105.592 125.707 105.8 125.86C105.651 125.631 105.477 125.42 105.28 125.23Z" fill="#263238"/>
<path d="M166.43 106.31C166.013 110.317 164.491 114.13 162.033 117.321C159.575 120.513 156.278 122.959 152.51 124.385C148.742 125.812 144.652 126.163 140.697 125.399C136.741 124.635 133.076 122.787 130.11 120.06L119.23 121.66L124.67 112.26C123.424 109.202 122.89 105.9 123.111 102.605C123.331 99.3094 124.299 96.1077 125.942 93.2426C127.584 90.3774 129.858 87.9242 132.59 86.069C135.322 84.2139 138.441 83.0056 141.71 82.5359C144.979 82.0662 148.312 82.3475 151.456 83.3584C154.6 84.3692 157.473 86.0831 159.856 88.3699C162.238 90.6566 164.069 93.4562 165.208 96.5561C166.347 99.656 166.765 102.975 166.43 106.26V106.31Z" fill="white"/>
<path d="M166.43 106.31C166.006 110.311 164.487 114.117 162.04 117.31C160.844 118.923 159.407 120.343 157.78 121.52C156.178 122.739 154.41 123.722 152.53 124.44C150.654 125.174 148.685 125.646 146.68 125.84C145.682 125.924 144.68 125.944 143.68 125.9C142.673 125.868 141.671 125.761 140.68 125.58C136.672 124.845 132.949 123.006 129.93 120.27L130.18 120.35L119.29 122L118.5 122.12L118.9 121.43L124.31 112V112.38C123.03 109.265 122.483 105.898 122.71 102.538C122.937 99.1776 123.933 95.9146 125.62 93C127.315 90.101 129.643 87.6226 132.43 85.75C135.899 83.4638 139.945 82.2068 144.099 82.1244C148.253 82.0421 152.346 83.1378 155.903 85.2847C159.46 87.4316 162.337 90.5419 164.2 94.2557C166.063 97.9695 166.836 102.135 166.43 106.27V106.31ZM166.43 106.31C166.777 103.036 166.368 99.7265 165.235 96.6357C164.101 93.5448 162.274 90.7554 159.892 88.4823C157.511 86.2091 154.64 84.5129 151.499 83.5243C148.359 82.5357 145.034 82.281 141.78 82.78C138.549 83.2628 135.471 84.477 132.78 86.33C130.122 88.1975 127.9 90.62 126.27 93.43C124.671 96.247 123.728 99.3882 123.51 102.62C123.313 105.854 123.836 109.092 125.04 112.1L125.12 112.29L125.02 112.47L119.54 121.85L119.16 121.28L130.04 119.75H130.19L130.3 119.85C133.204 122.57 136.809 124.426 140.71 125.21C141.698 125.413 142.702 125.533 143.71 125.57C144.709 125.642 145.711 125.642 146.71 125.57C148.697 125.416 150.652 124.985 152.52 124.29C154.397 123.612 156.163 122.658 157.76 121.46C158.567 120.873 159.335 120.235 160.06 119.55C160.771 118.841 161.439 118.09 162.06 117.3C164.499 114.108 166.011 110.305 166.43 106.31Z" fill="#263238"/>
<path d="M142.26 116.45L132.98 107.05L136.1 103.97L141.52 109.46L152.79 91.79L156.49 94.15L142.26 116.45Z" fill="#FF4727"/>
</svg>
