<svg width="896" height="827" viewBox="0 0 896 827" fill="none" xmlns="http://www.w3.org/2000/svg">
<path d="M466.065 258.864C466.065 258.864 413.416 201.178 330.06 203.938C246.705 206.697 175.603 262.591 116.82 306.322C58.0374 350.054 42.2792 417.979 76.4504 471.008C110.622 524.038 165.076 501.715 234.399 536.135C303.722 570.555 316.891 590.106 394.113 581.736C471.335 573.367 530.118 487.761 521.356 396.571C512.594 305.381 466.065 258.864 466.065 258.864Z" fill="#FEBBA2" fill-opacity="0.63"/>
<path d="M336.9 615.11C480.28 615.11 596.512 608.769 596.512 600.947C596.512 593.125 480.28 586.784 336.9 586.784C193.52 586.784 77.2874 593.125 77.2874 600.947C77.2874 608.769 193.52 615.11 336.9 615.11Z" fill="#2A2962"/>
<path opacity="0.3" d="M336.9 615.11C480.28 615.11 596.512 608.769 596.512 600.947C596.512 593.125 480.28 586.784 336.9 586.784C193.52 586.784 77.2874 593.125 77.2874 600.947C77.2874 608.769 193.52 615.11 336.9 615.11Z" fill="black"/>
<path d="M490.324 387.468C490.245 387.468 491.226 382.59 491.331 382.237C492.455 378.759 496.692 372.691 500.786 372.704C501.466 372.723 502.135 372.886 502.749 373.18C503.362 373.475 503.907 373.896 504.347 374.416C504.788 374.935 505.114 375.541 505.305 376.195C505.495 376.848 505.546 377.535 505.454 378.209C505.153 381.099 502.564 383.545 500.223 384.97C497.477 386.684 490.324 387.468 490.324 387.468Z" fill="#92E3A9"/>
<path d="M482.386 354.631C486.243 356.017 488.166 363.157 488.035 366.819C488.035 367.133 487.303 372.05 487.237 372.05H487.159C487.46 373.175 487.787 374.391 488.114 375.712C488.689 378.17 489.317 380.943 489.801 384.029C490.362 387.339 490.728 390.68 490.899 394.033C491.107 397.786 490.98 401.55 490.52 405.28C490.512 405.323 490.512 405.368 490.52 405.411C491.03 404.325 492.534 401.318 492.678 401.095C494.691 398.035 500.367 393.249 504.329 394.399C504.979 394.6 505.579 394.934 506.091 395.381C506.603 395.828 507.015 396.377 507.301 396.994C507.587 397.61 507.741 398.28 507.751 398.959C507.762 399.639 507.63 400.313 507.363 400.938C506.317 403.632 503.179 405.319 500.55 406.065C497.582 406.915 490.964 405.908 490.441 405.829C489.883 409.611 489.071 413.351 488.009 417.024C487.399 419.168 486.736 421.313 486.021 423.458C486.479 422.529 486.91 421.705 486.976 421.588C488.99 418.528 494.665 413.741 498.628 414.879C499.278 415.077 499.88 415.411 500.393 415.857C500.906 416.304 501.319 416.854 501.605 417.471C501.892 418.088 502.045 418.758 502.054 419.438C502.064 420.118 501.93 420.793 501.662 421.418C500.615 424.125 497.477 425.799 494.848 426.557C492.22 427.316 486.518 426.557 485.027 426.361C484.753 427.172 484.478 427.996 484.19 428.807C482.883 432.73 481.47 436.653 480.267 440.498C479.836 441.806 479.456 443.218 479.077 444.578C479.496 443.754 479.849 443.061 479.914 442.97C481.915 439.91 487.604 435.123 491.553 436.261C492.202 436.461 492.802 436.796 493.315 437.242C493.827 437.689 494.24 438.238 494.527 438.854C494.814 439.47 494.969 440.14 494.981 440.819C494.994 441.499 494.864 442.173 494.6 442.8C493.554 445.494 490.402 447.181 487.774 447.926C485.145 448.671 480.006 448.018 478.227 447.769C477.874 449.182 477.534 450.581 477.259 451.954C477.089 452.896 476.867 453.798 476.749 454.753C476.632 455.707 476.488 456.636 476.357 457.551C476.174 459.343 475.965 461.2 475.834 462.952C475.729 464.168 475.651 465.332 475.572 466.496C475.978 465.188 476.88 462.495 476.945 462.272C478.398 459.398 480.558 456.94 483.223 455.132C483.368 454.804 483.548 454.493 483.759 454.203C484.129 453.633 484.616 453.146 485.187 452.776C485.757 452.405 486.4 452.159 487.072 452.053C487.744 451.947 488.431 451.983 489.088 452.16C489.745 452.337 490.358 452.65 490.886 453.079C493.998 455.694 493.214 463.122 491.788 466.496C491.71 466.692 490.546 468.746 489.801 470.027C490.363 469.347 490.886 468.719 491.474 467.961C492.612 466.575 493.789 465.215 495.045 463.75L496.967 461.671C497.595 460.951 498.353 460.284 499.046 459.591C500.681 458.009 502.42 456.479 504.212 454.975C502.983 453.981 498.706 450.359 497.477 447.9C496.248 445.441 495.371 442.002 496.653 439.413C496.933 438.791 497.342 438.235 497.851 437.781C498.361 437.327 498.961 436.987 499.611 436.78C500.261 436.574 500.948 436.508 501.626 436.585C502.304 436.662 502.957 436.882 503.545 437.229C507.01 439.399 507.363 446.788 506.461 450.306C506.461 450.529 505.467 453 504.931 454.347C506.016 453.458 507.089 452.556 508.213 451.732C511.457 449.221 514.818 446.788 518.152 444.343L521.199 442.08C520.768 441.727 515.589 437.542 514.203 434.796C512.987 432.351 512.097 428.898 513.379 426.296C513.661 425.675 514.07 425.121 514.58 424.668C515.09 424.216 515.689 423.876 516.339 423.67C516.989 423.464 517.674 423.397 518.352 423.473C519.029 423.549 519.683 423.767 520.271 424.112C523.736 426.296 524.089 433.685 523.187 437.189C523.122 437.464 521.775 441.021 521.382 441.91C523.619 440.236 525.829 438.563 527.921 436.823C530.786 434.483 533.494 431.958 536.029 429.264C535.833 429.107 530.406 424.766 528.993 421.941C527.764 419.495 526.888 416.043 528.17 413.454C528.448 412.832 528.855 412.276 529.364 411.823C529.872 411.369 530.471 411.028 531.12 410.822C531.77 410.616 532.455 410.549 533.132 410.626C533.809 410.703 534.462 410.923 535.048 411.27C538.527 413.44 538.88 420.829 537.978 424.347C537.912 424.569 536.892 427.29 536.369 428.571L536.578 428.689C539.059 425.911 541.286 422.918 543.235 419.744C544.32 418.018 545.275 416.304 546.164 414.604C545.066 413.898 540.109 410.681 538.553 408.223C536.997 405.764 535.82 402.599 536.801 399.879C537.012 399.239 537.354 398.65 537.806 398.149C538.258 397.649 538.809 397.248 539.424 396.973C540.039 396.697 540.705 396.553 541.379 396.549C542.053 396.545 542.721 396.681 543.339 396.95C547.04 398.728 548.191 406.039 547.681 409.661C547.681 409.857 547.158 411.832 546.779 413.27C547.158 412.499 547.576 411.714 547.93 410.969C549.237 408.17 550.349 405.529 551.264 403.122C551.787 401.814 552.219 400.507 552.572 399.421C551.853 398.114 549.054 393.079 548.78 390.267C548.505 387.455 548.95 384.003 551.081 382.041C551.567 381.564 552.149 381.195 552.787 380.958C553.425 380.72 554.106 380.62 554.786 380.663C555.466 380.706 556.129 380.892 556.732 381.208C557.335 381.525 557.865 381.964 558.287 382.499C560.745 385.781 558.405 392.791 556.286 395.786C556.103 396.034 552.768 399.709 552.729 399.709V399.631C552.363 400.742 551.97 401.932 551.5 403.214C550.637 405.581 549.616 408.262 548.335 411.06C546.969 414.128 545.428 417.115 543.719 420.005C541.814 423.244 539.626 426.308 537.18 429.16L537.088 429.264C538.108 428.624 541.012 426.963 541.26 426.858C544.634 425.42 551.983 424.596 554.677 427.695C555.109 428.221 555.426 428.832 555.606 429.488C555.787 430.144 555.829 430.831 555.727 431.503C555.626 432.176 555.385 432.821 555.02 433.395C554.654 433.969 554.172 434.459 553.605 434.835C551.238 436.509 547.681 436.143 545.079 435.345C542.136 434.417 537.232 429.931 536.774 429.578C534.224 432.423 531.485 435.093 528.575 437.569C526.875 439.033 525.136 440.446 523.344 441.832C524.246 441.322 525.057 440.864 525.175 440.812C528.536 439.373 535.885 438.549 538.579 441.649C539.013 442.174 539.331 442.785 539.513 443.441C539.695 444.097 539.737 444.785 539.636 445.458C539.534 446.132 539.293 446.776 538.926 447.35C538.559 447.924 538.076 448.414 537.507 448.789C535.153 450.463 531.596 450.097 528.993 449.299C526.391 448.502 522.036 444.735 520.912 443.728L518.858 445.311C515.563 447.835 512.32 450.332 509.116 452.882C508.004 453.785 506.945 454.713 505.873 455.629C506.683 455.171 507.35 454.792 507.468 454.753C510.829 453.301 518.178 452.49 520.872 455.576C521.308 456.101 521.628 456.711 521.811 457.368C521.994 458.025 522.037 458.713 521.935 459.387C521.834 460.061 521.591 460.706 521.223 461.28C520.856 461.854 520.37 462.343 519.8 462.717C517.433 464.391 513.889 464.025 511.287 463.24C508.684 462.455 504.748 459.029 503.44 457.839C502.381 458.82 501.309 459.787 500.328 460.794C499.661 461.488 499.02 462.102 498.366 462.848C497.712 463.593 497.058 464.26 496.483 464.966C495.345 466.352 494.155 467.791 493.07 469.177C492.311 470.132 491.605 471.06 490.899 471.989C491.984 471.086 494.181 469.373 494.378 469.229C497.477 467.294 504.617 465.372 507.756 468.013C508.263 468.469 508.668 469.027 508.945 469.65C509.223 470.273 509.366 470.947 509.366 471.629C509.366 472.311 509.223 472.985 508.945 473.608C508.668 474.231 508.263 474.789 507.756 475.245C505.676 477.246 502.119 477.468 499.425 477.05C496.444 476.579 491.056 473.127 490.389 472.63C489.212 474.173 488.087 475.69 487.041 477.141C483.419 482.15 480.594 486.453 478.659 489.5L478.462 489.801L475.952 488.584C476.082 488.388 476.213 488.205 476.344 487.996C478.371 484.962 481.326 480.672 485.093 475.69C486.283 474.12 487.577 472.46 488.924 470.76C487.522 469.234 486.212 467.627 485.001 465.947C482.111 467.072 476.109 467.124 475.337 467.124C475.219 469.059 475.115 470.943 475.036 472.721C474.775 478.907 474.801 484.059 474.866 487.656V488.087L472.107 486.78C472.107 483.209 472.251 478.358 472.617 472.643C472.735 470.668 472.905 468.563 473.101 466.418C472.329 466.222 466.091 464.613 463.737 462.73C461.606 461.03 459.356 458.257 459.435 455.367C459.428 454.686 459.564 454.01 459.836 453.385C460.108 452.76 460.509 452.199 461.013 451.74C461.517 451.281 462.112 450.933 462.76 450.72C463.407 450.506 464.092 450.432 464.77 450.502C468.837 451.025 472.238 457.59 472.918 461.187C472.918 461.396 473.127 463.802 473.205 465.241C473.297 464.352 473.362 463.502 473.454 462.625C473.637 460.834 473.872 459.042 474.121 457.12C474.265 456.204 474.422 455.276 474.565 454.334C474.709 453.392 474.958 452.425 475.154 451.457C475.651 449.234 476.252 446.998 476.919 444.761C475.35 444.591 469.792 443.937 467.399 442.577C465.006 441.217 462.39 438.811 462.037 435.947C461.926 435.274 461.958 434.585 462.132 433.925C462.305 433.265 462.617 432.649 463.045 432.118C463.474 431.587 464.01 431.152 464.618 430.843C465.227 430.534 465.893 430.357 466.575 430.324C470.668 430.219 475.036 436.195 476.239 439.648C476.318 439.87 476.906 442.447 477.194 443.872C477.612 442.564 478.005 441.178 478.502 439.844C479.809 435.921 481.287 432.076 482.726 428.192C483.17 427.002 483.589 425.812 484.033 424.635C483.471 424.635 476.841 423.942 474.173 422.412C471.806 421.104 469.164 418.645 468.798 415.781C468.691 415.109 468.726 414.421 468.902 413.763C469.077 413.105 469.389 412.491 469.817 411.96C470.244 411.43 470.779 410.996 471.385 410.685C471.991 410.375 472.656 410.195 473.336 410.158C477.442 410.053 481.81 416.03 483.013 419.482C483.105 419.744 483.942 423.406 484.112 424.413C485.053 421.797 485.982 419.182 486.727 416.566C487.833 413.035 488.707 409.435 489.343 405.79C489.081 405.79 482.15 405.136 479.43 403.567C477.05 402.259 474.408 399.801 474.055 396.937C473.948 396.264 473.983 395.576 474.159 394.918C474.334 394.26 474.646 393.646 475.074 393.116C475.501 392.586 476.036 392.151 476.642 391.841C477.248 391.53 477.913 391.35 478.593 391.313C482.686 391.222 487.054 397.185 488.257 400.638C488.336 400.873 488.977 403.698 489.251 405.045H489.487C490.026 401.361 490.237 397.637 490.114 393.916C490.114 391.862 489.918 389.914 489.722 388.005C488.414 388.005 482.477 388.005 479.862 386.88C477.246 385.755 474.461 383.689 473.781 380.877C473.599 380.219 473.559 379.529 473.663 378.854C473.766 378.179 474.011 377.533 474.381 376.959C474.752 376.385 475.239 375.895 475.812 375.523C476.384 375.15 477.029 374.902 477.704 374.796C481.771 374.247 486.767 379.7 488.349 383.009C488.427 383.192 489.107 385.114 489.565 386.514C489.474 385.664 489.382 384.774 489.264 383.964C488.859 380.89 488.284 378.092 487.76 375.633C487.447 374.234 487.146 373.018 486.845 371.801C485.537 371.148 480.411 368.454 478.646 366.27C476.88 364.086 475.337 360.96 476.03 358.148C476.179 357.478 476.469 356.847 476.881 356.298C477.292 355.748 477.815 355.291 478.416 354.959C479.017 354.626 479.681 354.425 480.366 354.369C481.05 354.312 481.738 354.401 482.386 354.631Z" fill="#92E3A9"/>
<path d="M556.508 417.835C553.304 417.704 546.896 414.421 546.896 414.408C546.896 414.395 550.336 410.851 550.584 410.655C553.448 408.366 560.327 405.646 563.74 407.909C564.297 408.302 564.764 408.808 565.113 409.394C565.461 409.98 565.683 410.632 565.763 411.309C565.843 411.986 565.78 412.673 565.578 413.324C565.376 413.975 565.039 414.576 564.59 415.088C562.759 417.285 559.241 417.939 556.508 417.835Z" fill="#92E3A9"/>
<g opacity="0.5">
<path opacity="0.5" d="M490.324 387.468C490.245 387.468 491.226 382.59 491.331 382.237C492.455 378.759 496.692 372.691 500.786 372.704C501.466 372.723 502.135 372.886 502.749 373.18C503.362 373.475 503.907 373.896 504.347 374.416C504.788 374.935 505.114 375.541 505.305 376.195C505.495 376.848 505.546 377.535 505.454 378.209C505.153 381.099 502.564 383.545 500.223 384.97C497.477 386.684 490.324 387.468 490.324 387.468Z" fill="white"/>
<path opacity="0.5" d="M482.386 354.631C486.243 356.017 488.166 363.157 488.035 366.819C488.035 367.133 487.303 372.05 487.237 372.05H487.159C487.46 373.175 487.787 374.391 488.114 375.712C488.689 378.17 489.317 380.943 489.801 384.029C490.362 387.339 490.728 390.68 490.899 394.033C491.107 397.786 490.98 401.55 490.52 405.28C490.512 405.323 490.512 405.368 490.52 405.411C491.03 404.325 492.534 401.318 492.678 401.095C494.691 398.035 500.367 393.249 504.329 394.399C504.979 394.6 505.579 394.934 506.091 395.381C506.603 395.828 507.015 396.377 507.301 396.994C507.587 397.61 507.741 398.28 507.751 398.959C507.762 399.639 507.63 400.313 507.363 400.938C506.317 403.632 503.179 405.319 500.55 406.065C497.582 406.915 490.964 405.908 490.441 405.829C489.883 409.611 489.071 413.351 488.009 417.024C487.399 419.168 486.736 421.313 486.021 423.458C486.479 422.529 486.91 421.705 486.976 421.588C488.99 418.528 494.665 413.741 498.628 414.879C499.278 415.077 499.88 415.411 500.393 415.857C500.906 416.304 501.319 416.854 501.605 417.471C501.892 418.088 502.045 418.758 502.054 419.438C502.064 420.118 501.93 420.793 501.662 421.418C500.615 424.125 497.477 425.799 494.848 426.557C492.22 427.316 486.518 426.557 485.027 426.361C484.753 427.172 484.478 427.996 484.19 428.807C482.883 432.73 481.47 436.653 480.267 440.498C479.836 441.806 479.456 443.218 479.077 444.578C479.496 443.754 479.849 443.061 479.914 442.97C481.915 439.91 487.604 435.123 491.553 436.261C492.202 436.461 492.802 436.796 493.315 437.242C493.827 437.689 494.24 438.238 494.527 438.854C494.814 439.47 494.969 440.14 494.981 440.819C494.994 441.499 494.864 442.173 494.6 442.8C493.554 445.494 490.402 447.181 487.774 447.926C485.145 448.671 480.006 448.018 478.227 447.769C477.874 449.182 477.534 450.581 477.259 451.954C477.089 452.896 476.867 453.798 476.749 454.753C476.632 455.707 476.488 456.636 476.357 457.551C476.174 459.343 475.965 461.2 475.834 462.952C475.729 464.168 475.651 465.332 475.572 466.496C475.978 465.188 476.88 462.495 476.945 462.272C478.398 459.398 480.558 456.94 483.223 455.132C483.368 454.804 483.548 454.493 483.759 454.203C484.129 453.633 484.616 453.146 485.187 452.776C485.757 452.405 486.4 452.159 487.072 452.053C487.744 451.947 488.431 451.983 489.088 452.16C489.745 452.337 490.358 452.65 490.886 453.079C493.998 455.694 493.214 463.122 491.788 466.496C491.71 466.692 490.546 468.746 489.801 470.027C490.363 469.347 490.886 468.719 491.474 467.961C492.612 466.575 493.789 465.215 495.045 463.75L496.967 461.671C497.595 460.951 498.353 460.284 499.046 459.591C500.681 458.009 502.42 456.479 504.212 454.975C502.983 453.981 498.706 450.359 497.477 447.9C496.248 445.441 495.371 442.002 496.653 439.413C496.933 438.791 497.342 438.235 497.851 437.781C498.361 437.327 498.961 436.987 499.611 436.78C500.261 436.574 500.948 436.508 501.626 436.585C502.304 436.662 502.957 436.882 503.545 437.229C507.01 439.399 507.363 446.788 506.461 450.306C506.461 450.529 505.467 453 504.931 454.347C506.016 453.458 507.089 452.556 508.213 451.732C511.457 449.221 514.818 446.788 518.152 444.343L521.199 442.08C520.768 441.727 515.589 437.542 514.203 434.796C512.987 432.351 512.097 428.898 513.379 426.296C513.661 425.675 514.07 425.121 514.58 424.668C515.09 424.216 515.689 423.876 516.339 423.67C516.989 423.464 517.674 423.397 518.352 423.473C519.029 423.549 519.683 423.767 520.271 424.112C523.736 426.296 524.089 433.685 523.187 437.189C523.122 437.464 521.775 441.021 521.382 441.91C523.619 440.236 525.829 438.563 527.921 436.823C530.786 434.483 533.494 431.958 536.029 429.264C535.833 429.107 530.406 424.766 528.993 421.941C527.764 419.495 526.888 416.043 528.17 413.454C528.448 412.832 528.855 412.276 529.364 411.823C529.872 411.369 530.471 411.028 531.12 410.822C531.77 410.616 532.455 410.549 533.132 410.626C533.809 410.703 534.462 410.923 535.048 411.27C538.527 413.44 538.88 420.829 537.978 424.347C537.912 424.569 536.892 427.29 536.369 428.571L536.578 428.689C539.059 425.911 541.286 422.918 543.235 419.744C544.32 418.018 545.275 416.304 546.164 414.604C545.066 413.898 540.109 410.681 538.553 408.223C536.997 405.764 535.82 402.599 536.801 399.879C537.012 399.239 537.354 398.65 537.806 398.149C538.258 397.649 538.809 397.248 539.424 396.973C540.039 396.697 540.705 396.553 541.379 396.549C542.053 396.545 542.721 396.681 543.339 396.95C547.04 398.728 548.191 406.039 547.681 409.661C547.681 409.857 547.158 411.832 546.779 413.27C547.158 412.499 547.576 411.714 547.93 410.969C549.237 408.17 550.349 405.529 551.264 403.122C551.787 401.814 552.219 400.507 552.572 399.421C551.853 398.114 549.054 393.079 548.78 390.267C548.505 387.455 548.95 384.003 551.081 382.041C551.567 381.564 552.149 381.195 552.787 380.958C553.425 380.72 554.106 380.62 554.786 380.663C555.466 380.706 556.129 380.892 556.732 381.208C557.335 381.525 557.865 381.964 558.287 382.499C560.745 385.781 558.405 392.791 556.286 395.786C556.103 396.034 552.768 399.709 552.729 399.709V399.631C552.363 400.742 551.97 401.932 551.5 403.214C550.637 405.581 549.616 408.262 548.335 411.06C546.969 414.128 545.428 417.115 543.719 420.005C541.814 423.244 539.626 426.308 537.18 429.16L537.088 429.264C538.108 428.624 541.012 426.963 541.26 426.858C544.634 425.42 551.983 424.596 554.677 427.695C555.109 428.221 555.426 428.832 555.606 429.488C555.787 430.144 555.829 430.831 555.727 431.503C555.626 432.176 555.385 432.821 555.02 433.395C554.654 433.969 554.172 434.459 553.605 434.835C551.238 436.509 547.681 436.143 545.079 435.345C542.136 434.417 537.232 429.931 536.774 429.578C534.224 432.423 531.485 435.093 528.575 437.569C526.875 439.033 525.136 440.446 523.344 441.832C524.246 441.322 525.057 440.864 525.175 440.812C528.536 439.373 535.885 438.549 538.579 441.649C539.013 442.174 539.331 442.785 539.513 443.441C539.695 444.097 539.737 444.785 539.636 445.458C539.534 446.132 539.293 446.776 538.926 447.35C538.559 447.924 538.076 448.414 537.507 448.789C535.153 450.463 531.596 450.097 528.993 449.299C526.391 448.502 522.036 444.735 520.912 443.728L518.858 445.311C515.563 447.835 512.32 450.332 509.116 452.882C508.004 453.785 506.945 454.713 505.873 455.629C506.683 455.171 507.35 454.792 507.468 454.753C510.829 453.301 518.178 452.49 520.872 455.576C521.308 456.101 521.628 456.711 521.811 457.368C521.994 458.025 522.037 458.713 521.935 459.387C521.834 460.061 521.591 460.706 521.223 461.28C520.856 461.854 520.37 462.343 519.8 462.717C517.433 464.391 513.889 464.025 511.287 463.24C508.684 462.455 504.748 459.029 503.44 457.839C502.381 458.82 501.309 459.787 500.328 460.794C499.661 461.488 499.02 462.102 498.366 462.848C497.712 463.593 497.058 464.26 496.483 464.966C495.345 466.352 494.155 467.791 493.07 469.177C492.311 470.132 491.605 471.06 490.899 471.989C491.984 471.086 494.181 469.373 494.378 469.229C497.477 467.294 504.617 465.372 507.756 468.013C508.263 468.469 508.668 469.027 508.945 469.65C509.223 470.273 509.366 470.947 509.366 471.629C509.366 472.311 509.223 472.985 508.945 473.608C508.668 474.231 508.263 474.789 507.756 475.245C505.676 477.246 502.119 477.468 499.425 477.05C496.444 476.579 491.056 473.127 490.389 472.63C489.212 474.173 488.087 475.69 487.041 477.141C483.419 482.15 480.594 486.453 478.659 489.5L478.462 489.801L475.952 488.584C476.082 488.388 476.213 488.205 476.344 487.996C478.371 484.962 481.326 480.672 485.093 475.69C486.283 474.12 487.577 472.46 488.924 470.76C487.522 469.234 486.212 467.627 485.001 465.947C482.111 467.072 476.109 467.124 475.337 467.124C475.219 469.059 475.115 470.943 475.036 472.721C474.775 478.907 474.801 484.059 474.866 487.656V488.087L472.107 486.78C472.107 483.209 472.251 478.358 472.617 472.643C472.735 470.668 472.905 468.563 473.101 466.418C472.329 466.222 466.091 464.613 463.737 462.73C461.606 461.03 459.356 458.257 459.435 455.367C459.428 454.686 459.564 454.01 459.836 453.385C460.108 452.76 460.509 452.199 461.013 451.74C461.517 451.281 462.112 450.933 462.76 450.72C463.407 450.506 464.092 450.432 464.77 450.502C468.837 451.025 472.238 457.59 472.918 461.187C472.918 461.396 473.127 463.802 473.205 465.241C473.297 464.352 473.362 463.502 473.454 462.625C473.637 460.834 473.872 459.042 474.121 457.12C474.265 456.204 474.422 455.276 474.565 454.334C474.709 453.392 474.958 452.425 475.154 451.457C475.651 449.234 476.252 446.998 476.919 444.761C475.35 444.591 469.792 443.937 467.399 442.577C465.006 441.217 462.39 438.811 462.037 435.947C461.926 435.274 461.958 434.585 462.132 433.925C462.305 433.265 462.617 432.649 463.045 432.118C463.474 431.587 464.01 431.152 464.618 430.843C465.227 430.534 465.893 430.357 466.575 430.324C470.668 430.219 475.036 436.195 476.239 439.648C476.318 439.87 476.906 442.447 477.194 443.872C477.612 442.564 478.005 441.178 478.502 439.844C479.809 435.921 481.287 432.076 482.726 428.192C483.17 427.002 483.589 425.812 484.033 424.635C483.471 424.635 476.841 423.942 474.173 422.412C471.806 421.104 469.164 418.645 468.798 415.781C468.691 415.109 468.726 414.421 468.902 413.763C469.077 413.105 469.389 412.491 469.817 411.96C470.244 411.43 470.779 410.996 471.385 410.685C471.991 410.375 472.656 410.195 473.336 410.158C477.442 410.053 481.81 416.03 483.013 419.482C483.105 419.744 483.942 423.406 484.112 424.413C485.053 421.797 485.982 419.182 486.727 416.566C487.833 413.035 488.707 409.435 489.343 405.79C489.081 405.79 482.15 405.136 479.43 403.567C477.05 402.259 474.408 399.801 474.055 396.937C473.948 396.264 473.983 395.576 474.159 394.918C474.334 394.26 474.646 393.646 475.074 393.116C475.501 392.586 476.036 392.151 476.642 391.841C477.248 391.53 477.913 391.35 478.593 391.313C482.686 391.222 487.054 397.185 488.257 400.638C488.336 400.873 488.977 403.698 489.251 405.045H489.487C490.026 401.361 490.237 397.637 490.114 393.916C490.114 391.862 489.918 389.914 489.722 388.005C488.414 388.005 482.477 388.005 479.862 386.88C477.246 385.755 474.461 383.689 473.781 380.877C473.599 380.219 473.559 379.529 473.663 378.854C473.766 378.179 474.011 377.533 474.381 376.959C474.752 376.385 475.239 375.895 475.812 375.523C476.384 375.15 477.029 374.902 477.704 374.796C481.771 374.247 486.767 379.7 488.349 383.009C488.427 383.192 489.107 385.114 489.565 386.514C489.474 385.664 489.382 384.774 489.264 383.964C488.859 380.89 488.284 378.092 487.76 375.633C487.447 374.234 487.146 373.018 486.845 371.801C485.537 371.148 480.411 368.454 478.646 366.27C476.88 364.086 475.337 360.96 476.03 358.148C476.179 357.478 476.469 356.847 476.881 356.298C477.292 355.748 477.815 355.291 478.416 354.959C479.017 354.626 479.681 354.425 480.366 354.369C481.05 354.312 481.738 354.401 482.386 354.631Z" fill="white"/>
<path opacity="0.5" d="M556.508 417.835C553.304 417.704 546.896 414.421 546.896 414.408C546.896 414.395 550.336 410.851 550.584 410.655C553.448 408.366 560.327 405.646 563.74 407.909C564.297 408.302 564.764 408.808 565.113 409.394C565.461 409.98 565.683 410.632 565.763 411.309C565.843 411.986 565.78 412.673 565.578 413.324C565.376 413.975 565.039 414.576 564.59 415.088C562.759 417.285 559.241 417.939 556.508 417.835Z" fill="white"/>
</g>
<path d="M519.094 498.079C519.094 498.079 499.648 451.195 488.767 453.236C477.887 455.276 507.403 527.961 507.403 527.961C507.403 527.961 473.192 463.423 449.862 463.423C426.532 463.423 458.415 534.761 487.957 558.536C487.957 558.536 441.31 508.266 414.096 519.134C386.881 530.001 468.524 580.951 468.524 580.951C468.524 580.951 421.092 566.004 426.532 577.551C431.972 589.099 446.75 591.139 446.75 591.139L393.132 593.859H579.747L537.755 589.779C537.755 589.779 581.303 568.044 569.638 559.216C557.973 550.389 532.315 569.404 532.315 569.404C532.315 569.404 576.634 520.494 568.082 502.146C559.529 483.798 521.422 535.441 521.422 535.441C521.422 535.441 552.533 469.543 546.269 457.996C540.005 446.448 519.094 498.079 519.094 498.079Z" fill="#92E3A9"/>
<path opacity="0.4" d="M519.094 498.079C519.094 498.079 499.648 451.195 488.767 453.236C477.887 455.276 507.403 527.961 507.403 527.961C507.403 527.961 473.192 463.423 449.862 463.423C426.532 463.423 458.415 534.761 487.957 558.536C487.957 558.536 441.31 508.266 414.096 519.134C386.881 530.001 468.524 580.951 468.524 580.951C468.524 580.951 421.092 566.004 426.532 577.551C431.972 589.099 446.75 591.139 446.75 591.139L393.132 593.859H579.747L537.755 589.779C537.755 589.779 581.303 568.044 569.638 559.216C557.973 550.389 532.315 569.404 532.315 569.404C532.315 569.404 576.634 520.494 568.082 502.146C559.529 483.798 521.422 535.441 521.422 535.441C521.422 535.441 552.533 469.543 546.269 457.996C540.005 446.448 519.094 498.079 519.094 498.079Z" fill="#45A666"/>
<path d="M525.319 500.537C508.2 551.082 508.2 586.849 508.2 586.849C508.2 586.849 528.418 587.621 549.42 572.072" stroke="#263238" stroke-linecap="round" stroke-linejoin="round"/>
<path d="M516.766 527.765C513.236 512.651 508.553 497.83 502.76 483.432" stroke="#263238" stroke-linecap="round" stroke-linejoin="round"/>
<path d="M466.222 498.209L509.757 562.747C509.757 562.747 539.312 537.9 549.42 523.868" stroke="#263238" stroke-linecap="round" stroke-linejoin="round"/>
<path d="M508.985 578.31C508.985 578.31 463.11 556.536 444.448 544.138" stroke="#263238" stroke-linecap="round" stroke-linejoin="round"/>
<path d="M467.804 230.275H328.086C322.365 230.275 317.728 234.913 317.728 240.633V583.501C317.728 589.222 322.365 593.859 328.086 593.859H467.804C473.525 593.859 478.162 589.222 478.162 583.501V240.633C478.162 234.913 473.525 230.275 467.804 230.275Z" fill="white" stroke="#263238" stroke-linecap="round" stroke-linejoin="round"/>
<path d="M472.8 293.924C472.235 293.924 471.692 293.7 471.293 293.3C470.893 292.9 470.668 292.358 470.668 291.793V263.218C470.71 262.68 470.954 262.177 471.35 261.811C471.747 261.444 472.267 261.241 472.806 261.241C473.346 261.241 473.866 261.444 474.263 261.811C474.659 262.177 474.902 262.68 474.945 263.218V291.74C474.95 292.025 474.898 292.308 474.793 292.573C474.687 292.838 474.53 293.079 474.33 293.282C474.131 293.486 473.893 293.647 473.63 293.757C473.367 293.868 473.085 293.924 472.8 293.924Z" fill="#263238"/>
<path d="M472.8 320.393C472.235 320.393 471.692 320.169 471.293 319.769C470.893 319.369 470.668 318.827 470.668 318.262V302.294C470.71 301.756 470.954 301.253 471.35 300.887C471.747 300.52 472.267 300.316 472.806 300.316C473.346 300.316 473.866 300.52 474.263 300.887C474.659 301.253 474.902 301.756 474.945 302.294V318.262C474.941 318.828 474.714 319.37 474.312 319.77C473.91 320.169 473.366 320.393 472.8 320.393Z" fill="#263238"/>
<path d="M455.708 230.275H315.989C310.269 230.275 305.632 234.913 305.632 240.633V583.501C305.632 589.222 310.269 593.859 315.989 593.859H455.708C461.428 593.859 466.065 589.222 466.065 583.501V240.633C466.065 234.913 461.428 230.275 455.708 230.275Z" fill="#263238" stroke="#263238" stroke-linecap="round" stroke-linejoin="round"/>
<path d="M455.381 254.482H316.316V566.33H455.381V254.482Z" fill="#404099" fill-opacity="0.76"/>
<path d="M365.199 244.517H402.221" stroke="white" stroke-width="3" stroke-linecap="round" stroke-linejoin="round"/>
<path d="M380.866 577.368C380.866 579.918 379.27 581.984 377.296 581.984C375.321 581.984 373.739 579.918 373.739 577.368C373.739 574.818 375.334 572.738 377.296 572.738C379.257 572.738 380.866 574.805 380.866 577.368Z" fill="white"/>
<path d="M385.848 332.085C399.167 332.085 409.963 319.496 409.963 303.968C409.963 288.439 399.167 275.851 385.848 275.851C372.53 275.851 361.734 288.439 361.734 303.968C361.734 319.496 372.53 332.085 385.848 332.085Z" fill="white"/>
<path d="M385.848 303.614C390.904 303.614 395.003 298.831 395.003 292.93C395.003 287.029 390.904 282.246 385.848 282.246C380.793 282.246 376.694 287.029 376.694 292.93C376.694 298.831 380.793 303.614 385.848 303.614Z" fill="#263238" stroke="#263238" stroke-linecap="round" stroke-linejoin="round"/>
<path d="M385.848 306.452C376.694 306.452 369.201 313.475 369.201 322.145C369.208 322.952 369.283 323.757 369.423 324.552C371.454 326.921 373.973 328.824 376.808 330.128C379.644 331.433 382.727 332.108 385.848 332.108C388.969 332.108 392.053 331.433 394.888 330.128C397.724 328.824 400.243 326.921 402.274 324.552C402.403 323.756 402.473 322.951 402.483 322.145C402.483 313.475 395.029 306.452 385.848 306.452Z" fill="#263238" stroke="#263238" stroke-linecap="round" stroke-linejoin="round"/>
<path d="M415.168 426.44H356.529C354.977 426.378 353.513 425.703 352.458 424.563C351.404 423.423 350.845 421.91 350.906 420.358V384.16C350.906 363.301 366.598 346.326 385.848 346.326C405.098 346.326 420.778 363.327 420.778 384.16V420.332C420.811 421.102 420.693 421.87 420.429 422.594C420.165 423.318 419.761 423.982 419.239 424.549C418.718 425.117 418.091 425.575 417.392 425.9C416.693 426.224 415.938 426.408 415.168 426.44ZM362.139 414.277H409.545V384.199C409.545 370.049 398.913 358.528 385.848 358.528C372.784 358.528 362.139 370.049 362.139 384.199V414.277Z" fill="#263238"/>
<path d="M426.558 401.736H345.138V478.763H426.558V401.736Z" fill="#FE9800" fill-opacity="0.91"/>
<path d="M397.71 454.765L391.668 440.236C393.004 439.226 394.084 437.916 394.822 436.413C395.561 434.909 395.936 433.254 395.918 431.579C395.918 425.785 391.589 421.117 386.241 421.117C380.892 421.117 376.576 425.798 376.576 431.579C376.556 433.253 376.929 434.908 377.665 436.412C378.401 437.915 379.479 439.225 380.814 440.236L374.785 454.765H397.71Z" fill="#263238" stroke="#263238" stroke-linecap="round" stroke-linejoin="round"/>
<path d="M361.041 547.982C361.166 548.074 361.317 548.124 361.472 548.126C361.583 548.126 361.693 548.098 361.791 548.046C361.889 547.993 361.972 547.918 362.034 547.825L455.381 420.855V418.449L360.936 546.988C360.877 547.06 360.834 547.143 360.807 547.232C360.781 547.321 360.772 547.415 360.782 547.507C360.792 547.599 360.82 547.689 360.864 547.77C360.908 547.852 360.968 547.924 361.041 547.982Z" fill="white"/>
<path d="M436.602 300.227C436.546 300.303 436.506 300.388 436.484 300.479C436.461 300.57 436.458 300.665 436.472 300.757C436.487 300.85 436.52 300.938 436.569 301.018C436.618 301.098 436.682 301.167 436.759 301.221C436.912 301.33 437.102 301.375 437.288 301.346C437.473 301.316 437.64 301.215 437.752 301.064L455.381 277.093V274.739L436.602 300.227Z" fill="white"/>
<path d="M316.316 466.274L431.554 309.565C431.665 309.412 431.711 309.222 431.681 309.036C431.652 308.849 431.549 308.682 431.397 308.571C431.244 308.46 431.054 308.414 430.867 308.444C430.681 308.473 430.514 308.575 430.403 308.728L316.368 463.868L316.316 466.274Z" fill="white"/>
<path d="M350.212 563.44C350.324 563.438 350.433 563.411 350.533 563.362C350.632 563.312 350.72 563.24 350.788 563.152L357.327 554.312C357.382 554.237 357.422 554.151 357.445 554.06C357.467 553.969 357.471 553.875 357.456 553.782C357.442 553.69 357.409 553.601 357.36 553.521C357.31 553.442 357.246 553.373 357.17 553.318C357.016 553.209 356.826 553.165 356.641 553.194C356.455 553.223 356.288 553.324 356.176 553.475L349.637 562.302C349.581 562.377 349.54 562.462 349.517 562.552C349.493 562.643 349.488 562.737 349.502 562.829C349.515 562.922 349.547 563.011 349.594 563.091C349.642 563.171 349.706 563.241 349.781 563.296C349.903 563.393 350.056 563.444 350.212 563.44Z" fill="white"/>
<path d="M455.381 446.278L378.747 550.519C378.67 550.625 378.623 550.75 378.612 550.881C378.602 551.012 378.628 551.143 378.687 551.259C378.747 551.376 378.838 551.474 378.95 551.542C379.063 551.61 379.192 551.645 379.323 551.644C379.435 551.646 379.546 551.621 379.646 551.571C379.746 551.521 379.833 551.447 379.898 551.356L455.381 448.671V446.278Z" fill="white"/>
<path d="M186.235 299.77C187.532 296.897 188.158 293.767 188.066 290.616C188.066 284.77 180.991 281.383 172.674 280.454C164.357 279.526 160.669 282.913 161.898 285.071C163.176 286.85 164.735 288.41 166.514 289.687C166.514 289.687 158.197 285.071 152.652 288.772C147.108 292.473 155.124 290.93 153.581 294.617C152.038 298.305 143.42 296.775 141.262 306.623C139.104 316.47 145.264 326.331 139.719 330.646C134.174 334.962 117.487 329.103 112.622 339.879C107.758 350.655 114.663 355.441 102.971 362.216C91.2802 368.99 82.7537 375.607 86.1408 392.229C89.5278 408.85 100.617 414.67 122.483 408.798C144.348 402.926 142.805 389.705 149.945 376.104C157.086 362.503 168.123 365.328 171.51 357.625C174.897 349.923 170.581 340.69 170.895 333.602C171.209 326.514 178.284 324.984 181.056 316.601C183.829 308.218 186.235 299.77 186.235 299.77Z" fill="#263238" stroke="#263238" stroke-linecap="round" stroke-linejoin="round"/>
<path d="M88.6908 391.915C88.1173 393.073 87.826 394.35 87.8408 395.642" stroke="white" stroke-width="0.5" stroke-linecap="round" stroke-linejoin="round"/>
<path d="M174.413 293.663C174.413 293.663 170.568 289.217 177.97 291.283C187.294 293.899 176.349 304.688 172.138 306.858C163.69 311.187 152.522 309.801 145.983 317.674C140.046 324.788 148.062 332.203 144.505 337.839C140.948 343.476 126.707 340.206 121.973 346.994C117.239 353.781 130.565 368.349 116.925 376.353C107.065 382.146 96.2627 384.369 91.0448 388.96" stroke="white" stroke-width="0.5" stroke-linecap="round" stroke-linejoin="round"/>
<path d="M152.299 319.975C151.491 321.866 151.246 323.951 151.593 325.978C152.77 331.013 159.596 340.507 153.372 345.843C147.147 351.178 136.463 350.877 134.697 357.129C132.932 363.38 136.476 380.551 130.552 388.515C124.628 396.479 113.054 395.93 106.829 401.265C100.604 406.601 101.494 409.57 101.494 409.57" stroke="white" stroke-width="0.5" stroke-linecap="round" stroke-linejoin="round"/>
<path d="M155.438 314.116C154.899 314.878 154.401 315.668 153.947 316.483" stroke="white" stroke-width="0.5" stroke-linecap="round" stroke-linejoin="round"/>
<path d="M190.224 391.444L191.728 403.214C191.728 403.214 199.574 411.06 205.341 415.912C211.108 420.764 225.886 431.03 225.886 431.03L218.392 433.162C218.392 433.162 193.898 418.646 189.06 417.469C184.221 416.292 180.599 409.308 179.095 407.19C177.591 405.071 186.287 389.326 190.224 391.444Z" fill="white" stroke="#263238" stroke-linecap="round" stroke-linejoin="round"/>
<path d="M205.184 582.939C205.184 582.939 212.586 589.19 215.646 591.283C218.706 593.375 222.276 594.317 221.714 595.455C221.152 596.592 219.622 597.73 212.416 596.762C205.21 595.795 203.131 593.349 201.797 592.97C200.463 592.591 197.246 593.545 194.788 592.028C192.329 590.511 196.226 581.475 196.226 581.475C197.306 582.737 198.798 583.577 200.437 583.845C202.077 584.113 203.758 583.792 205.184 582.939Z" fill="white" stroke="#263238" stroke-linecap="round" stroke-linejoin="round"/>
<path d="M221.688 595.454C221.694 595.393 221.694 595.332 221.688 595.271C217.528 595.653 213.333 595.259 209.317 594.107C204.661 593.009 203.288 590.537 198.855 590.537C197.115 590.553 195.385 590.27 193.742 589.7C193.694 590.136 193.754 590.578 193.915 590.986C194.077 591.394 194.336 591.756 194.67 592.041C197.129 593.558 200.359 592.603 201.68 592.983C203 593.362 205.093 595.834 212.298 596.775C219.504 597.717 221.113 596.592 221.688 595.454Z" fill="white" stroke="#263238" stroke-linecap="round" stroke-linejoin="round"/>
<path d="M166.436 330.188C166.436 330.188 167.861 339.787 166.031 343.658C164.2 347.529 158.472 347.948 153.581 348.772C148.69 349.596 137.456 353.872 138.673 364.896C139.889 375.921 153.986 399.801 153.986 406.535C153.986 413.27 149.697 416.736 145.002 429.801C140.307 442.865 140.922 467.163 142.387 482.882C143.46 493.257 145.509 503.507 148.507 513.497C148.507 513.497 136.737 532.486 131.506 540.646C126.275 548.807 107.967 584.338 107.967 584.338C107.967 584.338 107.967 585.555 110.818 586.379C112.824 586.866 114.899 587.004 116.951 586.784C116.951 586.784 152.051 544.53 158.589 537.39C165.128 530.249 171.248 517.773 172.059 512.072C172.87 506.37 171.863 471.453 171.863 471.453C171.863 471.453 179.199 489.003 184.94 497.987C188.422 503.485 191.618 509.16 194.513 514.988C193.709 522.377 193.709 529.831 194.513 537.22C195.939 547.42 194.735 580.193 196.161 582.848C197.586 585.502 203.118 584.391 204.347 583.175C205.577 581.958 206.152 574.02 206.152 574.02C206.152 574.02 208.597 549.173 210.075 537.481C211.553 525.79 213.998 515.838 213.148 513.183C212.298 510.528 207.224 482.15 203.34 468.719C199.456 455.289 187.647 430.141 185.032 423.615C182.417 417.089 180.939 411.152 181.357 409.112C181.776 407.072 189.727 394.831 191.819 391.562C193.012 389.345 193.67 386.881 193.74 384.365C193.811 381.849 193.292 379.351 192.225 377.072C189.779 371.762 192.225 364.609 191.819 360.332C191.414 356.056 185.084 354.199 181.815 352.577C178.546 350.956 177.316 347.268 177.316 344.208C177.516 341.63 178.139 339.103 179.16 336.727C179.16 336.727 169.091 330.188 166.436 330.188Z" fill="white" stroke="#263238" stroke-linecap="round" stroke-linejoin="round"/>
<path d="M191.178 373.855C190.103 371.122 189.207 368.322 188.497 365.472" stroke="#263238" stroke-linecap="round" stroke-linejoin="round"/>
<path d="M164.67 396.584C164.67 396.584 168.358 397.394 175.747 393.707" stroke="#263238" stroke-linecap="round" stroke-linejoin="round"/>
<path d="M203.38 468.589C199.679 455.721 188.707 432.22 185.424 424.465C169.731 430.35 155.059 425.328 148.167 422.085C147.173 424.256 146.101 426.767 145.002 429.801C140.307 442.878 140.922 467.163 142.387 482.883C143.46 493.257 145.509 503.507 148.507 513.497C148.507 513.497 136.737 532.486 131.506 540.646C126.275 548.807 107.967 584.339 107.967 584.339C107.967 584.339 107.967 585.555 110.818 586.379C112.824 586.867 114.899 587.004 116.951 586.784C116.951 586.784 152.051 544.53 158.589 537.39C165.128 530.25 171.248 517.774 172.059 512.072C172.87 506.37 171.863 471.453 171.863 471.453C171.863 471.453 179.199 489.003 184.94 497.987C188.422 503.485 191.618 509.16 194.513 514.988C193.709 522.377 193.709 529.831 194.513 537.22C195.939 547.421 194.735 580.193 196.161 582.848C197.586 585.503 203.118 584.391 204.347 583.175C205.577 581.959 206.152 574.02 206.152 574.02C206.152 574.02 208.597 549.173 210.075 537.482C211.553 525.79 213.998 515.838 213.148 513.183C212.298 510.529 207.264 482.059 203.38 468.589Z" fill="#263238" stroke="#263238" stroke-linecap="round" stroke-linejoin="round"/>
<path d="M283.335 455.629V452.961H285.571V432.011H283.335H261.26H259.024V452.961H261.26V455.629H259.011V460.494H267.629V458.859H276.966V460.494H285.584V455.629H283.335Z" fill="#FE4400" stroke="#263238" stroke-linecap="round" stroke-linejoin="round"/>
<path d="M140.66 425.746H294.66C295.277 425.746 295.869 425.992 296.306 426.428C296.742 426.865 296.988 427.457 296.988 428.074V432.756C296.988 433.373 296.742 433.966 296.306 434.402C295.869 434.839 295.277 435.084 294.66 435.084H140.66V425.733V425.746Z" fill="#FE4400" stroke="#263238" stroke-linecap="round" stroke-linejoin="round"/>
<path d="M251.191 424.347H241.814C241.099 424.347 240.519 424.927 240.519 425.642V435.202C240.519 435.917 241.099 436.496 241.814 436.496H251.191C251.906 436.496 252.485 435.917 252.485 435.202V425.642C252.485 424.927 251.906 424.347 251.191 424.347Z" fill="#FE4400" stroke="#263238" stroke-linecap="round" stroke-linejoin="round"/>
<path d="M145.479 434.354C147.648 421.104 138.666 408.604 125.416 406.434C112.166 404.264 99.6656 413.246 97.4959 426.497C95.3261 439.747 104.308 452.247 117.558 454.417C130.809 456.587 143.309 447.604 145.479 434.354Z" fill="#FE4400" stroke="#263238" stroke-linecap="round" stroke-linejoin="round"/>
<path d="M126.485 430.363C127.894 429.688 129.09 428.638 129.941 427.327C130.793 426.017 131.266 424.497 131.31 422.935C131.31 418.161 126.916 414.291 121.489 414.291C116.062 414.291 111.668 418.214 111.668 422.935C111.709 424.498 112.181 426.019 113.033 427.33C113.885 428.641 115.082 429.69 116.493 430.363C115.083 431.04 113.886 432.093 113.035 433.405C112.184 434.718 111.711 436.24 111.668 437.804C111.668 442.577 116.062 446.448 121.489 446.448C126.916 446.448 131.31 442.525 131.31 437.804C131.264 436.241 130.79 434.72 129.939 433.408C129.088 432.096 127.893 431.042 126.485 430.363Z" fill="white" stroke="#263238" stroke-linecap="round" stroke-linejoin="round"/>
<path d="M221.086 435.293C221.086 435.293 228.697 438.51 231.051 438.51C233.405 438.51 236.125 436.143 237.472 433.279C238.819 430.415 238.78 429.055 237.982 429.735L236.295 431.043C236.295 431.043 237.603 428.179 236.125 428.519C235.102 428.86 234.253 429.587 233.758 430.546C233.758 430.546 233.588 428.009 232.241 429.238C231.35 430.045 230.556 430.954 229.874 431.945C229.874 431.945 229.704 428.741 228.854 429.578C228.004 430.415 224.813 434.979 224.813 434.979L221.086 435.293Z" fill="white" stroke="#263238" stroke-linecap="round" stroke-linejoin="round"/>
<path d="M229.874 431.919C229.874 431.919 229.364 435.973 226.84 436.654L229.874 431.919Z" fill="white"/>
<path d="M229.874 431.919C229.874 431.919 229.364 435.973 226.84 436.654" stroke="#263238" stroke-linecap="round" stroke-linejoin="round"/>
<path d="M233.758 430.572C233.758 430.572 232.451 436.98 230.384 438L233.758 430.572Z" fill="white"/>
<path d="M233.758 430.572C233.758 430.572 232.451 436.98 230.384 438" stroke="#263238" stroke-linecap="round" stroke-linejoin="round"/>
<path d="M236.295 431.069C235.621 433.408 234.714 435.673 233.588 437.83L236.295 431.069Z" fill="white"/>
<path d="M236.295 431.069C235.621 433.408 234.714 435.673 233.588 437.83" stroke="#263238" stroke-linecap="round" stroke-linejoin="round"/>
<path d="M181.331 352.185C180.014 351.296 178.947 350.083 178.233 348.664C177.518 347.244 177.18 345.665 177.251 344.077C177.485 341.54 178.13 339.058 179.16 336.727C179.16 336.727 169.156 330.188 166.501 330.188C166.501 330.188 167.927 339.787 166.096 343.658C165.496 344.863 164.517 345.836 163.31 346.431C165.728 352.94 169.005 359.098 173.053 364.74C176.728 369.356 178.519 359.626 181.331 352.185Z" fill="white" stroke="#263238" stroke-linecap="round" stroke-linejoin="round"/>
<path d="M150.455 350.093C147.96 350.519 145.598 351.519 143.555 353.015C141.512 354.511 139.845 356.461 138.686 358.711C134.658 366.479 117.056 401.736 118.56 403.842C127.112 415.873 158.223 424.53 161.388 427.695C164.552 431.005 168.024 434.004 171.758 436.653C174.923 438.667 181.24 437.804 182.39 437.229C183.541 436.653 184.404 434.064 182.39 434.064C181.621 434.074 180.871 433.82 180.267 433.344C179.662 432.868 179.239 432.199 179.069 431.449C178.781 430.298 182.233 432.599 183.96 431.736C185.686 430.873 180.102 427.721 178.376 426.283C176.649 424.844 175.211 422.843 172.909 422.843C170.608 422.843 166.279 422.843 166.279 422.843C166.279 422.843 155.686 415.167 149.278 409.452C144.292 404.953 138.854 400.982 133.049 397.604L152.469 365.655" fill="white"/>
<path d="M150.455 350.093C147.96 350.519 145.598 351.519 143.555 353.015C141.512 354.511 139.845 356.461 138.686 358.711C134.658 366.479 117.056 401.736 118.56 403.842C127.112 415.873 158.223 424.53 161.388 427.695C164.552 431.005 168.024 434.004 171.758 436.653C174.923 438.667 181.24 437.804 182.39 437.229C183.541 436.653 184.404 434.064 182.39 434.064C181.621 434.074 180.871 433.82 180.267 433.344C179.662 432.868 179.239 432.199 179.069 431.449C178.781 430.298 182.233 432.599 183.96 431.736C185.686 430.873 180.102 427.721 178.376 426.283C176.649 424.844 175.211 422.843 172.909 422.843C170.608 422.843 166.279 422.843 166.279 422.843C166.279 422.843 155.686 415.167 149.278 409.452C144.292 404.953 138.854 400.982 133.049 397.604L152.469 365.655" stroke="#263238" stroke-linecap="round" stroke-linejoin="round"/>
<path d="M178.363 426.296C176.636 424.858 175.198 422.857 172.896 422.857C170.595 422.857 166.266 422.857 166.266 422.857C166.266 422.857 155.673 415.18 149.265 409.465C144.279 404.966 138.841 400.995 133.036 397.617L140.804 384.827C136.833 382.423 132.29 381.127 127.648 381.074C122.417 391.98 117.723 402.756 118.494 403.894C127.047 415.926 158.158 424.583 161.323 427.748C164.487 431.057 167.959 434.057 171.693 436.706C174.858 438.72 181.174 437.857 182.325 437.281C183.476 436.706 184.339 434.116 182.325 434.116C181.556 434.127 180.806 433.872 180.201 433.396C179.597 432.92 179.174 432.251 179.003 431.501C178.716 430.35 182.168 432.652 183.894 431.789C185.62 430.926 180.089 427.748 178.363 426.296Z" fill="white" stroke="#263238" stroke-linecap="round" stroke-linejoin="round"/>
<path d="M188.89 316.104C187.87 314.064 187.87 312.429 188.275 309.565C188.681 306.701 186.235 299.757 186.235 299.757C183.737 304.072 176.519 306.636 173.328 307.603C169.81 308.676 174.949 311.108 174.4 314.365C173.851 317.621 166.828 319.504 166.828 319.504C166.828 319.504 164.775 315.28 161.924 315.28C159.073 315.28 157.046 321.819 158.668 325.284C159.09 326.244 159.827 327.032 160.755 327.519C161.684 328.007 162.751 328.164 163.781 327.965C163.781 327.965 163.585 334.099 167.456 335.929C171.586 337.9 175.895 339.472 180.324 340.624C182.77 341.03 185.215 339.813 186.235 336.139C187.033 332.435 187.579 328.682 187.87 324.905C189.582 323.785 191.158 322.468 192.565 320.982C193.545 319.569 189.91 318.144 188.89 316.104Z" fill="white" stroke="#263238" stroke-linecap="round" stroke-linejoin="round"/>
<path d="M184.914 316.195C184.914 317.32 184.548 318.222 184.104 318.222C183.659 318.222 183.293 317.32 183.293 316.195C183.293 315.071 183.659 314.168 184.104 314.168C184.548 314.168 184.914 315.071 184.914 316.195Z" fill="#263238"/>
<path d="M181.396 312.821C181.396 312.821 183.567 310.376 185.189 310.925" stroke="#263238" stroke-linecap="round" stroke-linejoin="round"/>
<path d="M185.189 329.587C184.209 329.883 183.169 329.918 182.171 329.688C181.173 329.459 180.253 328.973 179.5 328.279" stroke="#263238" stroke-linecap="round" stroke-linejoin="round"/>
<path d="M108.058 584.338C108.058 584.338 103.181 594.12 103.364 595.454C103.547 596.788 113.224 603.798 117.749 606.256C122.274 608.715 130.46 609.107 129.885 605.694C129.309 602.281 121.541 600.005 119.645 594.879C118.635 592.227 117.762 589.525 117.03 586.784C113.868 586.831 110.758 585.983 108.058 584.338Z" fill="white" stroke="#263238" stroke-linecap="round" stroke-linejoin="round"/>
<path d="M129.911 605.746C126.429 606.213 122.886 605.711 119.671 604.295C112.649 601.248 105.848 595.023 103.978 593.257C103.646 593.963 103.434 594.718 103.351 595.494C103.547 596.801 113.211 603.837 117.736 606.296C122.261 608.754 130.382 609.094 129.911 605.746Z" fill="white" stroke="#263238" stroke-linecap="round" stroke-linejoin="round"/>
</svg>
